<?xml version="1.0" encoding="UTF-8"?><svg xmlns="http://www.w3.org/2000/svg" viewBox="0 0 1200 367.9"><defs><style>.d{fill:#fff;}.e{fill:#05d4b7;}</style></defs><g id="a"/><g id="b"><g id="c"><g><g><path class="d" d="M151.58,237.2H70.94l82.38-114.23c2.65-3.88,3.87-7.45,3.87-12.05v-18.78c0-6.23-3.47-9.69-9.7-9.69H13.78c-6.22,0-9.7,3.47-9.7,9.69v30.01c0,6.23,3.47,9.7,9.7,9.7H86.26L3.88,246.08c-2.66,3.88-3.88,7.45-3.88,12.05v18.78c0,6.22,3.47,9.7,9.7,9.7H151.58c6.23,0,9.7-3.48,9.7-9.7v-30.01c0-6.22-3.47-9.69-9.7-9.69Z"/><path class="d" d="M283.13,82.45c-60.92,0-102.66,44.55-102.66,102.07s40.77,102.08,103.82,102.08c39.52,0,71.29-18.21,85.91-50.84,2.8-5.81-.87-10.07-7.56-10.07l-30.99,.29c-4.84,0-7.84,1.94-11.32,5.13-7.66,8.33-20.73,14.14-35.35,14.14-24.79,0-45.7-12.57-52.5-40.1h136.95c5.52,0,9.19-2.62,9.88-8.52,.29-3.88,.58-7.75,.58-11.92,0-57.14-39.52-102.27-96.75-102.27Zm-50.86,83.38c5.94-24.26,24.06-38.55,50.57-38.55,20.96,0,41.32,10.86,47.1,38.55h-97.68Z"/><path class="d" d="M626.49,0c-57.07-.2-84.64,24.03-84.64,76.48v6.02h-62.35v-2.01c0-23.37,11.84-29.96,32.49-30.76,6.51-.3,9.93-3.01,9.93-9.13V9.93C521.92,3.91,518.51,0,512.39,0c-57.06-.2-84.64,28.05-84.64,80.5v2.01h-19.16c-6.11,0-9.52,3.41-9.52,9.52v30.69c0,6.12,3.41,9.53,9.52,9.53h19.16v144.83c0,6.11,3.41,9.53,9.53,9.53h32.69c6.12,0,9.53-3.41,9.53-9.53V132.24h62.35v144.83c0,6.11,3.41,9.53,9.53,9.53h32.69c6.11,0,9.53-3.41,9.53-9.53V132.24h32.89c6.11,0,9.53-3.41,9.53-9.53v-30.69c0-6.12-3.41-9.52-9.53-9.52h-32.89v-6.02c0-23.36,11.84-29.95,32.49-30.76,6.51-.3,9.93-3.01,9.93-9.13V9.93c0-6.02-3.41-9.93-9.53-9.93Z"/><path class="d" d="M806.82,81.77h36.07c6.95,0,10.43,3.98,8.08,10.93l-90.24,267.43c-1.63,5.41-5.82,7.77-11.24,7.77h-36.08c-6.94,0-10.42-3.99-8.07-10.94l24.94-73.68-73.68-190.27c-2.45-6.64,.62-11.24,7.66-11.24h35.97c5.41,0,9,2.56,10.93,7.66l45.48,120.99,39.25-120.59c1.63-5.41,5.52-8.07,10.93-8.07Z"/></g><g><path class="e" d="M1124.24,170.21h-197.9c-8.22,0-14.89-6.67-14.89-14.89h0c0-8.22,6.67-14.89,14.89-14.89h198.2c24.99,0,46.1-20.45,45.67-45.43-.41-24.28-20.29-43.9-44.66-43.9-20.78,0-38.29,14.26-43.26,33.52-1.67,6.49-7.32,11.15-14.02,11.15h-.74c-9.37,0-16.5-8.74-14.26-17.84,8.01-32.46,37.38-56.6,72.28-56.6,40.61,0,73.74,32.69,74.43,73.15,.71,41.65-34.1,75.74-75.75,75.74Z"/><path class="e" d="M1062.51,286.85h-136.17c-8.22,0-14.89-6.67-14.89-14.89h0c0-8.22,6.67-14.89,14.89-14.89h136.66c7.92,0,14.85-5.96,15.38-13.87,.58-8.67-6.31-15.91-14.86-15.91-5.47,0-10.25,2.96-12.84,7.36-2.71,4.61-7.58,7.53-12.93,7.53h0c-11.45,0-18.65-12.41-12.91-22.32,7.73-13.35,22.17-22.35,38.68-22.35,24.37,0,44.25,19.62,44.66,43.9,.42,24.98-20.69,45.43-45.67,45.43Z"/><path class="e" d="M963.54,111.88h-37.19c-8.22,0-14.89-6.67-14.89-14.89h0c0-8.22,6.67-14.89,14.89-14.89h37.55c14.07,0,26.2-10.79,26.89-24.84,.74-15.02-11.27-27.48-26.13-27.48-11.06,0-20.54,6.9-24.36,16.62-2.25,5.73-7.72,9.54-13.88,9.54h0c-10.52,0-17.69-10.61-13.84-20.4C920.73,14.76,941,0,964.65,0c30.52,0,55.41,24.57,55.93,54.97,.53,31.29-25.75,56.91-57.04,56.91Z"/><rect class="e" x="911.46" y="198.75" width="79.06" height="29.78" rx="14.89" ry="14.89"/></g></g></g></g></svg>