<?xml version="1.0" standalone="no"?>
<!DOCTYPE svg PUBLIC "-//W3C//DTD SVG 20010904//EN"
 "http://www.w3.org/TR/2001/REC-SVG-20010904/DTD/svg10.dtd">
<svg version="1.0" xmlns="http://www.w3.org/2000/svg"
 width="1920.000000pt" height="1920.000000pt" viewBox="0 0 1920.000000 1920.000000"
 preserveAspectRatio="xMidYMid meet">
<metadata>
Created by potrace 1.14, written by Peter Selinger 2001-2017
</metadata>
<g transform="translate(0.000000,1920.000000) scale(0.100000,-0.100000)"
fill="#000000" stroke="none">
<path d="M11085 16929 c-22 -4 -88 -8 -147 -8 -122 -1 -217 -13 -333 -43 -44
-12 -116 -24 -160 -28 -51 -4 -118 -20 -186 -43 -58 -21 -117 -37 -132 -37
-33 0 -46 -20 -22 -34 10 -6 33 -26 49 -43 28 -30 38 -33 106 -38 120 -9 144
-13 204 -40 31 -14 86 -29 122 -34 46 -7 73 -17 96 -36 30 -25 38 -27 90 -21
31 3 81 1 110 -4 29 -6 102 -11 163 -12 109 -1 143 -9 158 -34 5 -9 27 -14 58
-14 27 0 63 -7 79 -15 16 -8 53 -20 82 -26 29 -7 64 -20 77 -30 13 -11 37 -19
54 -19 16 0 45 -10 64 -21 29 -18 38 -20 56 -10 18 9 31 9 66 -4 24 -8 68 -15
97 -15 45 0 59 -5 86 -29 28 -25 36 -27 51 -17 21 16 142 11 253 -11 84 -16
187 -14 205 4 14 14 -68 131 -142 203 -75 73 -165 125 -269 156 -234 69 -470
153 -600 214 -204 96 -248 107 -335 89z"/>
<path d="M11080 15922 c-32 -44 -71 -58 -119 -43 -21 6 -58 11 -81 11 -39 0
-48 -5 -89 -47 l-45 -48 29 -5 c17 -3 30 -10 30 -17 0 -18 -107 -85 -146 -90
-40 -6 -69 15 -69 48 0 15 17 27 65 49 98 44 87 54 -52 47 -90 -4 -150 -14
-252 -41 -74 -20 -136 -36 -138 -36 -2 0 -3 -15 -3 -33 0 -18 -6 -42 -14 -53
-20 -25 -43 -11 -75 45 l-24 43 -76 -7 c-42 -4 -83 -13 -91 -19 -29 -25 -53
-26 -137 -6 -46 11 -89 20 -94 20 -15 0 -10 -30 6 -36 18 -7 20 -54 2 -54 -7
0 -33 15 -57 33 -44 32 -45 32 -195 38 -100 4 -168 12 -205 24 -37 11 -94 18
-170 20 -68 1 -146 9 -191 20 -45 11 -87 15 -104 11 -15 -4 -53 -32 -85 -62
-31 -29 -64 -54 -73 -54 -9 0 -22 -8 -29 -18 -7 -10 -49 -38 -93 -62 -44 -24
-110 -72 -147 -107 -37 -35 -73 -63 -81 -63 -7 0 -48 -22 -91 -49 -62 -39 -92
-52 -149 -61 -40 -7 -99 -23 -132 -37 -33 -14 -94 -38 -135 -55 -41 -17 -90
-43 -108 -59 -47 -41 -114 -41 -167 1 -44 35 -52 36 -126 14 -39 -12 -75 -15
-131 -11 -84 7 -94 2 -123 -53 -8 -15 -21 -30 -30 -33 -26 -11 -17 -45 17 -63
24 -13 36 -14 50 -5 27 17 71 13 129 -9 35 -14 62 -19 85 -14 30 6 39 14 65
65 16 33 34 59 40 59 15 0 3 -47 -22 -81 -10 -15 -24 -44 -31 -65 -10 -30 -19
-40 -38 -42 -17 -2 -32 -15 -45 -40 -19 -35 -23 -37 -80 -42 -42 -3 -69 -12
-89 -27 -36 -29 -44 -29 -76 2 l-26 25 -25 -35 c-13 -19 -58 -84 -100 -144
-88 -126 -88 -123 -93 -376 -5 -189 -2 -201 68 -298 54 -74 173 -187 220 -207
22 -10 57 -34 76 -55 45 -47 74 -62 138 -71 38 -5 57 -13 77 -35 28 -32 41
-35 68 -15 13 10 27 12 50 5 19 -5 55 -5 93 1 34 6 82 7 106 4 29 -4 53 -2 69
7 27 15 104 28 194 34 33 2 75 8 94 14 30 9 37 8 64 -15 29 -24 36 -26 105
-20 42 3 85 12 99 21 38 25 63 75 63 125 0 35 6 52 25 73 14 15 33 27 42 27 9
0 47 -33 84 -73 64 -70 75 -77 186 -125 149 -63 239 -94 267 -90 13 2 28 18
42 46 32 67 55 85 117 90 38 3 75 -2 118 -16 35 -11 95 -27 133 -36 50 -11 84
-27 123 -57 30 -22 78 -49 107 -59 30 -10 77 -34 106 -54 66 -45 102 -47 127
-6 9 17 26 30 36 30 17 0 19 -5 13 -40 -5 -34 -2 -44 23 -72 26 -29 32 -32 50
-21 16 10 26 10 46 1 23 -10 26 -16 20 -44 -5 -28 -1 -38 28 -66 19 -19 39
-32 45 -30 7 2 42 -10 79 -26 38 -16 93 -37 123 -47 86 -28 212 -89 248 -120
26 -22 36 -25 42 -15 6 10 9 9 11 -5 3 -12 16 -18 47 -20 24 -2 63 -16 90 -32
26 -15 63 -35 83 -44 20 -9 53 -37 75 -63 29 -36 50 -49 90 -61 38 -11 73 -33
123 -76 38 -33 72 -66 74 -73 3 -7 35 -53 72 -101 37 -48 79 -111 94 -139 20
-39 33 -52 56 -57 17 -4 47 -14 68 -23 25 -11 59 -16 95 -14 54 3 58 5 77 40
24 46 44 48 74 8 l22 -31 29 31 c28 30 72 40 85 20 3 -5 1 -10 -5 -10 -7 0 -8
-6 0 -19 5 -11 10 -53 10 -95 0 -64 3 -75 19 -81 22 -7 95 -92 105 -122 6 -18
-2 -32 -44 -73 -59 -60 -78 -60 -105 0 -10 21 -28 49 -42 62 -18 17 -22 28
-17 50 7 35 -18 78 -45 78 -28 0 -71 -56 -71 -91 0 -39 14 -64 61 -109 44 -42
48 -66 24 -147 -16 -55 -61 -103 -97 -103 -11 0 -33 11 -49 25 -30 25 -86 45
-126 45 -12 0 -31 -12 -42 -26 -17 -22 -21 -41 -21 -104 0 -67 2 -78 19 -83
11 -3 25 -23 35 -52 26 -79 36 -85 138 -85 96 0 104 -6 73 -54 -15 -23 -14
-25 18 -45 36 -22 67 -73 67 -109 0 -11 -12 -34 -26 -51 -21 -26 -33 -31 -69
-31 l-44 0 6 35 c4 27 2 35 -9 35 -19 0 -45 -29 -50 -55 -3 -19 -11 -20 -110
-19 l-106 1 -7 -35 c-4 -20 -10 -79 -15 -131 -8 -97 -26 -157 -54 -181 -26
-21 -19 -40 13 -40 19 0 35 8 44 21 8 11 30 31 48 45 l33 24 28 -27 c15 -15
28 -30 28 -35 0 -4 -21 -8 -47 -8 -30 0 -60 -8 -81 -20 -22 -13 -50 -20 -86
-20 -32 0 -58 -5 -64 -13 -16 -18 10 -89 36 -98 21 -8 122 -157 192 -283 56
-102 100 -145 185 -182 39 -16 106 -47 150 -69 92 -46 94 -50 74 -163 -14 -87
-30 -105 -101 -122 -27 -7 -62 -23 -78 -36 -28 -25 -55 -31 -64 -15 -10 16
-155 34 -227 28 -77 -6 -207 -62 -269 -114 -68 -57 -87 -151 -47 -231 36 -74
68 -102 116 -102 31 0 54 -9 93 -35 28 -20 78 -43 110 -52 38 -11 60 -22 64
-35 3 -10 34 -37 69 -59 50 -31 66 -48 76 -76 6 -20 23 -47 36 -59 22 -20 26
-35 32 -110 6 -74 10 -89 30 -105 13 -11 31 -19 41 -19 10 0 30 -16 45 -36 27
-36 29 -36 82 -31 46 5 57 2 81 -17 15 -13 60 -37 101 -54 87 -37 144 -75 172
-114 12 -16 36 -35 54 -42 22 -10 41 -28 55 -56 11 -22 27 -43 35 -47 8 -3 15
-13 15 -22 0 -10 11 -23 24 -29 16 -7 26 -22 29 -44 4 -18 10 -56 14 -83 12
-67 18 -75 59 -75 30 0 39 -6 67 -47 17 -27 55 -71 84 -100 35 -34 55 -63 60
-85 3 -18 21 -55 40 -82 18 -26 33 -61 33 -76 0 -44 9 -58 45 -70 27 -9 39
-22 57 -62 19 -43 31 -54 79 -79 32 -16 60 -33 64 -39 3 -5 37 -10 75 -10 38
0 81 -5 95 -10 20 -8 30 -7 41 5 22 22 47 18 73 -9 13 -14 45 -30 71 -36 27
-6 55 -19 63 -28 8 -9 20 -48 27 -87 8 -42 21 -76 31 -85 10 -8 19 -31 21 -50
3 -30 7 -35 34 -41 18 -3 47 -15 65 -26 30 -18 49 -20 172 -18 l138 3 45 -44
c25 -24 53 -44 64 -44 10 0 31 -11 45 -24 28 -26 147 -75 248 -103 50 -14 61
-22 77 -53 10 -20 26 -42 34 -49 9 -8 16 -26 16 -42 0 -22 -10 -35 -44 -59
-25 -16 -62 -36 -83 -43 -27 -9 -39 -19 -43 -37 -3 -14 -17 -44 -33 -67 -21
-34 -33 -43 -55 -43 -26 0 -28 -2 -24 -36 3 -23 12 -40 28 -51 17 -11 24 -25
24 -47 0 -17 11 -52 25 -78 38 -71 30 -180 -13 -183 -36 -3 -50 -22 -27 -39
18 -13 18 -14 -4 -42 -13 -16 -18 -30 -12 -32 6 -2 11 -21 11 -43 0 -30 -5
-42 -25 -55 -14 -9 -25 -22 -25 -29 0 -19 -24 -25 -91 -25 -53 0 -63 3 -97 34
-37 34 -184 106 -215 106 -9 0 -26 -15 -38 -32 -44 -66 -73 -72 -181 -38 -72
23 -139 25 -273 9 -80 -9 -97 -9 -116 4 -16 12 -28 13 -47 6 -14 -5 -32 -7
-40 -4 -9 3 -38 -2 -64 -12 -44 -15 -52 -16 -72 -3 -12 8 -37 24 -54 35 -27
17 -32 26 -32 58 0 38 -8 45 -27 26 -7 -7 -28 -4 -69 10 -72 26 -80 26 -129 1
-24 -12 -59 -20 -91 -20 -103 0 -171 -41 -244 -146 -28 -41 -62 -81 -74 -90
-18 -11 -25 -28 -30 -70 -3 -31 -20 -81 -36 -112 -16 -31 -48 -115 -71 -187
-40 -129 -41 -131 -102 -188 -34 -32 -73 -60 -87 -63 -39 -8 -54 -19 -60 -44
-7 -30 -30 -38 -30 -11 0 21 0 21 -42 -2 -36 -19 -58 -22 -143 -22 -83 1 -108
5 -150 24 -47 22 -54 23 -111 11 -60 -11 -63 -11 -101 14 -81 54 -134 64 -293
59 l-145 -5 -62 -64 c-61 -64 -62 -64 -118 -64 -74 0 -95 12 -95 54 0 23 -7
38 -22 48 -24 16 -17 38 12 38 37 0 30 19 -12 30 -124 32 -159 44 -169 56 -7
8 -31 14 -59 14 -26 0 -77 9 -112 20 -43 13 -99 20 -173 22 -154 4 -396 -4
-420 -13 -11 -4 -42 -11 -69 -14 -37 -5 -56 -14 -80 -40 -41 -43 -66 -55 -117
-55 -23 0 -57 -5 -74 -11 -48 -18 -90 -1 -90 37 0 23 -6 30 -30 39 -16 5 -33
14 -36 18 -4 5 -16 6 -27 3 -20 -7 -49 23 -65 67 -4 9 -15 17 -25 17 -10 0
-26 15 -37 33 -24 41 -33 47 -75 47 -20 0 -46 7 -59 16 -21 15 -148 36 -217
36 -17 0 -58 -14 -92 -31 -34 -17 -75 -31 -92 -31 -16 0 -61 -5 -99 -12 -61
-10 -80 -10 -148 7 -43 10 -105 20 -138 22 -105 5 -120 9 -170 46 -58 41 -184
92 -267 106 -32 6 -71 20 -86 31 -21 16 -58 24 -148 35 -65 8 -145 23 -177 35
-40 14 -69 18 -96 14 -27 -4 -77 3 -158 21 -102 24 -124 26 -161 16 -55 -14
-102 -14 -182 4 -88 19 -147 19 -158 -1 -8 -14 -10 -14 -21 0 -15 18 -29 20
-51 6 -12 -7 -12 -12 4 -29 11 -12 25 -21 33 -21 7 0 13 -4 13 -10 0 -18 -45
-21 -81 -6 -52 21 -106 11 -152 -30 -32 -30 -44 -34 -91 -34 -49 0 -92 -9
-141 -30 -11 -5 -54 -11 -95 -14 -41 -4 -99 -9 -128 -12 -49 -6 -54 -4 -82 26
-26 28 -30 30 -30 12 0 -12 4 -32 10 -46 8 -21 6 -27 -10 -36 -31 -16 -41 -12
-34 14 3 14 3 29 0 35 -7 11 -127 -26 -137 -42 -4 -5 -15 -7 -25 -5 -16 3 -20
17 -27 97 l-7 93 35 40 c20 22 34 45 31 51 -3 7 -9 20 -12 30 -4 9 -14 17 -23
18 -102 4 -242 16 -247 22 -3 3 -4 17 0 31 6 23 12 25 76 32 39 4 73 11 77 17
3 6 -6 20 -21 32 l-26 21 57 -1 c84 -2 83 -2 83 -35 l0 -30 66 0 c61 0 65 1
59 21 -6 18 -3 20 27 15 18 -3 60 -8 93 -11 33 -3 82 -12 109 -20 75 -23 156
-20 197 8 37 25 137 162 138 189 2 34 -31 39 -226 29 -195 -9 -241 -19 -341
-70 -48 -25 -102 -26 -187 -6 -33 8 -89 15 -125 15 -78 0 -110 -17 -110 -60 0
-16 -4 -31 -10 -35 -5 -3 -7 -12 -3 -20 3 -9 -1 -15 -9 -15 -8 0 -27 -14 -43
-30 -16 -17 -37 -30 -48 -30 -10 0 -54 -9 -96 -20 -43 -11 -124 -26 -180 -34
-67 -9 -109 -20 -122 -32 -18 -16 -19 -16 -19 7 0 14 -7 34 -15 46 -24 34
-110 84 -188 108 -39 12 -91 32 -114 43 -61 32 -110 36 -219 19 -55 -9 -130
-18 -167 -20 l-69 -5 -70 59 c-39 32 -75 59 -80 59 -6 0 0 9 13 20 19 15 20
19 8 20 -9 0 -22 7 -29 15 -19 23 -33 18 -26 -11 6 -23 4 -25 -16 -19 -13 4
-58 27 -101 51 -43 25 -98 48 -122 53 -24 5 -131 4 -237 -1 -218 -10 -246 -6
-373 52 -44 20 -97 43 -118 49 -21 7 -53 25 -70 40 -18 15 -53 39 -79 54 -55
32 -78 61 -78 98 0 34 -41 69 -81 69 -21 0 -32 7 -43 29 -16 31 -57 47 -82 33
-11 -6 -33 0 -71 21 -54 29 -223 64 -245 51 -6 -4 -23 4 -40 16 -25 19 -37 21
-81 15 -121 -17 -242 -45 -252 -59 -10 -12 -13 -12 -24 5 -14 24 -70 23 -81
-1 -20 -44 -38 -71 -68 -105 -33 -37 -34 -37 -73 -26 -28 9 -41 19 -45 37 -8
33 -32 44 -74 35 -30 -6 -35 -11 -35 -35 1 -26 -1 -27 -35 -21 -105 19 -131
18 -147 -5 -10 -15 -23 -20 -43 -18 -15 1 -35 -3 -43 -11 -9 -7 -21 -10 -27
-6 -6 4 -19 0 -28 -7 -40 -34 -117 -68 -153 -68 -30 0 -42 6 -55 24 -19 31
-44 23 -44 -13 0 -31 -43 -80 -55 -62 -12 21 -34 11 -83 -36 -27 -27 -59 -55
-71 -63 -13 -9 -24 -30 -27 -51 -5 -31 -1 -41 35 -83 46 -53 51 -81 27 -160
-18 -59 -56 -114 -96 -141 -20 -14 -30 -28 -30 -46 0 -14 -4 -29 -9 -35 -5 -5
-16 -44 -25 -87 -18 -88 -33 -121 -87 -190 -22 -27 -39 -52 -39 -57 0 -4 11
-15 25 -24 38 -25 33 -69 -15 -149 -22 -36 -40 -70 -40 -75 0 -5 -7 -15 -15
-22 -9 -8 -15 -30 -15 -57 0 -30 -5 -45 -15 -50 -18 -6 -45 -54 -45 -79 0 -29
69 -122 113 -153 24 -16 49 -36 56 -44 8 -11 14 -70 16 -188 4 -158 6 -174 26
-195 20 -21 116 -56 238 -86 37 -9 60 -21 74 -40 19 -25 19 -28 4 -52 -32 -48
-18 -66 49 -66 30 0 44 -10 97 -64 l62 -63 75 -6 c41 -3 107 -17 147 -31 132
-47 184 -44 285 15 29 17 75 39 102 50 28 10 71 32 96 49 42 28 48 29 120 24
97 -7 135 -19 154 -49 28 -43 71 -58 142 -50 72 7 106 -5 149 -57 15 -18 36
-36 46 -40 11 -4 19 -17 19 -31 0 -38 34 -60 103 -68 34 -4 76 -15 92 -23 17
-9 37 -16 46 -16 9 0 24 -9 34 -20 12 -13 31 -20 54 -20 24 0 43 -8 63 -27 18
-17 44 -29 70 -32 36 -5 47 -12 71 -49 20 -30 47 -52 90 -74 87 -43 141 -92
147 -131 4 -28 10 -33 48 -41 35 -7 49 -17 68 -47 13 -20 34 -41 46 -45 13 -4
37 -17 54 -30 17 -13 35 -24 41 -24 25 0 61 -42 72 -84 14 -57 41 -76 108 -76
52 0 53 0 53 -30 0 -37 52 -133 87 -160 15 -12 41 -20 63 -20 21 0 42 -6 48
-12 10 -13 37 -107 53 -186 13 -63 24 -78 82 -109 40 -22 55 -36 63 -63 8 -23
8 -37 2 -41 -6 -4 -4 -16 6 -31 9 -13 24 -49 35 -79 10 -31 31 -78 45 -105 14
-27 26 -61 26 -75 0 -24 9 -31 66 -58 89 -42 130 -47 193 -26 41 13 77 16 188
12 76 -3 153 -8 171 -12 36 -8 136 18 149 38 4 7 9 45 10 85 l3 74 -60 56
c-33 30 -76 81 -96 113 -36 60 -76 100 -137 137 -53 33 -77 78 -76 143 0 44 8
68 42 129 28 48 55 82 76 95 18 11 49 34 69 51 62 51 202 145 246 164 22 10
65 21 94 25 42 6 61 14 87 41 19 19 41 34 48 34 15 0 150 87 155 100 10 26 33
42 77 53 39 9 50 16 51 32 0 11 4 28 8 38 5 10 6 21 3 24 -4 3 7 23 24 44 32
41 70 55 119 44 33 -7 38 -22 14 -39 -12 -9 -13 -17 -5 -39 14 -35 27 -34 46
3 10 19 34 39 62 53 35 17 48 30 58 59 7 21 21 50 31 65 l18 28 10 -49 c8 -47
7 -51 -17 -70 -17 -14 -27 -33 -29 -56 -2 -29 -8 -36 -28 -38 -37 -6 -47 -18
-55 -69 -8 -58 3 -70 40 -41 15 12 44 24 63 27 58 10 90 65 98 168 7 81 7 81
30 71 18 -8 29 -7 49 6 14 9 29 15 34 12 4 -3 17 1 27 9 23 17 34 18 70 5 25
-10 26 -11 9 -24 -11 -8 -16 -20 -12 -30 5 -12 -6 -25 -39 -49 -27 -19 -47
-42 -50 -57 -3 -14 -12 -40 -20 -59 -20 -45 -10 -51 82 -51 58 0 77 4 105 23
32 22 34 27 32 73 -2 45 -1 47 12 30 8 -11 15 -36 15 -57 0 -40 11 -54 52 -64
21 -6 30 -2 43 19 10 14 25 26 35 26 10 0 20 7 24 15 9 24 -9 58 -59 109 -60
62 -59 90 4 123 27 14 61 23 89 23 57 0 87 -31 116 -120 l21 -65 99 -2 c71 -1
108 3 128 13 40 20 35 34 -12 34 -25 0 -40 5 -40 13 1 18 109 84 153 92 33 6
38 5 46 -16 l10 -24 0 27 c1 29 9 33 84 44 32 4 47 3 47 -5 0 -6 5 -11 11 -11
6 0 8 7 5 15 -8 21 42 45 53 27 6 -10 15 -10 35 -2 15 5 39 10 53 10 23 0 25
-2 19 -35 l-7 -35 38 0 c21 0 52 -9 70 -19 27 -17 33 -18 43 -5 7 8 25 14 41
14 24 0 32 7 49 44 11 25 20 58 20 73 0 42 16 61 24 29 6 -24 10 -26 42 -20
32 6 39 3 78 -39 50 -52 111 -71 185 -57 31 5 54 4 77 -6 18 -8 55 -14 81 -14
53 0 96 -22 91 -47 -2 -10 -20 -15 -62 -17 -57 -3 -62 -1 -102 36 -37 35 -47
39 -74 33 -17 -4 -54 -27 -81 -51 -27 -24 -56 -44 -64 -44 -22 0 -28 -20 -14
-46 11 -21 10 -28 -9 -54 -27 -35 -28 -58 -4 -76 30 -23 60 -17 77 16 15 30
38 39 50 20 12 -19 104 -11 153 14 26 13 72 31 102 40 67 19 234 26 250 10 7
-7 17 -36 24 -65 l11 -54 98 3 c81 3 97 1 97 -11 0 -12 32 -15 218 -16 l217
-1 103 -50 c57 -27 122 -53 145 -56 23 -3 85 -14 137 -24 212 -41 267 -50 318
-50 30 0 83 -8 118 -17 62 -17 68 -17 152 1 145 32 154 31 177 -5 27 -44 81
-69 169 -80 41 -5 93 -16 117 -24 23 -8 58 -15 78 -15 71 0 234 -40 300 -74
48 -24 84 -35 131 -38 36 -3 80 -13 97 -22 46 -23 119 -21 140 4 25 29 84 26
144 -7 45 -26 50 -27 81 -13 20 8 59 13 97 12 74 -2 107 13 122 58 13 35 58
46 99 25 16 -8 54 -15 84 -15 l56 0 -17 35 c-9 19 -24 37 -34 40 -32 10 -39
28 -27 68 16 51 55 67 100 39 38 -23 120 -42 182 -42 36 0 47 5 60 25 19 29
33 31 57 9 17 -15 21 -15 60 6 28 14 67 23 113 26 67 4 107 12 183 35 23 7 46
6 85 -5 29 -8 73 -18 98 -21 25 -4 74 -18 109 -32 53 -21 67 -23 86 -13 24 13
65 0 65 -20 0 -6 9 -10 19 -10 11 0 33 -8 49 -17 29 -17 33 -17 101 5 44 15
75 31 82 43 17 32 -7 87 -47 111 -38 22 -39 25 -24 64 9 22 7 38 -11 81 -18
44 -19 56 -8 69 20 25 65 44 103 44 31 0 39 -6 61 -40 14 -22 38 -46 54 -55
61 -31 171 -12 211 37 l18 23 31 -22 c36 -27 58 -29 83 -6 16 14 24 15 74 3
53 -13 61 -12 120 9 51 18 70 21 93 13 22 -8 49 -4 122 16 87 23 112 25 319
27 174 1 231 -2 253 -12 15 -8 37 -11 48 -8 14 5 28 0 42 -13 48 -43 96 -53
132 -28 13 9 68 16 161 21 124 6 142 5 154 -10 9 -10 22 -14 36 -11 13 4 26 2
29 -4 3 -6 25 -10 48 -10 162 -2 208 3 366 40 114 27 169 35 178 29 7 -7 34
-8 67 -4 39 5 56 4 56 -4 0 -18 45 -13 117 15 42 15 84 24 110 23 23 -2 48 3
57 11 14 11 23 11 56 0 26 -9 62 -11 107 -7 92 9 126 -8 174 -87 19 -33 42
-63 50 -67 8 -4 42 -21 76 -38 l63 -31 27 30 c33 38 56 38 83 0 30 -43 66 -58
199 -86 125 -27 254 -65 301 -89 32 -17 50 -43 50 -73 0 -14 9 -21 30 -25 20
-4 38 -20 56 -47 18 -27 37 -43 56 -47 18 -4 34 -16 44 -34 12 -23 21 -29 49
-29 37 0 69 -32 138 -143 20 -31 42 -57 49 -57 22 0 137 -91 144 -113 4 -12
17 -29 29 -39 32 -25 60 -87 46 -101 -23 -23 -12 -56 27 -81 20 -13 48 -36 62
-51 14 -15 39 -33 56 -40 33 -14 104 -72 198 -163 54 -52 60 -55 67 -37 4 11
30 74 58 140 61 148 71 185 71 258 0 45 -7 71 -31 119 -24 47 -33 82 -39 149
-10 101 -28 139 -69 139 -36 0 -66 23 -58 43 3 9 -1 40 -9 69 -12 39 -28 64
-61 95 -53 50 -53 62 6 140 23 32 44 73 51 105 15 64 7 47 264 533 113 214
205 393 203 398 -1 4 -147 72 -325 150 -288 127 -329 148 -388 199 -36 31 -78
59 -92 63 -38 9 -48 20 -88 91 -29 51 -51 74 -122 127 -131 96 -175 125 -244
156 -104 48 -117 64 -119 145 -3 83 10 99 99 116 31 6 81 18 110 26 45 13 52
18 52 40 0 41 -16 61 -79 96 -42 24 -113 89 -254 235 -185 191 -199 207 -246
301 -33 65 -62 109 -85 128 -20 16 -61 50 -90 76 -41 35 -67 49 -109 58 -61
12 -85 31 -65 48 7 5 43 22 80 37 41 16 80 41 100 62 18 20 43 47 56 61 34 35
86 26 157 -27 91 -69 128 -76 203 -36 69 37 93 33 157 -25 68 -62 92 -68 177
-46 65 17 68 17 137 -4 55 -16 75 -18 92 -10 11 6 32 11 47 10 71 -5 81 9 106
142 31 166 50 210 111 267 31 27 63 67 71 88 23 56 40 71 101 88 144 42 197
122 242 363 11 59 29 150 40 202 25 114 26 161 6 283 -8 50 -13 134 -12 184
l3 92 -29 10 c-16 6 -54 38 -85 72 -31 33 -77 72 -103 84 -54 28 -103 80 -117
127 -6 18 -16 71 -22 118 -6 47 -17 96 -23 110 -11 23 -18 25 -82 25 -63 0
-75 3 -116 32 -43 29 -169 73 -211 73 -14 0 -18 -9 -18 -42 0 -65 -11 -74 -47
-44 -17 14 -36 26 -41 26 -6 0 -26 -19 -44 -41 -18 -23 -47 -58 -64 -77 l-31
-36 -15 30 c-8 16 -18 44 -21 62 -6 27 -2 38 24 65 17 18 41 55 54 82 31 70
48 82 69 50 23 -35 38 -22 71 66 41 106 80 121 153 58 48 -42 84 -39 140 13
l45 41 17 -33 17 -32 19 53 c17 47 23 54 46 54 23 -1 26 4 31 43 6 53 39 92
78 92 22 0 26 4 22 20 -3 13 2 30 14 43 11 12 27 34 36 50 22 34 49 34 81 0
l25 -27 27 24 c15 14 56 63 91 110 35 47 75 91 89 98 28 15 31 27 8 36 -28 11
-11 41 26 46 31 5 35 8 33 33 -1 15 -11 40 -23 56 l-20 29 67 6 c319 29 460
133 438 323 -5 47 -1 80 20 163 23 91 25 110 14 142 -16 49 -8 65 40 78 l41
11 -24 48 c-34 66 -70 107 -122 137 -40 24 -59 27 -192 33 -205 10 -223 21
-320 191 -42 74 -82 119 -89 102 -3 -7 -15 -25 -27 -39 l-23 -26 -19 38 c-19
40 -30 48 -75 64 -21 8 -33 26 -58 88 -52 128 -62 145 -138 219 -40 39 -73 74
-73 76 0 3 23 8 51 11 66 8 146 45 197 92 23 20 45 34 51 31 5 -3 31 10 57 29
87 62 108 75 149 86 36 10 45 9 89 -14 l48 -26 -7 142 c-8 172 -1 207 66 344
46 95 49 105 40 141 -6 21 -32 66 -57 101 -56 74 -65 126 -40 214 24 84 22
100 -21 128 -33 21 -38 29 -41 69 -2 34 -11 53 -34 77 -22 23 -34 49 -44 100
-17 79 -34 107 -94 147 -104 70 -152 319 -95 493 29 87 34 148 15 184 -7 13
-35 44 -63 68 -27 25 -56 60 -64 79 l-14 33 -28 -28 c-16 -15 -51 -45 -79 -66
-30 -22 -51 -45 -50 -55 2 -25 -13 -102 -21 -102 -3 1 -18 11 -32 23 -34 28
-45 72 -23 85 13 7 16 19 12 53 l-5 44 48 -3 c40 -3 49 -1 59 18 10 18 17 21
50 15 44 -7 43 -8 54 91 l6 50 -87 12 c-49 6 -127 14 -174 17 -47 3 -105 12
-129 20 -49 17 -107 19 -144 5 -20 -7 -26 -17 -26 -38 0 -16 3 -32 7 -35 4 -4
5 -32 4 -62 -2 -39 1 -56 11 -59 7 -2 35 -9 63 -15 67 -16 108 -37 124 -63 11
-18 11 -22 -3 -30 -9 -5 -14 -13 -11 -19 4 -5 0 -9 -8 -9 -9 0 -13 -12 -13
-40 1 -22 -3 -40 -7 -40 -5 0 -7 -8 -6 -17 1 -10 1 -26 0 -36 -1 -26 -36 -17
-37 10 -1 26 -29 65 -87 122 -43 41 -45 42 -52 21 -6 -18 -12 -21 -33 -16 -29
7 -34 8 -72 4 -29 -3 -80 -40 -80 -58 0 -8 -9 -10 -27 -5 -51 12 -78 30 -81
53 -4 25 -6 26 -34 11 -18 -10 -20 -9 -15 6 4 9 7 18 7 21 0 2 14 10 30 19 32
17 41 45 13 45 -9 0 -31 -5 -49 -12 -26 -9 -36 -9 -48 1 -13 11 -23 51 -13 51
9 0 187 -41 200 -46 10 -4 29 7 52 30 37 37 40 39 90 40 45 1 59 39 44 116
l-11 59 -42 5 c-22 3 -82 9 -132 15 -58 6 -115 20 -155 36 -57 24 -72 27 -136
21 -44 -4 -89 -2 -114 4 -62 17 -59 4 3 -15 56 -16 93 -55 72 -74 -5 -4 -76
-25 -159 -46 -82 -20 -155 -41 -161 -46 -6 -5 -26 -8 -44 -7 -43 4 -62 -22
-37 -50 16 -17 16 -20 2 -32 -13 -11 -21 -9 -48 10 -18 13 -45 38 -60 56 l-28
34 -37 -25 c-29 -19 -48 -24 -92 -22 -43 2 -62 -3 -86 -20 -16 -12 -43 -25
-60 -29 -16 -4 -34 -11 -40 -15 -6 -5 -48 -8 -93 -7 l-83 1 -44 56 c-34 43
-44 65 -44 92 0 40 -10 51 -55 66 -16 5 -34 18 -40 29 -5 11 -17 18 -27 16
-22 -4 -34 16 -14 24 22 9 20 24 -3 24 -23 0 -62 44 -102 115 -29 51 -30 52
-110 74 -45 12 -84 20 -87 17 -3 -4 15 -26 40 -50 l46 -44 -19 -31 c-25 -42
-40 -46 -84 -25 -35 16 -39 16 -65 1 -39 -23 -77 -22 -90 3 -9 17 -17 20 -45
14 -30 -5 -39 -2 -65 26 -37 40 -38 64 -3 96 20 18 29 39 34 77 4 29 10 69 14
91 l8 38 -129 -4 c-99 -4 -134 -2 -150 9 -15 9 -35 12 -63 7 -40 -6 -42 -9
-36 -33 3 -14 9 -36 12 -48 6 -27 -18 -31 -57 -8 -37 21 -39 20 -33 -40 l6
-54 -56 3 c-30 1 -67 10 -81 19 -32 22 -39 21 -61 -3 -9 -10 -41 -24 -71 -31
-63 -14 -92 -1 -114 50 -7 17 -16 31 -21 31 -17 0 -9 -45 16 -92 32 -60 33
-92 4 -83 -17 6 -20 3 -17 -17 2 -16 9 -22 21 -20 22 4 47 -15 47 -34 0 -8 -9
-14 -20 -14 -16 0 -20 -7 -20 -31 0 -24 13 -47 55 -95 50 -57 54 -64 39 -78
-23 -24 -101 -20 -154 7 -62 31 -99 88 -110 168 -5 35 -18 88 -29 117 -14 34
-21 75 -21 120 0 66 -1 68 -47 118 -27 28 -76 69 -109 92 -78 52 -94 88 -63
138 l21 34 -22 0 c-33 0 -60 -18 -60 -41 0 -11 -12 -31 -26 -46 -23 -23 -32
-25 -80 -21 -50 4 -60 9 -104 53 -45 44 -50 54 -50 92 0 24 -4 43 -9 43 -5 0
-16 2 -23 5 -10 4 -18 -7 -27 -34 -19 -66 -65 -78 -138 -35 -34 19 -43 30 -38
44 6 20 -19 40 -51 40 -14 0 -15 -3 -6 -12 17 -17 15 -55 -4 -62 -45 -17 -73
-6 -106 42 l-33 47 -3 -47 c-3 -40 -6 -48 -23 -48 -16 0 -19 7 -19 43 0 34 -6
49 -26 68 -14 13 -33 37 -41 54 -15 28 -16 29 -24 8 -4 -11 -13 -24 -19 -28
-15 -9 -40 13 -40 36 0 16 -3 17 -19 8 -28 -18 -48 -5 -75 49 -19 37 -38 57
-80 82 -47 29 -55 37 -50 57 6 20 -1 26 -61 53 -44 20 -83 47 -111 77 -35 38
-47 44 -66 38 -13 -4 -37 -9 -55 -12 -18 -3 -38 -11 -44 -19 -16 -20 -56 -17
-87 5 -15 10 -44 24 -66 31 -24 8 -44 23 -55 42 -13 24 -21 28 -45 24 -22 -5
-32 -1 -48 19 -25 32 -70 55 -101 53 -14 -1 -43 6 -66 16 -31 14 -44 16 -54 7
-11 -8 -31 -3 -90 24 -70 32 -173 65 -205 65 -8 0 -78 26 -156 58 l-141 57
-150 1 c-82 0 -160 4 -172 8 -17 6 -26 2 -43 -22z m6240 -6091 l0 -1530 -52
23 c-29 13 -65 28 -80 34 -27 11 -41 39 -15 29 52 -19 59 -19 48 1 -20 38
-175 171 -186 160 -2 -2 5 -34 17 -71 12 -36 20 -69 17 -71 -5 -5 -127 27
-174 46 -16 6 -55 28 -85 47 -30 19 -56 36 -58 37 -6 3 28 126 38 140 7 8 22
14 34 14 29 0 52 15 37 24 -19 12 -13 21 53 74 56 46 69 52 111 52 46 0 47 0
40 -29 -10 -46 28 -66 129 -66 124 0 116 19 -17 45 -49 10 -57 15 -51 28 20
49 17 71 -15 89 -17 10 -31 23 -31 30 0 29 -23 16 -135 -78 -83 -69 -125 -97
-137 -93 -13 4 -19 -2 -24 -21 -8 -33 -38 -52 -157 -103 -91 -39 -102 -41
-137 -31 l-38 12 5 81 c4 68 9 87 33 121 24 35 34 41 75 46 25 3 48 1 51 -3 3
-4 17 -8 31 -8 23 0 25 3 19 33 -3 17 -8 62 -12 98 -8 84 -13 93 -46 80 l-26
-10 10 42 c5 23 7 65 4 93 -4 39 -1 59 14 89 11 22 20 48 20 58 0 10 5 15 10
12 6 -3 10 -24 10 -47 0 -37 2 -40 23 -34 12 4 35 9 50 13 17 3 34 17 43 35
15 29 14 31 -36 96 -51 66 -51 67 -28 76 13 6 24 11 26 12 1 0 -2 13 -7 28
-10 25 -9 26 23 26 28 0 42 10 95 70 35 39 59 70 54 70 -4 0 -50 -10 -102 -22
-78 -19 -95 -26 -102 -46 l-9 -24 -18 23 -19 22 -30 -22 c-26 -19 -33 -21 -57
-10 -22 10 -32 10 -60 -4 -34 -16 -34 -16 -25 -59 6 -23 12 -44 15 -47 2 -2
-15 -15 -37 -28 -23 -13 -43 -22 -45 -20 -2 2 0 26 5 53 5 27 13 90 17 139 7
85 8 88 17 50 5 -22 11 -42 13 -44 2 -2 23 5 48 15 69 29 67 57 -7 139 -32 36
-53 65 -45 65 7 0 19 4 27 9 12 8 12 13 -3 35 -16 26 -16 26 14 26 26 0 36 10
85 82 30 45 53 83 51 85 -1 1 -46 -16 -99 -39 -72 -31 -97 -46 -97 -60 0 -22
-13 -23 -30 -3 -12 14 -16 13 -40 -10 -14 -14 -37 -25 -51 -25 -23 0 -89 -34
-89 -45 0 -3 7 -22 15 -42 8 -20 14 -37 13 -38 -2 -1 -25 -18 -53 -39 l-50
-38 -7 44 c-4 24 -9 55 -12 71 -4 18 -1 27 8 27 7 0 19 7 26 15 7 8 20 15 30
15 19 0 46 49 33 60 -4 4 -36 28 -71 53 l-63 45 28 20 c27 19 27 21 10 39 -23
26 -22 30 11 36 24 5 34 18 67 92 21 47 36 87 34 89 -2 2 -43 -21 -91 -52 -70
-44 -88 -60 -88 -79 0 -22 -1 -23 -24 -8 -23 16 -25 15 -42 -14 -15 -25 -25
-31 -52 -31 -39 0 -92 -25 -92 -44 0 -7 13 -31 30 -54 l29 -41 -136 -146 c-75
-80 -138 -144 -140 -141 -2 2 23 79 57 171 33 92 59 170 56 172 -8 8 -47 -77
-41 -88 4 -5 2 -8 -4 -7 -6 2 -35 -40 -64 -92 -43 -77 -57 -95 -75 -94 -19 0
-36 -27 -118 -185 -82 -159 -128 -238 -113 -195 2 6 35 95 73 198 54 145 74
190 91 196 18 7 26 33 59 184 22 97 37 178 34 181 -2 3 -30 -60 -62 -139 -52
-130 -60 -145 -83 -148 -24 -3 -31 -18 -99 -208 -40 -113 -73 -201 -73 -195
-1 5 16 78 36 162 31 127 40 153 55 153 10 0 18 3 19 8 0 4 10 91 22 195 13
103 20 187 17 187 -4 0 -24 -74 -45 -165 -38 -164 -39 -165 -66 -165 -27 0
-28 -2 -65 -157 l-38 -158 -13 145 c-7 80 -15 195 -17 255 -3 61 -10 139 -15
175 -6 35 -9 64 -8 65 1 0 14 11 29 24 l27 24 -19 -52 c-30 -77 -25 -81 26
-23 25 28 50 52 56 52 7 0 9 -20 5 -60 -4 -33 -3 -60 2 -60 14 0 51 96 51 131
0 28 2 30 17 18 15 -13 16 -9 10 44 -3 34 -2 55 4 52 17 -11 9 11 -22 59 -24
38 -26 47 -12 41 41 -17 56 -18 48 -5 -5 8 -3 11 6 8 8 -3 17 -22 20 -44 5
-34 7 -36 14 -17 9 28 25 20 25 -12 0 -42 19 -37 31 7 l11 43 30 -34 c16 -18
32 -30 36 -27 11 11 -18 99 -48 149 -17 28 -27 54 -23 64 5 13 8 12 15 -7 8
-22 9 -22 22 -5 12 17 13 17 21 -6 7 -24 7 -24 14 5 6 29 6 29 30 -23 25 -52
25 -52 41 -30 l17 22 7 -24 c7 -23 8 -23 16 -4 8 19 9 19 9 1 1 -15 4 -16 16
-6 9 7 22 9 32 5 10 -5 21 -7 26 -7 4 1 7 -2 7 -8 0 -20 18 -9 24 15 6 25 7
25 36 10 90 -47 -39 77 -139 133 -36 20 -101 51 -144 68 -88 36 -92 38 -82 54
5 8 15 4 31 -11 20 -19 24 -20 24 -6 0 23 9 21 31 -8 11 -13 26 -22 33 -19 7
3 25 0 40 -5 21 -9 28 -8 32 4 9 23 23 18 30 -10 7 -27 14 -31 31 -14 8 8 20
-1 44 -31 l34 -42 11 27 c11 27 11 27 24 -19 14 -53 24 -58 36 -18 7 25 8 24
14 -18 l6 -45 19 38 19 37 34 -32 35 -33 -7 45 c-13 83 -43 114 -174 177 -64
31 -112 58 -105 60 7 2 21 0 32 -6 30 -16 44 -14 37 7 -4 9 13 -3 38 -28 l46
-44 0 28 0 27 29 -20 c36 -26 45 -26 31 -2 -17 32 -12 33 23 7 41 -31 51 -33
44 -5 -5 19 -4 19 16 6 27 -17 72 -29 80 -20 13 12 -33 60 -82 86 -102 56
-291 72 -480 42 -52 -9 -96 -14 -98 -12 -5 5 73 34 115 42 17 4 32 11 32 17 0
6 7 7 15 4 51 -20 49 -21 42 13 l-7 32 31 -22 c32 -23 50 -19 29 6 -11 14 -10
14 14 6 14 -6 40 -18 56 -26 32 -17 36 -14 20 16 -10 17 -8 18 37 13 46 -5 47
-5 28 11 -37 31 -119 64 -193 77 -63 11 -85 10 -152 -4 -97 -20 -189 -64 -269
-129 -34 -27 -64 -49 -67 -49 -3 0 -4 17 -2 38 3 32 7 37 31 40 15 2 34 13 41
25 13 22 28 170 19 195 -10 27 -134 69 -167 56 -18 -7 -22 -34 -6 -34 18 0 11
-46 -13 -81 -41 -61 -41 -68 3 -110 35 -33 40 -44 40 -82 0 -24 -3 -47 -6 -50
-4 -3 -30 14 -58 39 -70 62 -207 129 -295 145 -114 20 -262 -13 -336 -76 -19
-16 -18 -16 29 -11 l48 6 -16 -25 c-18 -28 -21 -28 69 10 35 15 38 15 26 1
-22 -26 -5 -30 28 -7 l31 22 -7 -32 c-5 -26 -3 -31 8 -27 8 4 22 9 32 13 9 4
17 3 17 -3 0 -6 15 -13 33 -17 41 -8 119 -37 114 -42 -2 -2 -46 3 -98 12 -189
30 -378 14 -480 -42 -89 -48 -117 -113 -34 -79 46 19 45 19 45 1 0 -21 8 -19
47 11 35 26 40 25 23 -7 -14 -24 -5 -24 31 2 l29 20 0 -28 1 -28 39 44 c28 30
40 38 40 26 0 -13 5 -16 20 -11 11 3 30 9 43 12 28 7 -3 -12 -128 -75 -49 -25
-98 -58 -108 -73 -19 -26 -49 -119 -41 -127 2 -3 17 8 32 22 16 15 31 27 34
27 3 0 11 -13 18 -30 16 -38 30 -30 31 18 1 37 1 37 11 10 14 -39 22 -35 40
20 10 29 16 39 17 25 2 -36 17 -35 47 5 15 20 29 39 30 41 2 2 10 -2 19 -9 12
-10 16 -8 26 14 14 29 24 33 33 11 4 -12 11 -13 32 -4 15 5 33 8 41 5 7 -3 21
6 30 20 15 23 18 24 28 10 11 -14 14 -14 30 4 10 11 22 17 27 14 19 -12 0 -26
-77 -57 -44 -18 -110 -49 -146 -69 -100 -56 -229 -180 -139 -133 29 15 30 15
36 -10 6 -24 24 -35 24 -15 0 6 3 9 8 8 4 0 15 2 26 7 12 5 21 3 27 -6 8 -12
11 -12 19 1 9 13 10 13 10 0 1 -9 6 -6 14 9 l14 24 6 -21 c11 -33 21 -27 40
23 19 49 32 57 39 23 4 -23 4 -23 14 2 10 22 12 23 18 7 7 -17 8 -17 21 0 24
33 16 -6 -16 -71 -17 -34 -33 -79 -37 -101 l-6 -40 35 33 35 33 12 -42 c10
-31 15 -39 22 -28 5 8 9 24 9 37 0 12 4 22 9 22 5 0 12 -10 17 -22 6 -19 8
-16 11 20 2 23 8 42 14 42 5 0 9 -5 9 -11 0 -11 16 -9 55 7 16 6 13 -1 -13
-36 -31 -42 -43 -78 -22 -65 6 4 7 -6 4 -27 -4 -18 -7 -35 -6 -38 1 -44 1 -45
17 -24 13 18 14 16 15 -25 0 -44 34 -131 50 -131 4 0 6 27 3 60 -4 36 -2 60 4
60 5 0 29 -22 52 -50 39 -47 41 -52 33 -87 -5 -21 -10 -47 -10 -58 -8 -177
-15 -291 -21 -340 l-6 -60 -29 123 c-28 119 -29 122 -56 122 -26 0 -27 2 -64
158 -21 86 -43 162 -48 167 -6 6 -8 1 -4 -15 3 -14 12 -92 21 -175 20 -189 21
-195 43 -195 14 0 24 -28 55 -157 20 -86 36 -158 34 -159 -1 -2 -27 65 -56
149 -93 265 -90 257 -116 257 -20 0 -29 16 -80 143 -31 78 -61 147 -67 152 -8
7 -9 5 -6 -5 3 -8 23 -95 43 -192 33 -154 41 -177 58 -180 20 -3 21 -5 140
-326 15 -40 22 -70 17 -67 -6 4 -53 92 -105 196 -87 172 -97 189 -118 184 -20
-5 -30 10 -102 141 -43 80 -81 142 -82 137 -2 -5 24 -82 57 -172 34 -90 59
-165 57 -168 -2 -2 -66 62 -141 141 l-136 145 30 45 c17 24 30 48 30 53 0 16
-58 43 -92 43 -27 0 -37 6 -52 31 -17 29 -19 29 -41 15 -25 -16 -39 -8 -30 16
4 10 -24 33 -85 71 -49 31 -92 57 -94 57 -3 0 14 -41 36 -91 36 -77 46 -91 70
-96 33 -6 34 -10 11 -36 -17 -18 -17 -20 10 -39 l27 -20 -63 -45 c-34 -25 -66
-49 -71 -54 -14 -12 14 -59 34 -59 10 0 23 -7 30 -15 7 -9 19 -14 26 -11 10 4
12 -2 8 -22 -3 -15 -8 -49 -12 -75 l-7 -48 -52 38 c-35 26 -51 43 -47 53 25
63 24 70 -9 90 -18 11 -44 20 -58 20 -14 0 -36 11 -49 25 l-24 25 -23 -22 -23
-21 0 25 c0 21 -9 29 -47 46 -98 42 -153 61 -153 54 0 -4 25 -42 56 -84 47
-68 59 -78 85 -78 l29 0 -17 -27 c-10 -14 -13 -28 -8 -30 40 -14 38 -22 -18
-83 -49 -52 -56 -65 -51 -88 4 -15 7 -27 8 -27 1 0 18 -8 39 -18 21 -9 41 -17
46 -17 5 0 12 19 16 43 8 39 9 36 16 -48 5 -49 13 -112 19 -139 6 -27 9 -51 7
-53 -2 -2 -22 7 -43 19 l-39 23 11 45 c11 44 10 45 -19 64 -25 17 -34 18 -61
8 -27 -11 -35 -9 -60 9 l-29 22 -19 -22 -18 -23 -9 24 c-7 20 -24 27 -105 47
-54 13 -99 21 -101 19 -2 -2 23 -34 57 -71 51 -58 64 -67 94 -67 32 0 33 -1
23 -26 -5 -15 -8 -28 -7 -28 2 -1 13 -6 26 -12 23 -9 23 -10 -27 -73 -28 -35
-51 -67 -51 -72 0 -28 25 -57 54 -62 17 -4 41 -9 53 -13 20 -6 22 -2 25 42 3
37 6 44 12 29 4 -11 15 -37 24 -58 9 -23 16 -70 17 -115 0 -43 3 -88 6 -102 4
-14 4 -20 2 -14 -4 13 -42 26 -53 19 -4 -3 -10 -35 -14 -72 -4 -37 -9 -85 -13
-105 -5 -36 -4 -38 20 -38 14 0 28 3 31 8 2 4 25 6 50 4 41 -4 49 -9 75 -46
23 -34 29 -55 34 -122 l5 -81 -38 -12 c-35 -10 -46 -8 -137 31 -119 51 -149
70 -157 103 -5 19 -11 25 -24 21 -12 -4 -54 24 -132 89 -113 93 -140 109 -140
81 0 -7 -13 -19 -29 -26 -38 -15 -44 -31 -26 -74 l15 -35 -58 -11 c-120 -24
-142 -43 -57 -48 71 -5 130 6 157 28 19 16 21 22 11 38 -16 26 -8 32 44 32 38
0 53 -7 108 -52 66 -52 73 -62 55 -73 -17 -11 0 -25 29 -25 16 0 33 -6 39 -12
16 -20 43 -133 32 -136 -5 -2 -35 -20 -67 -40 -32 -21 -71 -43 -87 -50 -34
-15 -169 -47 -241 -57 -27 -3 -74 -20 -102 -36 l-53 -29 0 1515 0 1515 2215 0
2215 0 0 -1529z m-2200 1137 c0 -149 -6 -184 -25 -168 -9 8 -11 44 -8 143 5
143 7 157 23 157 6 0 10 -48 10 -132z m-320 -167 c0 -5 -7 -12 -16 -15 -14 -5
-15 -4 -4 9 14 17 20 19 20 6z m620 -6 c11 -13 10 -14 -4 -9 -9 3 -16 10 -16
15 0 13 6 11 20 -6z m-504 -142 c-2 -39 -13 -53 -42 -53 -17 0 -24 6 -24 18 0
29 12 34 33 15 19 -17 20 -17 14 0 -7 19 1 47 13 47 4 0 7 -12 6 -27z m384 -5
c0 -30 1 -30 19 -14 17 15 19 15 25 1 3 -9 6 -21 6 -26 0 -14 -48 -11 -57 4
-11 17 -12 67 -2 67 5 0 9 -14 9 -32z m-542 -18 c-14 -22 -24 -19 -15 5 4 8
11 15 17 15 6 0 6 -7 -2 -20z m696 4 c10 -25 -1 -29 -14 -5 -6 12 -7 21 -1 21
5 0 12 -7 15 -16z m-575 -73 c-14 -11 -26 -15 -28 -9 -4 12 17 28 38 28 8 0 3
-8 -10 -19z m460 10 c7 -5 12 -13 10 -19 -3 -7 -14 -3 -29 8 -25 20 -10 29 19
11z m28 -63 c-3 -8 -6 -5 -6 6 -1 11 2 17 5 13 3 -3 4 -12 1 -19z m-196 -35
c-8 -15 -10 -15 -11 -2 0 17 10 32 18 25 2 -3 -1 -13 -7 -23z m-151 -79 c0 -8
-4 -12 -10 -9 -5 3 -10 10 -10 16 0 5 5 9 10 9 6 0 10 -7 10 -16z m163 -15
c-17 -29 -18 -29 -21 -8 -2 12 2 26 10 30 25 16 29 9 11 -22z m-1101 -81 c26
-15 37 -29 40 -50 6 -35 -3 -42 -48 -34 -27 6 -37 14 -49 41 -8 19 -22 51 -31
71 l-15 37 33 -22 c18 -12 49 -31 70 -43z m2112 5 c-14 -32 -28 -64 -31 -70
-5 -14 -66 -28 -81 -19 -5 3 -7 18 -4 34 3 22 18 37 70 70 37 23 68 42 69 42
2 0 -9 -26 -23 -57z m-1026 -3 c-7 -10 -14 -17 -17 -15 -4 4 18 35 25 35 2 0
-1 -9 -8 -20z m-38 -15 c0 -11 -12 -15 -45 -15 -33 0 -45 4 -45 15 0 11 12 15
45 15 33 0 45 -4 45 -15z m-112 -61 c-3 -14 -7 -10 -16 16 -12 32 -11 34 4 19
9 -9 14 -25 12 -35z m116 14 c14 -53 10 -58 -49 -58 -30 0 -55 4 -55 9 0 5 3
23 6 40 6 29 9 31 49 31 36 0 44 -4 49 -22z m-932 -22 c16 -22 16 -23 -33 -60
-48 -36 -51 -37 -75 -21 -13 8 -24 18 -24 20 0 7 101 85 108 85 4 0 15 -11 24
-24z m1872 -11 c50 -39 57 -58 26 -75 -16 -9 -28 -4 -69 26 -48 36 -49 38 -34
61 8 12 19 23 23 23 4 0 28 -16 54 -35z m-930 -65 c3 -11 9 -29 12 -40 5 -19
1 -20 -66 -20 l-72 0 7 33 c10 46 11 47 65 47 40 0 50 -4 54 -20z m-451 -142
l55 -138 -27 0 c-28 0 -28 2 -56 128 -15 70 -30 134 -33 142 -3 8 -3 13 0 10
4 -3 31 -67 61 -142z m841 -12 c-27 -125 -27 -126 -55 -126 l-29 0 21 53 c12
28 35 87 52 130 16 42 32 76 34 74 2 -2 -9 -61 -23 -131z m-674 -123 c0 -23
-29 -14 -34 10 -7 32 -26 201 -25 218 1 15 58 -207 59 -228z m530 141 c-17
-143 -20 -154 -35 -154 -8 0 -15 5 -15 11 0 20 53 239 57 235 2 -2 -1 -44 -7
-92z m-1690 47 c47 -22 55 -30 55 -53 0 -16 -3 -28 -7 -28 -5 0 -21 0 -38 0
-25 0 -36 9 -71 61 -47 69 -43 70 61 20z m2861 -20 c-34 -50 -45 -59 -76 -63
-42 -5 -54 5 -47 37 3 19 20 31 76 54 39 17 75 31 79 31 4 0 -10 -26 -32 -59z
m-1896 -390 c286 -306 320 -347 323 -379 2 -25 0 -34 -7 -27 -5 6 -172 190
-370 410 -235 262 -355 403 -348 408 8 4 26 -8 47 -31 19 -21 179 -193 355
-381z m495 402 c0 -10 3 -28 6 -40 6 -22 4 -23 -75 -23 -87 0 -90 2 -75 58 6
20 12 22 75 22 59 0 69 -3 69 -17z m757 -32 c-19 -20 -177 -196 -352 -391
-175 -195 -330 -368 -345 -383 l-26 -28 5 40 c5 36 43 79 365 424 239 257 363
384 373 380 11 -4 6 -14 -20 -42z m-1344 -123 l66 -118 -28 0 c-27 0 -30 5
-69 113 -55 153 -55 155 -44 137 5 -8 39 -68 75 -132z m-735 102 c11 -18 7
-24 -29 -57 -43 -39 -69 -48 -76 -26 -4 11 73 103 86 103 3 0 12 -9 19 -20z
m1822 -96 c-22 -59 -38 -114 -36 -120 3 -7 -20 -38 -50 -71 l-54 -58 23 55
c19 45 29 56 53 61 l29 6 -31 4 -31 4 65 117 c36 65 67 116 69 114 2 -2 -14
-52 -37 -112z m769 70 c45 -51 49 -62 26 -70 -8 -3 -35 12 -64 37 -47 41 -49
44 -34 61 9 10 20 18 24 18 4 0 26 -21 48 -46z m-1269 -21 c0 -10 3 -28 6 -40
6 -22 4 -23 -75 -23 l-81 0 0 40 0 40 75 0 c65 0 75 -2 75 -17z m-328 -198
c31 -88 77 -218 102 -290 l46 -130 -43 46 c-36 40 -53 75 -119 255 -57 152
-74 210 -65 216 9 5 9 14 0 38 -10 28 -10 31 5 28 12 -2 34 -50 74 -163z m615
135 c-9 -23 -9 -33 0 -38 7 -5 -13 -71 -66 -214 -64 -173 -83 -214 -118 -255
l-43 -48 56 160 c144 414 148 425 166 425 14 0 15 -4 5 -30z m-504 -147 c30
-126 37 -176 36 -248 l-1 -90 -49 195 c-27 107 -51 219 -54 248 -4 45 -2 52
13 52 15 0 25 -26 55 -157z m382 112 c-3 -39 -115 -520 -120 -513 -1 2 1 57 5
123 8 156 72 435 100 435 15 0 17 -8 15 -45z m-153 -15 l4 -40 -88 0 -88 0 0
40 0 40 84 0 84 0 4 -40z m-719 -366 c276 -207 506 -381 512 -385 5 -5 0 -9
-13 -9 -13 0 -22 6 -22 15 0 21 -27 30 -45 15 -12 -10 -98 54 -485 356 -258
202 -470 371 -470 376 0 4 5 8 10 8 6 0 236 -169 513 -376z m1817 368 c0 -5
-212 -174 -471 -376 -384 -300 -473 -365 -484 -356 -18 15 -45 6 -45 -15 0 -9
-9 -15 -22 -15 -12 0 -19 2 -17 4 27 27 1017 766 1027 766 6 0 12 -4 12 -8z
m-1540 -159 c41 -82 76 -152 78 -158 2 -5 -17 13 -42 40 -48 52 -104 148 -116
200 -4 17 -11 38 -15 48 -5 11 -3 17 7 17 7 0 46 -65 88 -147z m840 142 c0 -3
-7 -17 -16 -30 -9 -13 -13 -29 -10 -34 11 -17 -61 -144 -115 -201 l-52 -55 84
162 c46 90 90 163 97 163 6 0 12 -2 12 -5z m-390 -80 l0 -45 -90 0 -90 0 0 45
0 45 90 0 90 0 0 -45z m-524 -35 l25 -55 -41 40 c-23 22 -46 48 -52 58 -8 16
-6 18 17 15 20 -2 31 -14 51 -58z m-1237 -37 c60 -14 75 -21 82 -42 11 -29 4
-39 -36 -46 -26 -6 -37 1 -85 49 -30 31 -50 56 -45 56 6 0 43 -7 84 -17z
m3441 10 c0 -17 -96 -103 -115 -103 -37 0 -57 22 -47 50 7 19 22 28 73 41 74
20 89 22 89 12z m-1670 -43 l0 -40 -100 0 -100 0 0 40 0 40 100 0 100 0 0 -40z
m-1605 -14 c18 -13 17 -16 -19 -65 -21 -28 -39 -51 -41 -51 -14 0 -35 14 -35
24 0 16 57 106 68 106 4 0 17 -6 27 -14z m3095 -33 c35 -55 37 -69 10 -76 -15
-4 -28 7 -57 45 -35 48 -36 51 -18 64 28 21 33 18 65 -33z m-1490 -53 l0 -40
-100 0 -100 0 0 40 0 40 100 0 100 0 0 -40z m-1145 -218 c313 -167 320 -170
340 -153 11 11 30 22 43 26 21 6 22 4 22 -44 0 -44 3 -51 20 -51 16 0 20 7 20
35 0 28 4 35 19 35 11 0 23 -4 26 -10 3 -5 11 -10 16 -10 17 0 -2 21 -28 31
-14 5 -23 12 -20 15 3 3 19 -1 35 -10 32 -17 45 -57 30 -97 -5 -12 -7 -28 -4
-35 2 -6 79 -51 171 -100 92 -48 169 -94 172 -101 3 -7 2 -20 -1 -29 -5 -13
-16 -10 -74 21 -37 20 -76 45 -87 55 -11 9 -32 20 -47 24 -19 4 -28 13 -28 26
0 16 -7 20 -32 20 -18 1 -44 7 -58 15 -23 13 -27 12 -43 -8 -18 -22 -18 -21
-3 10 9 18 16 44 16 58 0 22 -3 24 -19 15 -25 -13 -82 -13 -115 0 -31 11 -34
-2 -11 -56 8 -19 10 -32 5 -29 -9 5 -21 44 -34 105 -5 20 -35 41 -152 105 -84
46 -156 92 -167 108 -14 18 -30 27 -50 27 -34 0 -320 157 -311 172 8 13 -12
23 349 -170z m2459 169 c9 -14 -279 -171 -312 -171 -19 0 -35 -9 -49 -27 -11
-16 -86 -64 -172 -112 -136 -75 -154 -82 -167 -69 -14 14 23 36 333 201 191
102 351 186 355 187 4 0 9 -4 12 -9z m-1314 -41 l0 -30 -100 0 -100 0 0 30 0
30 100 0 100 0 0 -30z m0 -90 l0 -40 -95 0 -95 0 0 40 0 40 95 0 95 0 0 -40z
m-1130 -101 c17 -28 30 -52 28 -54 -6 -5 -47 -25 -51 -25 -9 0 -57 88 -57 103
0 15 14 25 37 26 6 1 25 -22 43 -50z m1126 35 c-3 -9 -6 -29 -6 -45 l0 -29
-85 0 c-65 0 -85 3 -85 14 0 7 -3 28 -6 45 l-6 31 97 0 c84 0 96 -2 91 -16z
m1023 2 c10 -11 8 -23 -8 -53 -35 -66 -35 -65 -65 -52 -29 14 -29 19 9 78 27
43 45 50 64 27z m-1033 -117 c-3 -17 -6 -38 -6 -45 0 -11 -18 -14 -74 -14 -79
0 -85 5 -86 68 0 21 3 22 86 22 l87 0 -7 -31z m-316 -109 c4 0 10 -8 12 -18 4
-12 -7 -29 -34 -51 -22 -18 -40 -32 -41 -30 -1 2 -12 23 -24 46 -27 50 -28 61
-7 84 15 16 17 16 51 -7 20 -13 39 -24 43 -24z m585 9 c5 -15 -38 -109 -50
-109 -9 0 -75 68 -75 78 0 6 18 21 39 32 22 11 43 24 46 30 9 14 32 -4 40 -31z
m325 24 c23 2 53 -30 65 -69 7 -26 -17 -54 -47 -54 -12 0 -29 -7 -38 -15 -16
-15 -80 -38 -80 -30 0 2 5 16 12 30 12 28 27 32 47 13 11 -10 14 -10 18 0 3 6
18 12 34 12 17 0 28 4 25 9 -3 5 -21 5 -41 1 -19 -4 -35 -4 -35 0 0 5 -9 6
-19 3 -17 -4 -19 2 -22 47 -4 56 10 76 43 59 9 -5 26 -8 38 -6z m-848 -43 c3
-33 0 -40 -14 -40 -22 0 -37 68 -17 80 20 13 27 4 31 -40z m248 41 c0 -5 -3
-23 -6 -40 l-7 -32 -66 3 -66 3 -3 38 -3 37 75 0 c42 0 76 -4 76 -9z m144 -49
c-5 -22 -12 -32 -25 -32 -15 0 -18 6 -13 33 10 59 13 62 30 46 10 -10 12 -25
8 -47z m1330 -77 c11 -85 11 -95 -3 -93 -22 4 -49 177 -30 189 8 4 15 6 17 4
2 -2 9 -47 16 -100z m-3044 88 c0 -8 -20 -131 -26 -160 -2 -13 -11 -23 -20
-23 -10 0 -14 6 -10 18 2 9 8 49 12 87 3 39 8 73 11 78 5 9 33 9 33 0z m1390
-8 c11 -13 7 -15 -24 -15 -34 0 -44 8 -29 23 11 12 40 8 53 -8z m264 9 c24 -9
8 -24 -26 -24 -26 0 -29 2 -18 15 14 17 21 18 44 9z m416 -27 c0 -29 -63 -67
-109 -67 -24 0 -31 -4 -31 -20 0 -13 -9 -22 -27 -26 -16 -4 -37 -14 -48 -24
-22 -19 -148 -90 -159 -90 -4 0 -6 12 -4 27 3 25 23 38 183 125 99 53 183 97
188 97 4 1 7 -9 7 -22z m-1943 -12 c2 0 0 -32 -4 -69 l-6 -68 -59 5 c-33 3
-61 7 -63 9 -3 2 1 34 7 70 l11 66 56 -5 c31 -3 57 -7 58 -8z m40 -10 c-3 -6
-8 -42 -12 -78 -4 -37 -12 -67 -17 -67 -6 0 -8 10 -4 23 3 12 6 50 6 84 0 52
3 61 16 56 8 -3 13 -11 11 -18z m2831 -42 c5 -38 8 -70 7 -71 -2 -2 -31 -6
-64 -9 -55 -5 -61 -4 -61 13 0 11 -3 42 -6 71 l-7 52 54 4 c30 2 57 4 60 5 4
1 11 -28 17 -65z m-2442 41 c27 -8 58 -22 69 -30 17 -13 17 -16 4 -29 -14 -14
-20 -13 -64 6 -89 39 -201 24 -274 -36 -28 -24 -32 -25 -51 -12 -21 14 -20 15
17 46 80 66 199 88 299 55z m854 -4 c0 -11 -2 -20 -3 -20 -2 0 -12 9 -22 20
-18 19 -17 20 3 20 15 0 22 -6 22 -20z m195 -7 c-18 -16 -31 -21 -33 -14 -8
23 8 41 35 41 l28 -1 -30 -26z m1065 0 c25 -12 59 -33 75 -46 28 -24 29 -27
13 -43 -17 -17 -19 -17 -40 4 -69 64 -193 82 -287 41 -46 -19 -54 -20 -67 -7
-14 13 -12 17 13 33 74 49 208 57 293 18z m189 -55 c-1 -68 -3 -76 -9 -43 -20
106 -21 125 -5 125 12 0 15 -15 14 -82z m-2579 62 c23 0 23 -1 -11 -25 -20
-13 -53 -43 -73 -67 -24 -27 -36 -36 -32 -23 2 11 8 44 11 74 l7 53 37 -6 c20
-3 47 -6 61 -6z m2544 -36 c3 -26 6 -58 6 -72 0 -23 -2 -22 -30 16 -16 22 -46
52 -66 66 l-37 25 39 4 c86 9 81 11 88 -39z m-1500 19 c14 -51 27 -134 21
-143 -13 -22 -23 -8 -29 43 -4 28 -9 67 -12 85 -7 34 11 46 20 15z m236 5 c0
-7 -3 -23 -6 -36 -6 -21 -11 -23 -63 -20 -55 3 -56 3 -59 36 l-3 32 65 0 c46
0 66 -4 66 -12z m129 -68 c-13 -86 -17 -96 -31 -82 -8 8 -7 29 2 79 14 77 19
88 30 76 4 -4 4 -37 -1 -73z m-1148 25 c64 -23 104 -59 134 -120 38 -76 33
-164 -11 -227 -137 -195 -449 -106 -448 127 1 165 165 276 325 220z m282 -2
c15 -4 17 -12 12 -51 -10 -73 -14 -82 -40 -82 -18 0 -28 11 -45 45 -12 24 -35
59 -51 76 l-28 31 67 -7 c37 -4 75 -9 85 -12z m1469 -21 c-17 -21 -38 -55 -48
-75 -15 -31 -23 -37 -44 -35 -22 3 -26 9 -33 62 -5 32 -5 61 -2 64 4 4 32 10
63 13 102 11 97 13 64 -29z m365 10 c79 -41 126 -120 125 -213 -1 -170 -187
-280 -347 -205 -89 41 -135 114 -135 214 0 98 60 182 156 218 52 19 148 12
201 -14z m-1771 -9 c-3 -16 -8 -52 -11 -80 -5 -41 -11 -53 -24 -53 -16 0 -17
7 -9 68 12 86 14 92 33 92 13 0 15 -7 11 -27z m164 -5 c-3 -50 -1 -52 19 -34
36 32 83 -3 61 -45 -13 -24 -56 -25 -69 -2 -13 24 -24 11 -30 -40 -5 -35 -10
-43 -30 -45 -20 -3 -23 0 -18 20 3 12 11 58 18 101 10 65 15 77 31 77 16 0 19
-6 18 -32z m947 -43 c7 -39 15 -82 17 -97 5 -24 2 -28 -18 -28 -20 0 -24 6
-29 45 -6 55 -13 64 -30 41 -28 -38 -95 2 -71 42 16 24 42 27 65 6 18 -17 19
-16 19 25 0 35 3 42 17 39 13 -2 21 -21 30 -73z m338 -1 c-61 -79 -70 -176
-25 -264 21 -40 21 -42 3 -55 -16 -12 -20 -10 -40 23 -44 72 -51 178 -18 257
7 17 27 50 45 73 30 42 32 43 50 27 18 -16 17 -18 -15 -61z m-1644 44 c31 -37
58 -94 70 -147 21 -98 -49 -270 -86 -211 -4 6 3 30 14 53 43 92 35 184 -24
262 -24 31 -30 46 -22 54 16 16 26 14 48 -11z m271 12 l30 0 -7 -57 c-10 -83
-12 -86 -54 -78 -20 4 -38 8 -40 10 -2 2 0 34 4 70 5 53 10 65 22 61 8 -3 28
-6 45 -6z m1098 -10 c0 -5 9 -10 19 -10 15 0 20 -10 26 -51 4 -27 4 -53 1 -56
-3 -3 -22 -6 -43 -7 l-37 -1 -11 68 -12 67 29 0 c15 0 28 -4 28 -10z m99 -102
c1 -34 -24 -38 -33 -5 -10 39 -7 105 7 110 12 4 25 -46 26 -105z m-611 71 c-3
-18 -11 -21 -55 -23 -50 -3 -53 -2 -53 20 0 22 4 24 56 24 51 0 55 -2 52 -21z
m-1311 0 c8 -8 6 -22 -10 -52 -25 -48 -33 -128 -18 -183 6 -22 27 -59 47 -83
34 -39 36 -44 21 -59 -15 -15 -19 -14 -43 9 -87 81 -108 243 -44 347 21 34 30
38 47 21z m2583 -44 c36 -72 35 -169 -2 -246 -15 -30 -39 -66 -53 -79 -24 -22
-26 -23 -42 -7 -16 16 -15 18 9 44 68 71 86 179 44 269 -18 38 -21 55 -13 63
18 18 30 8 57 -44z m-1310 -10 c0 -8 -4 -15 -10 -15 -5 0 -10 7 -10 15 0 8 5
15 10 15 6 0 10 -7 10 -15z m-143 -27 c-3 -8 -6 -5 -6 6 -1 11 2 17 5 13 3 -3
4 -12 1 -19z m273 7 c0 -8 -4 -15 -10 -15 -5 0 -7 7 -4 15 4 8 8 15 10 15 2 0
4 -7 4 -15z m-160 -5 c0 -5 9 -10 20 -10 11 0 20 5 20 11 0 17 81 2 95 -18 7
-10 19 -14 29 -10 13 5 17 2 14 -11 -2 -10 -11 -16 -22 -14 -10 2 -28 -4 -41
-12 -27 -18 -85 -22 -85 -6 0 6 -16 10 -35 10 -19 0 -35 -4 -35 -10 0 -14 -35
-12 -75 4 -37 16 -51 52 -16 41 10 -3 25 1 33 8 7 8 20 16 28 20 25 9 70 8 70
-3z m-660 -31 c0 -8 12 -10 35 -6 35 6 35 5 81 -74 37 -65 52 -81 75 -86 27
-5 29 -8 29 -55 l0 -50 -32 7 c-71 15 -87 30 -158 134 -73 108 -85 141 -50
141 11 0 20 -5 20 -11z m1400 -7 c0 -9 -33 -67 -74 -128 -61 -91 -80 -112
-104 -117 -16 -3 -41 -9 -56 -13 -25 -6 -26 -5 -26 44 0 46 2 50 28 55 21 5
38 23 75 86 47 79 48 80 82 74 23 -4 35 -2 35 6 0 6 9 11 20 11 12 0 20 -7 20
-18z m-910 -28 c0 -14 -4 -22 -10 -19 -5 3 -10 17 -10 31 0 14 4 22 10 19 6
-3 10 -17 10 -31z m-210 -4 c0 -23 5 -30 19 -30 34 0 51 -38 51 -115 0 -80
-17 -115 -56 -115 -14 0 -24 -6 -24 -14 0 -8 -3 -21 -6 -30 -4 -11 5 -21 30
-33 20 -9 36 -20 36 -24 0 -14 -60 -28 -95 -22 -51 8 -63 28 -28 45 l28 13 3
135 c1 74 7 139 12 144 6 6 10 25 10 43 0 18 5 33 10 33 6 0 10 -13 10 -30z
m820 -3 c0 -18 4 -37 10 -43 5 -5 11 -70 12 -144 3 -130 4 -135 26 -145 57
-25 -21 -65 -85 -44 -41 13 -42 23 -3 39 25 10 30 18 30 46 0 28 -4 34 -22 34
-43 0 -58 27 -58 107 0 84 10 110 47 124 20 7 24 15 21 34 -4 17 -1 25 8 25 9
0 14 -12 14 -33z m-2114 -6 c5 -10 46 -51 92 -90 45 -40 82 -77 82 -82 0 -12
-17 -11 -25 1 -3 6 -17 7 -29 4 -16 -4 -25 0 -29 10 -7 17 2 21 19 9 6 -5 -21
22 -59 60 -40 39 -78 67 -89 67 -20 0 -21 1 -3 20 22 25 30 25 41 1z m3422 7
c16 -16 15 -28 -2 -28 -8 0 -53 -36 -102 -80 -48 -44 -91 -80 -95 -80 -25 0
-7 23 71 90 48 41 90 83 93 93 6 20 18 22 35 5z m-1600 -15 c-5 -25 -28 -28
-28 -4 0 12 6 21 16 21 9 0 14 -7 12 -17z m-138 -14 c0 -25 -33 -22 -38 4 -2
12 3 17 17 17 15 0 21 -6 21 -21z m210 -61 l0 -73 -25 53 c-14 30 -25 57 -25
61 0 5 9 11 48 30 1 0 2 -32 2 -71z m-302 35 c39 -5 43 -8 38 -28 -9 -34 -46
-118 -50 -114 -2 2 -18 39 -34 82 -25 64 -27 77 -14 72 9 -4 36 -10 60 -12z
m192 -15 c0 -7 -8 -40 -18 -73 l-18 -60 -26 65 -26 65 26 6 c44 11 62 10 62
-3z m-1601 -44 c50 -22 60 -29 45 -35 -20 -7 -105 32 -127 60 -14 17 -15 17
82 -25z m829 -14 c17 -28 28 -50 22 -50 -5 0 -19 18 -30 40 -11 22 -25 40 -30
40 -6 0 -10 5 -10 10 0 21 16 8 48 -40z m1412 40 c0 -5 -4 -10 -9 -10 -6 0
-20 -18 -32 -40 -13 -22 -26 -40 -31 -40 -4 0 7 22 24 50 32 48 48 61 48 40z
m861 -3 c-21 -26 -109 -67 -127 -60 -14 5 -3 14 51 39 78 36 93 40 76 21z
m-3221 -39 c24 -39 25 -58 6 -58 -19 0 -23 7 -31 53 -9 46 -1 47 25 5z m1478
-166 c-5 -2 -20 3 -33 12 -24 16 -25 22 -24 104 l0 87 33 -100 c18 -55 28
-102 24 -103z m1801 144 c-6 -25 -13 -46 -14 -46 -2 0 -17 6 -34 13 l-32 13
22 20 c22 19 22 19 15 -6 -6 -23 -6 -23 5 -5 46 80 56 83 38 11z m-1649 -68
c14 -40 26 -79 28 -85 2 -9 -12 -13 -51 -13 -29 0 -56 3 -59 6 -7 6 43 164 52
164 3 0 17 -33 30 -72z m163 6 c15 -30 25 -59 22 -64 -8 -13 -84 -35 -91 -27
-8 7 27 147 36 147 3 0 18 -25 33 -56z m-973 4 c0 -14 -86 -68 -133 -84 -66
-22 -176 -15 -234 15 -45 23 -50 30 -32 48 8 8 24 5 57 -10 68 -31 161 -29
228 5 27 15 56 33 63 42 10 12 16 13 32 3 10 -6 19 -15 19 -19z m558 11 c18
-7 22 -16 22 -53 l0 -45 -52 16 c-63 18 -65 20 -50 35 7 7 12 25 12 41 0 30 2
30 68 6z m572 -8 c0 -17 5 -33 10 -36 19 -12 10 -22 -32 -34 -24 -7 -51 -15
-60 -17 -15 -5 -18 2 -18 39 0 44 1 46 43 60 57 21 57 21 57 -12z m665 -51
c64 -13 117 -7 171 21 28 14 41 16 51 8 21 -18 16 -27 -29 -50 -64 -33 -176
-37 -248 -10 -31 11 -71 34 -90 50 -34 28 -34 30 -16 44 18 13 24 11 62 -19
27 -20 65 -37 99 -44z m-1707 37 c2 -12 -3 -17 -17 -17 -23 0 -24 1 -15 25 8
19 28 15 32 -8z m1475 3 c4 -15 0 -20 -13 -20 -25 0 -36 20 -19 31 21 13 26
11 32 -11z m1310 -87 l38 -40 -30 5 c-30 4 -30 4 -21 -28 5 -18 21 -48 36 -67
l26 -35 -31 -28 c-17 -16 -31 -36 -31 -44 0 -11 -9 -16 -26 -16 -21 0 -25 4
-19 18 3 9 7 21 8 26 1 6 -70 40 -158 78 -150 63 -170 77 -147 100 4 3 75 -23
157 -58 83 -35 154 -64 159 -64 9 0 2 108 -8 117 -3 3 -12 0 -21 -7 -13 -11
-15 -8 -15 18 0 16 -7 49 -15 72 -8 23 -15 45 -15 47 0 8 73 -53 113 -94z
m-1367 48 c-11 -12 -16 -27 -12 -37 5 -13 15 -15 56 -9 55 8 61 1 34 -40 -34
-51 -141 -68 -164 -25 -18 33 -12 85 13 108 47 44 113 47 73 3z m-1325 -1 c60
-60 17 -151 -64 -136 -40 7 -97 55 -97 80 0 14 8 16 49 10 57 -7 71 5 47 41
-21 32 -20 35 10 35 15 0 38 -12 55 -30z m-713 -53 c4 -20 -25 -34 -40 -19
-15 15 -1 44 19 40 10 -2 19 -11 21 -21z m70 -5 c3 -16 -2 -22 -17 -22 -24 0
-35 15 -27 36 9 23 40 13 44 -14z m1069 -4 c-3 -7 -5 -2 -5 12 0 14 2 19 5 13
2 -7 2 -19 0 -25z m394 -11 c-8 -8 -11 -5 -11 9 0 27 14 41 18 19 2 -9 -1 -22
-7 -28z m1123 27 c8 -21 -1 -34 -24 -34 -22 0 -33 23 -17 39 16 16 34 14 41
-5z m71 -9 c0 -23 -34 -33 -45 -14 -13 20 1 40 24 37 13 -2 21 -10 21 -23z
m325 20 c0 -12 -43 -90 -53 -97 -12 -7 -27 -1 -27 11 0 14 60 91 70 91 6 0 10
-2 10 -5z m-64 -16 c3 -6 2 -15 -4 -21 -11 -11 -52 6 -52 22 0 14 47 13 56 -1z
m-3291 -50 c8 -23 14 -29 18 -19 3 8 3 -7 0 -35 -3 -27 -7 -52 -9 -54 -7 -8
-34 22 -34 36 0 12 -7 14 -32 9 -76 -15 -328 -90 -328 -97 0 -9 57 -35 97 -45
17 -5 23 -2 23 10 0 20 -2 20 56 -6 l49 -21 -50 -24 c-27 -12 -63 -23 -79 -23
-28 0 -29 1 -10 14 26 20 12 30 -61 46 -71 15 -105 29 -105 44 0 6 22 39 49
72 33 41 46 65 40 71 -7 7 3 16 31 27 64 26 72 22 47 -23 -16 -30 -25 -37 -34
-29 -9 7 -17 7 -26 -1 -18 -14 -53 -79 -46 -85 2 -3 84 21 182 52 168 54 177
58 177 83 0 51 28 51 45 -2z m1529 35 c24 -9 20 -44 -4 -44 -15 0 -20 7 -20
25 0 27 1 28 24 19z m-766 -26 c-3 -25 -17 -32 -37 -19 -19 12 -6 41 19 41 16
0 21 -5 18 -22z m962 -3 c0 -18 -5 -25 -20 -25 -15 0 -20 7 -20 25 0 18 5 25
20 25 15 0 20 -7 20 -25z m848 4 c3 -17 -23 -33 -39 -23 -5 3 -9 14 -9 25 0
15 6 20 22 17 13 -2 24 -10 26 -19z m-2308 -29 c0 -24 -25 -33 -40 -14 -10 11
-10 17 0 28 15 19 40 10 40 -14z m148 7 c4 -20 -25 -34 -40 -19 -15 15 -1 44
19 40 10 -2 19 -11 21 -21z m2510 0 c4 -20 -25 -34 -40 -19 -15 15 -1 44 19
40 10 -2 19 -11 21 -21z m-2850 -12 c-3 -3 -9 2 -12 12 -6 14 -5 15 5 6 7 -7
10 -15 7 -18z m267 0 c0 -30 -39 -27 -43 3 -3 20 0 23 20 20 15 -2 23 -10 23
-23z m2653 2 c4 -20 -25 -34 -40 -19 -15 15 -1 44 19 40 10 -2 19 -11 21 -21z
m77 13 c9 -15 -14 -40 -31 -33 -22 8 -18 43 5 43 11 0 23 -5 26 -10z m-2425
-20 c0 -24 -26 -38 -42 -22 -16 16 -2 42 22 42 13 0 20 -7 20 -20z m2045 -5
c0 -30 -39 -27 -43 3 -3 20 0 23 20 20 15 -2 23 -10 23 -23z m-1837 -18 c4
-20 -25 -34 -40 -19 -15 15 -1 44 19 40 10 -2 19 -11 21 -21z m1630 0 c4 -20
-25 -34 -40 -19 -15 15 -1 44 19 40 10 -2 19 -11 21 -21z m-2258 -12 c15 -18
5 -35 -20 -35 -10 0 -22 5 -25 10 -7 11 12 40 25 40 4 0 13 -7 20 -15z m235
-10 c0 -30 -39 -27 -43 3 -3 20 0 23 20 20 15 -2 23 -10 23 -23z m2415 5 c0
-24 -26 -38 -42 -22 -16 16 -2 42 22 42 13 0 20 -7 20 -20z m230 5 c15 -18 5
-35 -20 -35 -10 0 -22 5 -25 10 -7 11 12 40 25 40 4 0 13 -7 20 -15z m-2802
-17 c-3 -25 -17 -32 -37 -19 -19 12 -6 41 19 41 16 0 21 -5 18 -22z m77 -3 c0
-30 -39 -27 -43 3 -3 20 0 23 20 20 15 -2 23 -10 23 -23z m821 11 c17 -1 19
-4 10 -18 -16 -26 -60 -42 -84 -29 -13 7 -22 7 -29 0 -6 -6 -21 -9 -34 -6 -22
4 -22 4 4 6 15 0 27 6 27 12 0 20 44 49 65 43 11 -4 29 -7 41 -8z m972 -5 c12
-11 22 -24 22 -30 0 -6 12 -12 28 -12 25 -2 25 -2 3 -6 -13 -3 -28 0 -33 5 -7
7 -19 7 -35 -1 -19 -8 -29 -8 -45 2 -16 10 -23 10 -36 -1 -15 -12 -16 -11 -3
5 11 14 11 20 1 32 -11 13 -10 14 3 9 9 -3 24 -1 34 5 25 14 35 13 61 -8z
m777 -6 c0 -30 -39 -27 -43 3 -3 20 0 23 20 20 15 -2 23 -10 23 -23z m81 14
c8 -14 -21 -43 -35 -35 -19 12 -13 46 8 46 11 0 23 -5 27 -11z m-2000 -14 c16
-13 17 -16 4 -25 -22 -15 -34 -12 -20 5 10 12 8 16 -11 24 -14 6 -18 10 -8 10
8 1 24 -6 35 -14z m232 3 c9 -9 18 -8 37 2 22 12 27 12 40 -3 8 -9 10 -12 3
-7 -18 15 -38 12 -45 -5 -3 -9 3 -23 13 -32 15 -12 13 -11 -9 2 -24 14 -31 14
-45 3 -15 -12 -16 -11 -2 6 13 16 12 20 -5 32 -10 8 -14 14 -9 14 6 0 15 -5
22 -12z m198 -17 c7 -13 18 -28 26 -32 9 -6 9 -9 1 -9 -6 0 -15 4 -18 10 -3 5
-19 7 -34 4 -16 -3 -31 -2 -34 3 -3 5 7 9 21 8 17 0 27 5 27 15 0 19 -35 26
-46 8 -5 -7 -9 -8 -9 -2 0 33 49 30 66 -5z m396 18 c-28 -11 -24 -33 6 -37 14
-2 22 3 25 18 4 18 5 18 3 -2 -1 -19 -7 -23 -33 -23 -17 0 -35 -3 -39 -7 -4
-5 -12 -8 -18 -8 -5 0 -1 7 10 15 19 15 19 15 -1 31 -20 16 -20 16 2 10 12 -4
24 -2 28 4 3 5 14 10 23 9 12 0 10 -3 -6 -10z m136 -1 c10 -10 17 -10 35 1 20
13 21 13 8 -2 -11 -14 -11 -20 0 -34 13 -16 12 -17 -3 -5 -14 11 -21 11 -45
-3 -22 -13 -24 -14 -9 -2 10 9 16 23 13 32 -8 18 -28 20 -45 3 -8 -8 -12 -9
-12 -1 0 22 40 29 58 11z m295 2 c-25 -10 -30 -26 -10 -33 6 -3 8 -6 2 -6 -5
0 -17 4 -25 9 -13 9 -12 12 4 25 11 8 27 15 35 14 10 0 7 -4 -6 -9z m-1206 -6
c-3 -3 -12 -4 -19 -1 -8 3 -5 6 6 6 11 1 17 -2 13 -5z m1150 0 c-3 -3 -12 -4
-19 -1 -8 3 -5 6 6 6 11 1 17 -2 13 -5z m-987 -14 c0 -5 -4 -10 -10 -10 -5 0
-10 5 -10 10 0 6 5 10 10 10 6 0 10 -4 10 -10z m190 0 c0 -5 -4 -10 -10 -10
-5 0 -10 5 -10 10 0 6 5 10 10 10 6 0 10 -4 10 -10z m97 -1 c-14 -8 -16 -14
-6 -25 7 -8 7 -14 1 -14 -5 0 -13 8 -16 17 -6 16 9 33 29 33 6 -1 2 -5 -8 -11z
m253 0 c0 -17 -13 -39 -22 -39 -6 0 -6 6 1 14 10 11 8 17 -6 25 -16 9 -16 10
5 8 12 -1 22 -4 22 -8z m90 1 c0 -5 -4 -10 -10 -10 -5 0 -10 5 -10 10 0 6 5
10 10 10 6 0 10 -4 10 -10z m190 0 c0 -5 -4 -10 -10 -10 -5 0 -10 5 -10 10 0
6 5 10 10 10 6 0 10 -4 10 -10z m-1311 -14 c9 -10 7 -16 -5 -26 -12 -11 -27
-11 -65 -4 l-49 11 0 -64 0 -64 -63 -29 c-71 -32 -209 -73 -307 -91 -77 -14
-305 -15 -339 -2 l-25 10 29 7 c16 4 45 14 64 22 l36 15 -60 35 -60 35 75 -4
c117 -8 299 10 397 39 48 14 134 47 192 74 108 51 159 61 180 36z m328 8 c-3
-3 -12 -4 -19 -1 -8 3 -5 6 6 6 11 1 17 -2 13 -5z m250 0 c-3 -3 -12 -4 -19
-1 -8 3 -5 6 6 6 11 1 17 -2 13 -5z m650 0 c-3 -3 -12 -4 -19 -1 -8 3 -5 6 6
6 11 1 17 -2 13 -5z m689 -9 c33 -8 97 -30 141 -49 131 -58 180 -67 388 -74
l190 -7 -60 -32 c-67 -35 -68 -33 35 -64 41 -12 42 -13 17 -20 -58 -15 -196
-20 -282 -9 -124 15 -221 43 -315 90 -44 22 -91 40 -105 40 -24 0 -25 3 -25
54 l0 55 -32 -10 c-51 -14 -108 -12 -108 6 0 35 59 43 156 20z m-1316 -5 c0
-5 -5 -10 -11 -10 -5 0 -7 5 -4 10 3 6 8 10 11 10 2 0 4 -4 4 -10z m595 0 c3
-5 1 -10 -4 -10 -6 0 -11 5 -11 10 0 6 2 10 4 10 3 0 8 -4 11 -10z m-1219 -41
c31 14 34 14 34 1 0 -5 -9 -10 -20 -10 -15 0 -23 -12 -36 -56 -9 -31 -12 -59
-8 -64 15 -13 64 -21 64 -10 0 5 -9 10 -19 10 -29 0 -33 13 -19 64 11 42 14
45 37 39 38 -9 40 -11 33 -35 -3 -14 -2 -19 6 -14 7 4 12 14 12 23 0 11 6 14
23 9 48 -13 299 -46 426 -56 172 -13 589 -13 757 0 128 10 337 36 382 47 24 6
24 6 -2 -20 -25 -25 -25 -28 -13 -59 10 -24 21 -34 41 -36 31 -4 56 13 56 36
0 12 -5 11 -21 -7 -25 -26 -39 -24 -59 11 -20 37 1 62 44 54 28 -5 29 -4 14 8
-23 17 -23 26 1 26 14 0 22 -13 33 -52 15 -52 16 -53 49 -50 19 1 38 7 44 13
7 7 -1 9 -26 4 -28 -5 -38 -3 -42 9 -5 12 1 18 23 23 17 3 30 10 30 15 0 5
-16 6 -35 2 -28 -5 -35 -3 -35 9 0 9 13 18 30 22 18 4 30 13 30 22 0 12 -7 14
-30 10 -19 -4 -30 -2 -30 5 0 7 15 9 45 5 25 -4 56 -2 70 3 l25 10 0 -69 0
-69 -77 -21 c-538 -144 -1308 -144 -1845 0 l-78 21 0 69 0 68 31 -11 c22 -8
37 -7 55 1z"/>
<path d="M14413 9168 c-12 -6 -24 -16 -27 -23 -3 -9 4 -8 25 3 16 9 29 20 29
25 0 8 1 9 -27 -5z"/>
<path d="M14397 9079 c27 -28 81 -34 126 -15 52 21 46 37 -6 18 -39 -14 -48
-14 -91 0 -48 16 -48 16 -29 -3z"/>
<path d="M14680 8675 c-20 -24 -8 -122 18 -147 17 -18 23 -19 36 -8 20 16 22
140 4 158 -16 16 -43 15 -58 -3z m48 -7 c15 -15 16 -124 1 -134 -31 -19 -66
98 -39 131 15 18 22 19 38 3z"/>
<path d="M15456 8668 c-23 -32 -21 -110 3 -139 l20 -24 22 22 c27 26 39 124
19 148 -18 22 -46 18 -64 -7z m59 -22 c12 -33 -13 -111 -35 -111 -11 0 -16 14
-18 58 -4 83 30 117 53 53z"/>
<path d="M14583 8294 c-8 -22 11 -37 36 -29 25 8 28 30 5 39 -25 9 -34 7 -41
-10z m34 -10 c-3 -3 -12 -4 -19 -1 -8 3 -5 6 6 6 11 1 17 -2 13 -5z"/>
<path d="M15573 8303 c-18 -7 -16 -30 2 -37 20 -7 45 3 45 19 0 10 -25 28 -33
24 -1 0 -8 -3 -14 -6z m34 -19 c-3 -3 -12 -4 -19 -1 -8 3 -5 6 6 6 11 1 17 -2
13 -5z"/>
<path d="M14325 8126 c-12 -59 -4 -81 31 -84 17 -2 35 3 41 10 15 18 26 88 14
88 -5 0 -12 -18 -16 -41 -8 -44 -27 -58 -51 -38 -15 12 -14 26 2 82 3 9 1 17
-5 17 -5 0 -13 -15 -16 -34z"/>
<path d="M14440 8128 c-1 -7 -5 -32 -9 -55 -5 -24 -5 -43 0 -43 4 0 11 17 15
37 l7 36 24 -47 c14 -27 28 -45 33 -40 11 11 26 122 15 112 -5 -4 -11 -25 -15
-45 l-6 -38 -24 48 c-23 46 -40 60 -40 35z"/>
<path d="M15725 8130 c-7 -11 4 -78 16 -100 6 -11 8 -8 9 12 0 37 17 44 44 19
12 -12 29 -21 37 -21 9 1 6 7 -10 20 -18 16 -21 23 -12 34 20 24 2 46 -39 46
-22 0 -42 -4 -45 -10z m71 -11 c3 -6 0 -15 -7 -20 -22 -13 -49 -11 -49 5 0 23
43 35 56 15z"/>
<path d="M15629 8116 c-51 -25 -27 -106 31 -106 35 0 50 17 50 56 0 47 -39 71
-81 50z m48 -14 c24 -15 19 -69 -7 -77 -28 -9 -50 11 -50 45 0 34 28 50 57 32z"/>
<path d="M14557 8100 c-13 -60 -16 -90 -7 -90 5 0 12 20 15 44 8 49 1 86 -8
46z"/>
<path d="M14602 8098 c-7 -7 -12 -26 -12 -43 0 -38 16 -55 50 -55 31 0 60 28
60 57 0 42 -68 71 -98 41z m68 -12 c28 -35 -11 -93 -47 -70 -24 15 -28 48 -8
68 20 20 39 20 55 2z"/>
<path d="M15508 8105 c-8 -8 3 -98 13 -109 5 -6 9 3 9 21 0 27 4 32 28 36 25
4 25 4 -5 6 -20 0 -33 6 -33 15 0 7 15 18 33 24 l32 10 -36 1 c-20 1 -38 -1
-41 -4z"/>
<path d="M14716 8069 c-9 -46 -7 -79 4 -79 6 0 10 19 10 43 l0 42 32 -50 c27
-44 32 -47 39 -30 11 29 11 111 0 100 -5 -6 -11 -26 -13 -45 l-3 -35 -23 43
c-27 50 -37 53 -46 11z"/>
<path d="M15385 8090 c-5 -8 -35 -99 -35 -107 0 -2 4 -3 9 -3 5 0 11 9 14 20
6 25 42 27 56 3 5 -10 12 -15 16 -11 6 6 -41 108 -50 108 -2 0 -7 -4 -10 -10z
m25 -46 c0 -8 -6 -14 -14 -14 -9 0 -12 7 -9 20 6 22 23 18 23 -6z"/>
<path d="M14880 8073 c0 -10 -3 -35 -6 -55 -5 -25 -3 -38 5 -38 6 0 11 11 11
25 0 21 5 25 33 26 l32 1 -30 7 c-39 8 -41 37 -3 33 14 -1 29 2 33 8 4 6 -9
10 -34 10 -32 0 -41 -4 -41 -17z"/>
<path d="M14985 8036 c-25 -56 -29 -90 -5 -47 14 27 56 28 65 1 3 -11 10 -20
16 -20 9 0 -26 99 -41 114 -6 6 -20 -13 -35 -48z m44 -8 c1 -5 -6 -8 -15 -8
-11 0 -14 5 -10 16 3 9 6 21 7 27 0 12 17 -20 18 -35z"/>
<path d="M15087 8083 c-11 -10 -8 -113 3 -113 6 0 10 27 10 60 0 61 -1 65 -13
53z"/>
<path d="M15120 8080 c0 -5 7 -10 15 -10 11 0 15 -12 15 -44 0 -25 5 -48 10
-51 6 -4 10 13 10 44 0 44 3 51 20 51 11 0 20 5 20 10 0 6 -20 10 -45 10 -25
0 -45 -4 -45 -10z"/>
<path d="M15264 8068 c3 -13 6 -38 6 -55 0 -32 2 -33 38 -32 27 1 31 3 12 6
-32 6 -40 19 -40 66 0 20 -5 37 -11 37 -7 0 -9 -9 -5 -22z"/>
<path d="M8380 8936 c-52 -8 -97 -10 -115 -4 -48 13 -62 10 -97 -21 -19 -16
-55 -41 -81 -54 -86 -46 -197 -185 -197 -247 0 -50 63 -127 145 -179 73 -46
134 -110 203 -213 50 -74 95 -118 109 -105 3 4 -2 9 -11 13 -9 3 -16 10 -16
15 0 5 13 3 30 -6 16 -8 45 -15 64 -15 25 0 38 -6 46 -19 15 -29 12 -39 -12
-43 -19 -3 -13 -9 31 -32 48 -25 55 -26 63 -12 16 28 74 20 137 -19 102 -63
144 -74 337 -89 45 -4 57 -10 102 -54 65 -63 141 -102 201 -102 40 0 50 -5 92
-47 26 -27 55 -56 66 -67 10 -10 45 -46 79 -81 71 -73 110 -96 181 -106 33 -5
68 -19 100 -40 46 -32 54 -34 173 -42 193 -13 343 -15 370 -5 20 8 27 5 43
-16 13 -18 28 -26 48 -26 16 0 52 -11 79 -25 57 -29 150 -55 195 -55 17 0 48
-9 70 -20 43 -22 99 -26 141 -10 34 13 50 0 35 -28 -9 -17 -5 -31 22 -79 18
-32 37 -57 42 -55 5 2 12 -6 17 -17 4 -12 16 -21 28 -21 15 0 20 7 20 28 0 35
9 45 26 31 19 -15 34 -2 34 29 0 16 -12 39 -31 58 -29 30 -31 36 -22 70 7 31
14 40 38 45 17 3 52 15 79 26 36 15 44 21 32 26 -17 7 -71 115 -62 125 3 2 -1
14 -9 26 -9 12 -15 44 -15 81 0 33 -4 75 -9 92 -19 67 -221 295 -288 326 -31
14 -30 31 2 25 14 -3 25 -2 25 1 0 9 -99 41 -155 51 -71 11 -145 37 -178 61
-24 17 -33 19 -59 10 -48 -17 -78 -13 -110 14 -17 15 -42 25 -60 25 -19 0 -39
9 -53 24 -16 17 -46 29 -104 41 -55 12 -104 31 -146 57 -42 25 -76 38 -99 38
-31 0 -39 6 -70 53 -63 95 -134 143 -194 131 -23 -5 -32 -1 -45 19 -9 14 -28
27 -43 29 -20 2 -29 12 -40 43 -18 55 -38 67 -96 59 -34 -5 -60 -2 -86 9 -20
8 -91 21 -157 27 -143 14 -238 44 -295 93 -23 20 -62 40 -88 47 -26 6 -69 27
-97 45 -98 67 -206 85 -365 61z"/>
<path d="M4785 6640 c-16 -5 -70 -31 -120 -57 -98 -53 -113 -72 -101 -137 15
-77 86 -126 183 -126 32 0 50 -7 75 -28 101 -87 134 -85 276 16 71 50 107 98
117 154 6 32 3 40 -20 62 -27 25 -103 56 -139 56 -12 0 -46 13 -76 29 -61 32
-147 46 -195 31z"/>
<path d="M4452 6438 c-15 -15 -16 -45 -1 -53 16 -11 56 3 63 21 13 34 -35 59
-62 32z"/>
<path d="M7221 3742 c-12 -28 -15 -30 -63 -26 -55 4 -79 -3 -57 -17 11 -6 11
-11 1 -21 -21 -21 -14 -27 23 -21 25 4 41 1 53 -10 14 -13 25 -14 70 -3 50 11
51 12 38 32 -8 11 -18 35 -23 54 -12 44 -27 48 -42 12z"/>
<path d="M5150 2861 c0 -11 5 -23 11 -26 5 -4 21 -30 33 -58 l24 -52 11 28 c7
17 18 27 32 27 17 0 20 -5 18 -32 -2 -22 6 -49 23 -78 15 -25 36 -66 47 -91
22 -49 35 -59 79 -59 14 0 33 -7 43 -16 17 -15 20 -14 42 9 l23 26 117 -9 c64
-5 122 -12 127 -15 6 -4 53 -9 103 -11 92 -4 93 -4 135 28 47 36 54 64 22 93
-11 10 -33 41 -49 70 -32 56 -70 89 -115 101 -23 5 -40 -2 -97 -41 -71 -48
-127 -74 -165 -75 -53 -1 -127 32 -169 76 -31 31 -48 42 -61 37 -10 -4 -21 0
-28 9 -18 24 -52 38 -94 38 -26 0 -45 6 -57 20 -24 26 -55 26 -55 1z"/>
</g>
</svg>
