<?xml version="1.0" standalone="no"?>
<!DOCTYPE svg PUBLIC "-//W3C//DTD SVG 20010904//EN"
 "http://www.w3.org/TR/2001/REC-SVG-20010904/DTD/svg10.dtd">
<svg version="1.0" xmlns="http://www.w3.org/2000/svg"
 width="1920.000000pt" height="1920.000000pt" viewBox="0 0 1920.000000 1920.000000"
 preserveAspectRatio="xMidYMid meet">
<metadata>
Created by potrace 1.14, written by Peter Selinger 2001-2017
</metadata>
<g transform="translate(0.000000,1920.000000) scale(0.100000,-0.100000)"
fill="#000000" stroke="none">
<path d="M11127 16934 c-3 -3 -81 -10 -174 -14 -192 -10 -303 -24 -365 -46
-24 -9 -86 -19 -139 -24 -68 -6 -118 -18 -174 -40 -44 -17 -101 -34 -127 -37
-37 -5 -48 -10 -48 -24 0 -10 9 -20 20 -24 11 -3 29 -19 40 -35 11 -16 28 -29
38 -29 17 0 90 -7 167 -16 22 -2 68 -15 101 -29 34 -14 89 -30 123 -35 42 -7
72 -19 94 -37 28 -24 36 -26 89 -20 32 4 85 2 118 -4 33 -6 106 -11 162 -12
103 -1 136 -9 151 -34 5 -9 26 -14 56 -14 27 0 64 -7 84 -15 19 -8 57 -19 83
-25 27 -6 56 -18 65 -26 9 -8 34 -18 55 -21 22 -3 56 -14 76 -25 31 -15 41
-16 57 -6 15 9 28 8 66 -6 26 -10 60 -16 78 -13 38 5 74 -7 104 -35 19 -17 27
-19 46 -11 26 12 216 1 287 -17 48 -13 156 -8 171 7 12 12 -76 137 -143 203
-65 64 -163 123 -248 149 -314 95 -472 151 -612 217 -170 80 -282 116 -301 98z"/>
<path d="M11070 15909 c-39 -36 -47 -40 -79 -35 -20 4 -62 9 -94 12 l-58 6
-46 -48 -45 -49 31 -3 c17 -2 31 -9 31 -16 0 -19 -123 -96 -154 -96 -41 0 -66
17 -66 46 0 20 11 30 65 55 36 18 65 35 65 40 0 14 -151 10 -236 -6 -43 -8
-122 -27 -176 -42 -97 -27 -98 -28 -98 -58 0 -42 -21 -69 -46 -61 -11 3 -30
27 -43 52 l-22 46 -71 -7 c-44 -4 -86 -15 -109 -28 l-36 -21 -90 22 c-49 12
-92 22 -96 22 -15 0 -6 -28 14 -41 13 -9 18 -20 14 -31 -10 -25 -25 -22 -75
15 l-44 32 -131 1 c-100 1 -149 7 -215 24 -61 16 -118 23 -200 25 -71 1 -140
9 -180 19 -84 23 -119 13 -185 -54 -27 -27 -57 -50 -67 -50 -9 0 -23 -8 -30
-18 -7 -10 -49 -38 -92 -63 -44 -24 -107 -69 -140 -100 -34 -31 -83 -67 -111
-81 -27 -13 -73 -39 -100 -56 -36 -23 -74 -36 -134 -47 -49 -8 -119 -31 -169
-54 -48 -21 -103 -44 -123 -50 -20 -6 -49 -25 -64 -41 -25 -26 -36 -30 -80
-30 -43 0 -59 5 -90 30 -45 35 -51 36 -134 10 -56 -18 -71 -19 -129 -9 -66 12
-66 12 -86 -16 -12 -15 -33 -40 -48 -55 -37 -37 -35 -52 7 -74 27 -15 38 -17
47 -8 17 17 66 15 127 -7 52 -18 121 -15 129 6 12 34 50 97 60 101 22 7 13
-32 -18 -78 -16 -25 -30 -54 -30 -66 0 -26 -19 -44 -47 -44 -16 0 -24 -7 -29
-24 -9 -38 -34 -53 -97 -58 -40 -3 -64 -11 -80 -26 -30 -28 -45 -28 -77 3
l-26 25 -37 -53 c-20 -28 -54 -77 -74 -107 -21 -30 -50 -72 -65 -92 -16 -20
-28 -40 -26 -45 1 -4 -2 -26 -6 -48 -14 -77 -15 -378 -2 -410 34 -80 225 -290
276 -302 14 -3 48 -27 75 -53 63 -60 83 -70 139 -70 39 0 49 -5 80 -37 l35
-38 30 18 c22 13 35 15 55 8 16 -7 47 -7 87 0 34 5 81 7 104 3 27 -4 51 -1 66
6 25 14 115 30 194 35 28 1 70 8 94 15 40 11 45 10 68 -12 22 -21 33 -23 106
-21 61 2 88 7 107 21 34 25 60 79 60 125 0 84 76 130 116 70 45 -70 111 -123
195 -159 153 -65 269 -105 291 -102 16 2 30 17 45 49 34 72 65 91 138 86 80
-5 293 -62 328 -87 69 -51 102 -71 137 -80 21 -6 61 -26 90 -46 65 -45 114
-55 129 -26 33 62 66 68 58 10 -5 -37 -2 -48 23 -78 26 -31 31 -34 50 -22 17
10 26 10 48 -1 28 -14 29 -17 18 -53 -5 -15 3 -30 27 -55 19 -19 39 -33 45
-31 7 2 42 -10 79 -26 38 -16 93 -37 123 -47 83 -26 201 -82 241 -115 27 -21
39 -26 48 -17 8 8 11 7 11 -6 0 -13 9 -17 33 -17 53 0 211 -85 262 -142 35
-39 56 -53 94 -63 57 -15 162 -101 208 -170 14 -22 50 -69 79 -105 29 -36 62
-87 73 -113 11 -26 27 -47 34 -47 8 0 40 -11 72 -25 44 -20 71 -25 114 -23 54
3 57 5 74 41 23 45 48 48 76 8 l21 -29 29 29 c29 29 74 39 86 19 3 -5 1 -10
-5 -10 -7 0 -8 -6 0 -19 5 -11 10 -53 10 -95 0 -66 2 -75 20 -81 24 -8 110
-111 110 -131 0 -8 -23 -38 -50 -65 -59 -59 -79 -59 -108 4 -11 23 -29 51 -41
61 -17 15 -20 27 -15 48 7 35 -18 78 -45 78 -28 0 -71 -56 -71 -91 0 -40 13
-63 61 -106 32 -29 39 -42 39 -72 0 -59 -20 -113 -55 -148 -41 -41 -62 -41
-117 -4 -58 40 -116 49 -149 22 -21 -17 -24 -28 -27 -104 -4 -77 -2 -85 16
-89 12 -4 25 -23 36 -53 26 -79 36 -85 137 -85 48 0 90 -4 93 -8 3 -5 -3 -22
-14 -39 l-19 -31 39 -26 c94 -62 70 -186 -35 -186 l-46 0 7 36 c6 32 4 36 -12
32 -11 -1 -28 -20 -38 -42 l-19 -38 -102 4 -103 5 -11 -74 c-6 -41 -11 -93
-11 -117 0 -53 -25 -128 -51 -152 -10 -9 -19 -23 -19 -31 0 -19 45 -16 61 4 8
9 31 29 53 44 l38 29 29 -21 c44 -31 38 -49 -17 -49 -31 0 -59 -8 -89 -26 -34
-19 -55 -24 -92 -22 l-48 3 3 -45 c2 -25 8 -47 15 -49 33 -12 113 -124 202
-286 66 -117 103 -154 201 -195 139 -57 214 -99 223 -124 6 -14 4 -48 -5 -92
-21 -105 -26 -111 -91 -130 -32 -9 -73 -28 -91 -42 l-32 -25 -58 19 c-41 14
-85 19 -157 19 -90 -1 -107 -4 -175 -33 -200 -86 -260 -206 -170 -338 44 -64
57 -73 104 -74 28 0 55 -11 98 -40 33 -21 76 -42 96 -45 56 -10 63 -13 69 -35
3 -11 32 -36 65 -56 48 -30 65 -46 81 -83 11 -25 31 -56 43 -68 21 -19 24 -32
24 -90 0 -82 14 -113 59 -128 18 -6 45 -26 61 -44 26 -33 29 -34 78 -28 45 5
54 3 89 -23 21 -16 43 -30 49 -30 31 0 176 -85 206 -119 18 -21 48 -46 65 -55
19 -9 42 -34 53 -57 12 -22 27 -42 35 -46 8 -3 15 -11 15 -19 0 -7 11 -21 24
-29 14 -9 26 -30 30 -48 3 -18 9 -55 13 -82 11 -64 20 -77 44 -70 27 9 64 -17
95 -68 14 -23 50 -65 80 -93 38 -36 54 -59 54 -77 0 -14 16 -48 35 -77 19 -29
35 -63 35 -77 0 -37 17 -62 54 -77 23 -10 38 -25 48 -52 19 -46 34 -60 110
-102 48 -27 68 -32 124 -32 36 0 74 -4 84 -10 13 -7 21 -6 30 5 20 24 65 19
84 -10 11 -17 29 -27 57 -31 23 -4 52 -16 64 -28 22 -20 45 -91 45 -138 0 -13
9 -29 20 -36 12 -7 20 -23 20 -40 0 -37 10 -48 48 -55 19 -4 44 -15 57 -25 20
-16 40 -18 168 -15 l146 3 22 -31 c12 -18 45 -42 73 -56 28 -13 65 -34 81 -46
17 -12 78 -37 135 -56 147 -47 149 -48 161 -78 6 -16 18 -37 28 -48 34 -38 34
-55 -4 -90 -19 -19 -59 -42 -87 -53 -47 -17 -53 -23 -56 -51 -2 -17 -7 -31
-12 -31 -4 0 -17 -16 -29 -35 -16 -28 -26 -35 -52 -35 -25 0 -29 -3 -21 -13 6
-7 9 -22 6 -33 -4 -15 2 -26 19 -37 16 -11 26 -29 31 -57 4 -23 15 -59 26 -81
31 -59 22 -194 -10 -174 -6 4 -19 0 -31 -8 -20 -14 -20 -16 -2 -25 17 -10 17
-12 -1 -42 -14 -25 -16 -34 -6 -40 19 -12 4 -76 -23 -97 -13 -10 -26 -26 -30
-35 -5 -15 -19 -18 -72 -18 -72 0 -94 8 -140 50 -30 28 -160 90 -188 90 -9 0
-25 -16 -37 -35 -38 -61 -85 -70 -186 -34 -53 19 -71 20 -174 13 -63 -4 -137
-7 -165 -6 -109 4 -162 1 -207 -10 -45 -11 -48 -10 -97 23 -45 31 -51 38 -51
72 0 34 -2 36 -18 26 -15 -9 -33 -7 -86 11 l-68 22 -47 -20 c-25 -12 -75 -23
-111 -25 -103 -7 -170 -52 -247 -167 -17 -25 -43 -55 -57 -67 -19 -17 -26 -32
-26 -61 0 -22 -14 -66 -33 -107 -19 -39 -51 -122 -71 -185 -37 -110 -73 -190
-86 -190 -4 0 -25 -16 -47 -35 -23 -19 -58 -41 -80 -48 -21 -7 -37 -19 -35
-26 3 -15 -16 -41 -29 -41 -5 0 -9 9 -9 20 0 19 -2 18 -47 -6 -44 -23 -56 -25
-143 -22 -71 3 -108 10 -145 27 -46 21 -55 21 -107 10 l-57 -12 -82 43 c-65
34 -91 42 -132 42 -174 -1 -254 -5 -272 -14 -11 -6 -43 -35 -71 -64 -49 -53
-51 -54 -108 -54 -76 0 -96 12 -96 55 0 24 -6 37 -20 45 -28 15 -25 28 12 43
l32 13 -90 23 c-49 13 -101 31 -116 42 -18 12 -44 19 -76 19 -27 0 -75 9 -108
21 -54 19 -78 21 -264 19 -352 -3 -416 -13 -479 -74 -35 -35 -47 -40 -108 -47
-37 -4 -82 -11 -99 -14 -38 -8 -76 9 -73 33 3 34 -2 41 -31 47 -16 4 -30 11
-30 17 0 6 -10 8 -24 4 -21 -5 -30 1 -56 40 -20 28 -37 43 -46 40 -8 -3 -14 0
-14 6 0 6 -11 26 -26 45 -20 27 -32 33 -62 33 -21 0 -48 7 -61 16 -14 10 -63
20 -132 27 l-110 11 -64 -32 c-36 -18 -76 -32 -90 -32 -14 0 -56 -5 -95 -12
-62 -11 -83 -10 -158 6 -48 10 -116 20 -152 22 -100 7 -103 7 -140 35 -70 53
-160 91 -274 115 -38 8 -84 24 -102 35 -22 14 -68 24 -146 33 -62 8 -140 23
-174 34 -42 15 -70 19 -89 13 -20 -5 -71 2 -159 22 -108 25 -135 28 -161 18
-43 -15 -106 -14 -190 4 -93 20 -145 20 -145 0 0 -18 -9 -19 -33 0 -11 7 -25
11 -33 8 -22 -8 -16 -32 11 -45 56 -25 3 -47 -60 -25 -57 20 -108 11 -139 -24
-27 -30 -95 -54 -126 -44 -10 3 -45 -4 -77 -15 -32 -11 -87 -22 -123 -24 -36
-2 -93 -7 -127 -11 -62 -8 -63 -7 -93 25 -31 34 -36 27 -21 -28 9 -30 7 -33
-20 -48 l-30 -15 7 35 c5 31 3 36 -12 36 -24 0 -107 -31 -116 -44 -12 -17 -46
-16 -53 2 -4 9 -9 54 -12 99 l-6 82 37 41 c21 23 35 47 32 53 -3 7 -9 19 -12
28 -6 18 -68 29 -169 29 -88 0 -107 7 -103 39 3 24 8 27 77 36 41 6 76 15 78
22 3 7 -10 21 -27 32 l-32 19 74 -2 73 -1 3 -31 3 -31 63 0 c55 1 63 3 59 18
-5 16 2 18 68 12 41 -3 107 -14 148 -24 93 -24 156 -24 201 -1 36 18 148 163
149 193 2 34 -45 40 -234 30 -186 -10 -235 -20 -333 -70 -49 -25 -101 -27
-197 -6 -133 28 -217 15 -223 -35 -2 -14 -6 -32 -9 -40 -3 -8 -5 -21 -4 -27 1
-7 -3 -13 -8 -13 -6 0 -26 -14 -44 -30 -19 -17 -42 -30 -50 -30 -9 0 -60 -11
-114 -24 -54 -14 -129 -28 -168 -31 -38 -4 -85 -15 -102 -26 l-33 -18 0 22 c0
53 -79 111 -211 156 -46 16 -111 39 -144 51 -59 22 -61 22 -170 7 -60 -9 -141
-19 -180 -22 l-70 -5 -68 60 c-38 33 -73 60 -79 60 -5 0 0 9 13 20 19 15 20
19 8 20 -9 0 -22 7 -29 15 -19 23 -33 18 -26 -10 4 -16 2 -25 -5 -25 -7 0 -59
25 -116 56 l-104 56 -252 -4 -252 -3 -85 38 c-47 21 -110 47 -140 59 -30 11
-68 33 -85 48 -16 15 -49 37 -72 49 -49 24 -83 64 -83 98 0 34 -42 73 -79 73
-23 0 -34 7 -45 29 -16 29 -49 42 -80 31 -10 -3 -42 6 -74 22 -64 31 -139 48
-217 48 -39 0 -56 5 -70 20 -20 22 -26 22 -190 -6 -133 -23 -135 -23 -135 -39
0 -21 -17 -18 -30 5 -17 32 -90 19 -90 -16 0 -18 -32 -67 -67 -103 -19 -19
-29 -22 -58 -17 -28 6 -39 15 -52 42 -16 33 -19 35 -63 32 -41 -3 -45 -5 -44
-28 2 -34 -14 -41 -54 -24 -52 21 -114 18 -130 -6 -8 -14 -23 -20 -46 -20 -19
0 -38 -5 -41 -10 -4 -6 -15 -8 -24 -5 -10 3 -24 -1 -31 -10 -22 -27 -110 -65
-151 -65 -30 0 -42 5 -55 24 -19 31 -44 23 -44 -13 0 -14 -9 -37 -19 -50 -15
-20 -21 -22 -39 -12 -27 14 -52 3 -71 -32 -7 -13 -31 -34 -53 -47 -70 -39 -75
-89 -17 -156 40 -47 41 -50 36 -105 -6 -72 -49 -154 -99 -188 -24 -17 -38 -36
-41 -56 -12 -66 -48 -198 -63 -228 -9 -18 -31 -50 -48 -72 -50 -62 -50 -64
-21 -87 24 -18 27 -27 22 -62 -4 -37 -35 -100 -89 -178 -10 -15 -18 -44 -18
-64 0 -26 -8 -46 -30 -71 -17 -18 -30 -43 -30 -54 0 -30 74 -134 113 -158 70
-43 70 -45 73 -226 2 -100 7 -172 14 -185 15 -29 97 -64 208 -90 84 -20 132
-46 132 -71 0 -6 -8 -24 -18 -41 -16 -28 -16 -30 2 -44 11 -8 35 -14 54 -14
30 0 44 -10 96 -64 l61 -63 80 -6 c52 -3 105 -15 150 -32 106 -41 173 -39 259
8 37 21 94 48 126 61 33 13 74 36 93 50 37 28 48 30 152 18 84 -10 99 -16 120
-49 26 -39 74 -54 153 -47 l69 7 66 -59 c40 -36 66 -67 67 -80 0 -34 34 -55
102 -64 36 -4 78 -15 96 -24 17 -9 37 -16 45 -16 8 0 22 -9 32 -20 12 -13 31
-20 55 -20 26 0 43 -7 60 -25 13 -14 39 -27 59 -31 64 -10 71 -15 89 -52 13
-28 31 -44 78 -67 86 -43 148 -98 154 -138 4 -28 10 -32 48 -40 34 -7 47 -16
67 -48 14 -21 31 -39 39 -39 7 0 31 -13 52 -28 21 -15 53 -34 71 -41 19 -8 35
-24 42 -42 6 -16 16 -43 22 -59 15 -40 36 -50 105 -50 l57 0 -5 -32 c-4 -26 2
-46 31 -93 39 -64 68 -85 117 -85 37 0 54 -17 65 -68 45 -200 45 -201 109
-236 26 -14 52 -32 57 -38 17 -22 24 -66 11 -70 -8 -3 -6 -12 5 -29 9 -14 25
-50 36 -80 10 -29 30 -76 45 -103 14 -27 26 -61 26 -76 0 -24 9 -30 88 -65 84
-37 88 -37 137 -25 89 22 292 29 353 11 44 -12 61 -13 100 -2 92 24 95 27 99
112 4 82 5 79 -71 147 -20 18 -57 64 -81 102 -33 51 -64 83 -115 121 -82 59
-100 89 -100 161 1 44 8 66 43 128 26 46 56 83 77 97 19 13 44 32 55 42 11 10
49 38 85 63 36 24 85 59 110 76 41 29 138 62 181 62 9 0 36 15 58 34 23 19 51
38 64 42 36 11 133 81 155 111 14 19 34 31 69 38 38 8 48 14 48 30 0 11 3 25
8 32 4 6 5 18 1 26 -3 9 11 32 35 57 39 41 42 42 91 38 59 -6 72 -15 47 -33
-12 -9 -17 -23 -15 -41 4 -38 20 -40 42 -4 10 18 38 41 64 53 38 18 48 28 55
57 4 20 19 49 32 65 l23 30 7 -48 c7 -44 5 -51 -20 -77 -14 -15 -26 -36 -25
-46 4 -36 0 -44 -24 -44 -37 0 -56 -25 -56 -76 0 -49 15 -57 45 -24 11 12 31
20 50 20 53 0 86 52 99 160 11 85 12 87 33 77 17 -7 29 -6 47 7 14 9 34 16 45
16 11 0 23 5 26 10 8 13 27 13 61 0 25 -10 26 -12 9 -24 -11 -8 -15 -18 -10
-26 5 -8 -10 -28 -44 -60 -31 -29 -51 -55 -51 -69 0 -12 -8 -33 -17 -47 -22
-35 -7 -44 75 -44 110 0 159 36 146 105 -4 21 -2 35 4 35 12 0 22 -34 22 -76
0 -37 14 -51 55 -56 23 -2 32 2 40 19 5 12 19 23 30 25 14 2 21 12 23 31 3 23
-7 39 -47 82 -66 69 -67 95 -8 130 55 32 123 34 160 5 16 -12 34 -45 47 -85
12 -36 27 -68 33 -72 7 -4 52 -8 102 -9 68 -2 97 2 117 14 39 23 35 32 -12 32
-25 0 -40 5 -40 13 0 16 96 80 135 90 52 14 58 13 65 -13 7 -25 7 -25 11 5 4
28 7 30 62 38 40 6 63 5 72 -3 11 -9 12 -7 8 8 -3 15 2 21 23 26 18 5 30 3 36
-6 5 -8 11 -9 16 -3 4 6 27 12 51 13 l44 4 -7 -35 -6 -34 50 -5 c28 -3 58 -13
68 -22 18 -15 20 -15 37 4 12 13 25 18 41 14 19 -5 25 1 43 41 12 26 21 65 21
86 0 44 10 50 25 17 8 -19 17 -22 47 -20 31 3 40 -1 60 -28 42 -58 144 -89
216 -66 11 4 37 0 57 -9 21 -8 58 -15 84 -15 51 0 94 -23 89 -47 -2 -12 -18
-17 -63 -19 -57 -2 -62 0 -102 37 -23 21 -47 39 -52 39 -25 0 -69 -24 -106
-59 -23 -21 -52 -42 -64 -46 -22 -7 -28 -29 -11 -40 16 -10 12 -35 -10 -62
-29 -37 -25 -58 12 -74 30 -12 32 -11 60 21 25 30 31 33 48 22 30 -18 100 -14
150 9 88 41 150 57 237 64 96 6 135 -4 141 -40 2 -11 8 -36 13 -55 l9 -36 95
4 c81 4 95 2 95 -11 0 -14 23 -15 183 -13 100 1 204 -1 230 -6 27 -4 90 -28
140 -53 51 -24 112 -47 137 -51 25 -3 88 -14 140 -24 215 -42 267 -50 318 -50
29 0 79 -7 112 -17 58 -16 64 -15 163 5 134 29 143 28 162 -8 21 -40 80 -69
168 -80 39 -5 94 -16 121 -25 27 -8 67 -15 89 -15 22 0 56 -4 76 -9 20 -5 61
-15 93 -21 31 -6 87 -27 125 -45 49 -25 81 -35 115 -35 26 0 71 -9 100 -20 70
-26 124 -26 140 0 20 31 103 28 148 -5 39 -29 66 -31 98 -9 18 12 36 15 77 9
64 -8 111 12 121 50 11 44 59 57 110 30 32 -16 124 -21 124 -5 0 25 -25 60
-51 71 -31 12 -34 23 -19 65 20 52 61 67 105 38 33 -22 121 -44 176 -44 39 0
49 4 63 25 19 29 33 31 56 10 14 -13 22 -12 65 8 34 16 73 24 119 25 38 2 77
7 87 12 10 6 29 10 43 10 15 0 35 5 46 12 15 10 29 10 67 -1 26 -7 80 -19 118
-26 39 -7 91 -23 117 -36 41 -20 51 -21 71 -10 26 14 67 1 67 -20 0 -7 10 -9
25 -5 17 4 27 2 31 -8 10 -25 49 -26 120 -3 l69 22 3 42 c3 44 -14 71 -64 99
-17 10 -18 15 -7 43 10 28 9 41 -10 88 l-21 56 32 28 c25 23 42 29 77 29 41 0
47 -3 69 -38 54 -86 182 -98 259 -24 l27 26 30 -22 c35 -26 48 -27 79 -6 20
15 30 15 78 4 49 -12 59 -12 117 9 45 16 73 20 102 15 28 -4 73 2 147 20 64
16 134 26 174 26 234 -1 350 -7 369 -17 11 -7 31 -9 43 -6 14 4 30 -1 44 -14
48 -45 96 -55 134 -28 14 10 62 16 157 21 122 6 138 5 156 -11 11 -10 26 -15
36 -11 9 3 23 1 30 -5 8 -6 26 -9 41 -6 16 3 42 1 59 -5 18 -6 40 -8 50 -3 11
4 33 7 49 6 17 -1 108 16 204 38 137 31 178 37 192 28 14 -8 29 -8 61 0 37 10
45 10 56 -5 13 -18 6 -19 186 33 31 9 54 11 65 5 11 -6 22 -4 34 7 15 14 22
14 56 3 26 -8 63 -10 112 -6 92 8 123 -8 171 -90 18 -31 40 -60 48 -64 75 -38
124 -60 134 -60 7 0 23 11 36 25 31 33 54 32 81 -6 28 -40 82 -63 189 -83 47
-9 134 -30 194 -48 120 -36 166 -67 166 -112 0 -21 5 -26 25 -26 19 0 34 -12
57 -45 21 -30 43 -48 63 -53 18 -5 35 -19 43 -35 10 -21 19 -27 42 -25 38 3
62 -19 127 -119 36 -57 59 -83 72 -83 11 0 23 -5 26 -10 4 -6 31 -28 61 -51
32 -23 54 -47 54 -58 0 -10 7 -21 15 -24 8 -4 26 -25 41 -47 23 -35 26 -45 16
-61 -22 -35 -14 -57 31 -83 23 -14 47 -34 54 -44 6 -11 32 -31 57 -45 56 -31
118 -82 197 -161 32 -33 61 -57 63 -55 3 2 16 33 29 69 14 36 42 106 62 155
28 67 39 109 43 162 4 65 2 78 -27 140 -23 48 -35 92 -41 150 -11 100 -30 143
-66 143 -47 0 -64 17 -64 63 -1 57 -30 119 -75 153 -45 34 -43 60 10 129 20
27 44 76 56 118 12 40 29 86 39 102 27 46 418 788 425 806 5 13 -57 43 -320
159 -298 131 -332 149 -392 201 -35 32 -77 61 -93 64 -34 8 -54 29 -94 101
-25 43 -52 70 -131 129 -55 41 -148 100 -207 131 -58 30 -113 63 -121 72 -9
10 -17 46 -19 88 -5 70 -5 72 23 88 16 9 70 26 121 37 102 22 118 31 118 63 0
31 -17 50 -82 88 -37 22 -121 99 -251 234 -185 191 -198 206 -246 302 -35 70
-62 109 -87 129 -20 15 -60 49 -89 74 -39 34 -65 49 -96 54 -46 7 -89 29 -89
44 0 5 33 22 72 38 57 22 86 42 137 92 60 59 66 63 102 58 23 -3 63 -23 103
-52 84 -60 120 -66 185 -31 81 42 109 36 183 -38 47 -47 77 -53 162 -32 69 17
73 16 140 -3 48 -14 74 -17 87 -11 10 6 35 10 57 10 55 0 70 22 92 131 36 177
51 213 124 289 36 37 66 77 66 87 0 29 35 61 82 74 153 41 212 128 257 378 11
61 27 136 35 168 26 102 29 180 11 293 -9 58 -16 128 -15 155 4 127 2 135 -29
146 -17 6 -51 35 -77 65 -26 31 -70 68 -98 84 -28 16 -62 39 -75 51 -31 29
-58 92 -66 154 -11 89 -27 160 -38 173 -8 10 -26 12 -68 7 -55 -6 -61 -5 -118
30 -51 32 -177 75 -218 75 -9 0 -13 -14 -13 -42 0 -24 -5 -50 -10 -58 -8 -12
-14 -10 -39 14 -36 35 -55 27 -109 -47 -57 -77 -67 -83 -86 -55 -8 13 -18 40
-22 61 -6 34 -3 42 23 70 17 18 45 60 63 95 18 34 36 62 41 62 4 0 16 -12 26
-26 l19 -26 16 23 c8 13 23 47 33 74 19 54 55 95 84 95 10 0 38 -16 62 -35 59
-47 88 -46 143 5 24 22 46 40 50 40 4 0 11 -12 16 -26 12 -31 25 -25 34 17 8
42 23 59 52 59 19 0 24 5 24 26 0 60 55 123 94 108 11 -4 13 0 9 15 -3 13 4
31 20 51 14 16 28 39 32 50 9 28 50 26 82 -6 l25 -25 25 23 c14 13 55 61 90
108 35 47 75 91 89 98 28 15 31 27 8 36 -28 11 -11 41 26 46 31 5 35 8 33 33
-1 15 -11 41 -23 57 l-21 29 23 5 c13 3 59 7 104 10 161 10 299 75 351 164 25
42 28 55 26 132 -1 62 5 111 23 183 21 84 23 103 13 137 -16 51 -8 67 40 80
l41 11 -21 42 c-34 67 -85 123 -131 145 -33 15 -73 21 -173 26 -200 8 -227 22
-315 164 -74 120 -100 152 -107 134 -3 -7 -15 -25 -28 -40 l-23 -27 -15 38
c-12 28 -27 42 -60 56 -46 20 -56 34 -95 138 -33 87 -67 136 -138 198 l-67 59
70 12 c81 13 121 32 185 85 26 22 54 39 64 39 9 0 47 23 85 51 101 75 156 84
221 38 l27 -20 -2 173 -2 173 33 79 c18 43 41 91 52 106 22 31 27 99 9 132 -6
12 -31 48 -55 81 -39 52 -44 65 -44 112 0 29 7 72 15 95 24 69 20 97 -17 116
-42 21 -48 31 -48 76 0 26 -9 47 -34 77 -24 29 -37 56 -42 89 -11 77 -28 106
-90 153 -56 42 -61 49 -88 129 -43 127 -47 251 -12 364 14 46 26 105 26 130 0
44 -4 51 -70 121 -38 41 -70 81 -70 89 0 22 -3 21 -67 -28 -64 -49 -97 -82
-99 -99 -2 -33 -17 -97 -23 -97 -3 1 -18 11 -32 23 -34 28 -45 72 -23 85 13 7
16 19 12 53 l-5 44 42 -3 c33 -3 47 1 63 18 16 17 26 20 55 15 40 -8 40 -8 51
90 l6 51 -83 12 c-46 7 -110 12 -143 12 -32 0 -88 7 -124 15 -151 36 -210 29
-210 -23 0 -16 3 -32 6 -35 4 -4 7 -32 8 -63 l1 -57 61 -13 c74 -15 120 -37
135 -66 9 -17 8 -23 -5 -30 -9 -5 -14 -13 -11 -19 4 -5 0 -9 -8 -9 -9 0 -13
-12 -13 -40 1 -22 -1 -40 -5 -40 -3 0 -5 -16 -6 -36 -1 -19 -4 -38 -7 -41 -10
-11 -34 17 -40 48 -3 18 -28 54 -61 87 -50 51 -57 55 -68 40 -10 -13 -25 -15
-72 -12 -49 3 -62 1 -77 -16 -10 -11 -23 -20 -28 -20 -6 0 -10 -7 -10 -16 0
-31 -96 5 -110 41 -8 22 -13 24 -30 15 -11 -6 -20 -7 -20 -3 0 16 31 53 44 53
8 0 17 7 20 15 8 21 -22 31 -45 17 -38 -24 -79 -8 -79 30 0 10 2 18 3 18 11 0
185 -39 198 -45 12 -4 30 7 58 36 35 35 46 40 70 36 56 -11 72 24 57 120 l-8
52 -51 5 c-29 3 -83 8 -122 12 -40 3 -98 17 -135 32 -55 23 -80 27 -165 27
-55 0 -113 4 -130 7 -16 4 -6 0 23 -10 53 -18 88 -52 79 -76 -3 -8 -61 -27
-139 -45 -73 -18 -149 -38 -168 -46 -19 -8 -48 -14 -64 -13 -38 4 -57 -23 -33
-50 13 -14 14 -21 5 -30 -21 -21 -36 -14 -90 42 l-53 53 -35 -24 c-28 -20 -43
-23 -80 -19 -37 4 -54 -1 -97 -25 -29 -16 -61 -29 -70 -29 -10 0 -25 -6 -34
-13 -11 -8 -41 -10 -94 -7 l-79 5 -43 53 c-34 42 -43 61 -43 91 0 42 -9 53
-55 68 -16 5 -35 19 -41 31 -8 17 -13 19 -23 9 -9 -9 -14 -9 -21 3 -7 11 -5
19 7 27 14 11 13 13 -8 22 -32 12 -60 44 -98 112 l-31 56 -81 22 c-45 12 -83
21 -85 19 -7 -8 58 -78 72 -78 18 0 18 -2 -3 -45 -21 -44 -45 -52 -93 -30 -37
17 -39 16 -67 -4 -23 -18 -34 -20 -55 -12 -14 5 -28 17 -32 26 -4 13 -13 15
-35 10 -56 -12 -108 39 -96 95 4 16 13 30 20 30 20 0 28 18 36 75 4 28 10 67
14 89 l8 38 -131 -5 c-103 -4 -135 -2 -151 9 -14 10 -33 12 -61 8 -36 -6 -41
-9 -36 -28 18 -63 19 -76 2 -76 -9 0 -31 7 -47 16 -17 8 -32 14 -34 12 -2 -2
0 -23 5 -48 4 -25 6 -48 4 -52 -10 -15 -109 -5 -136 14 -33 23 -34 23 -69 -6
-38 -32 -111 -44 -142 -23 -13 9 -30 29 -37 46 -7 17 -16 31 -21 31 -16 0 -9
-40 16 -90 32 -63 33 -94 4 -85 -17 6 -20 3 -17 -17 2 -16 9 -22 21 -20 39 7
64 -41 27 -51 -42 -11 -22 -61 58 -146 37 -40 39 -47 13 -61 -48 -25 -150 -3
-199 43 -34 32 -62 91 -62 132 0 19 -11 68 -25 107 -17 48 -25 93 -25 136 0
62 -1 66 -46 115 -26 29 -74 71 -109 94 -80 54 -96 87 -65 138 l22 35 -22 0
c-32 0 -60 -18 -60 -39 0 -10 -9 -30 -21 -45 -18 -22 -28 -26 -75 -26 -53 0
-58 2 -110 51 -49 47 -54 56 -54 95 0 39 -3 44 -23 44 -17 0 -28 -11 -42 -42
-18 -38 -24 -43 -59 -46 -29 -3 -48 3 -77 24 -22 15 -38 33 -35 39 6 16 -5 31
-30 39 -19 6 -21 3 -20 -31 l1 -38 -45 -3 c-44 -2 -46 -1 -75 45 l-30 48 -3
-47 c-3 -40 -6 -48 -23 -48 -18 0 -24 17 -20 61 1 9 -14 35 -33 58 -19 22 -36
46 -39 53 -3 9 -11 5 -24 -12 -18 -21 -23 -22 -37 -11 -9 7 -16 22 -16 32 0
17 -3 18 -20 7 -27 -17 -50 -2 -75 50 -14 28 -38 53 -78 79 -37 24 -55 42 -52
52 8 21 -14 41 -75 68 -32 14 -72 43 -97 70 -35 37 -46 44 -65 38 -13 -4 -36
-9 -53 -12 -16 -3 -41 -14 -55 -24 -25 -19 -25 -19 -108 23 -53 26 -88 50 -95
65 -9 19 -15 22 -42 17 -26 -5 -34 -1 -48 19 -18 28 -82 61 -103 53 -8 -3 -34
4 -57 15 -32 17 -45 19 -59 10 -15 -9 -32 -5 -91 23 -40 20 -113 45 -162 57
-49 11 -145 43 -212 70 -138 56 -217 69 -310 50 -54 -10 -83 -7 -133 13 -10 4
-31 -9 -60 -35z m6250 -6078 l0 -1529 -72 30 c-40 17 -77 34 -82 39 -16 15 0
20 29 9 15 -6 30 -8 32 -6 8 8 -87 104 -139 143 -27 19 -51 33 -53 31 -3 -2 4
-30 15 -61 26 -73 26 -90 1 -82 -11 3 -51 15 -91 26 -82 22 -210 94 -210 118
0 12 -2 13 -8 3 -5 -7 -16 -10 -25 -6 -15 5 -15 8 -1 37 27 53 37 62 45 40 7
-17 8 -17 8 2 1 34 30 64 67 71 25 5 32 10 25 17 -18 18 -14 23 53 76 55 44
70 51 108 51 53 0 61 -6 45 -31 -16 -25 7 -47 59 -59 85 -20 204 -5 144 18
-14 5 -48 13 -75 16 -71 10 -77 15 -63 53 14 38 6 61 -27 73 -14 5 -25 16 -25
25 0 29 -25 14 -139 -80 -80 -66 -120 -93 -133 -89 -13 4 -19 -2 -24 -21 -8
-34 -39 -54 -158 -105 -92 -39 -103 -41 -138 -31 l-37 12 6 82 c4 64 11 91 32
124 23 36 31 42 71 45 25 3 49 1 55 -4 11 -10 55 -11 55 0 -1 22 -29 205 -32
208 -9 8 -47 -10 -52 -25 -3 -9 -2 2 2 24 4 22 7 72 7 110 0 45 7 84 18 107 9
21 17 45 17 53 0 9 5 13 10 10 6 -3 10 -24 10 -47 0 -31 3 -39 14 -35 8 3 31
9 51 13 26 4 40 14 51 36 15 29 14 30 -35 93 -28 36 -51 67 -51 70 0 3 11 10
25 15 22 8 24 13 15 29 -15 29 -13 31 23 31 27 0 42 11 95 70 35 39 60 70 55
70 -4 0 -50 -10 -102 -22 -80 -19 -94 -26 -103 -48 l-9 -25 -18 24 -18 24 -30
-22 c-24 -18 -34 -20 -57 -11 -21 8 -35 7 -61 -6 -32 -15 -32 -16 -23 -56 5
-23 11 -44 13 -48 4 -7 -65 -50 -80 -50 -4 0 -3 19 1 43 4 23 12 87 19 142 11
94 12 97 20 57 4 -25 12 -41 19 -39 6 2 28 10 49 18 31 11 37 18 37 42 0 31
-58 105 -162 207 -47 47 -48 47 -28 65 20 18 21 18 56 -16 52 -50 61 -69 38
-86 -21 -15 -11 -17 17 -3 18 10 18 12 3 35 -16 25 -16 25 15 25 27 0 36 9 79
73 71 105 69 100 25 82 -21 -9 -66 -28 -100 -42 -54 -22 -63 -29 -63 -51 0
-24 -1 -24 -18 -9 -25 23 -34 21 -61 -7 -14 -14 -30 -22 -44 -19 -12 2 -36 -5
-54 -16 -29 -18 -31 -23 -23 -52 5 -17 16 -42 25 -55 8 -13 15 -25 15 -28 0
-2 -204 -163 -452 -357 -249 -194 -461 -359 -470 -367 -14 -12 -21 -12 -33 -2
-18 15 -45 6 -45 -15 0 -8 -9 -15 -20 -15 -11 0 -20 2 -20 4 0 2 230 176 510
386 281 211 508 385 506 387 -3 3 -26 -12 -53 -32 l-48 -37 -11 69 c-7 37 -11
68 -10 69 0 0 13 8 28 17 15 9 33 17 41 17 11 0 37 38 37 54 0 1 -32 25 -71
52 l-71 48 28 23 c27 21 27 23 11 41 -23 25 -22 29 11 35 24 5 33 18 65 91 20
47 37 87 37 90 0 3 -41 -20 -90 -52 -52 -33 -90 -63 -89 -72 3 -30 -1 -32 -25
-16 -24 15 -26 15 -43 -14 -14 -25 -24 -30 -55 -30 -24 0 -46 -8 -64 -23 l-27
-24 31 -46 31 -47 -135 -145 c-75 -80 -138 -145 -141 -145 -3 0 -3 12 0 28 l6
27 -12 -27 c-8 -22 -18 -28 -40 -28 l-29 0 25 43 c13 23 43 77 67 120 23 43
44 76 46 74 2 -2 -3 -23 -11 -47 -8 -24 -13 -45 -11 -47 8 -8 35 88 29 104 -4
10 -2 14 4 10 10 -6 48 81 40 90 -2 2 -39 -62 -83 -142 -70 -130 -82 -145
-102 -142 -21 4 -32 -12 -112 -172 -80 -159 -119 -227 -120 -210 0 4 33 95 74
203 56 148 70 196 59 196 -10 0 -13 6 -9 18 55 147 101 251 106 236 4 -11 11
5 19 45 7 35 11 65 8 67 -2 2 -29 -61 -61 -140 -51 -129 -60 -145 -83 -148
-23 -3 -31 -18 -96 -205 -40 -111 -73 -200 -75 -198 -2 2 13 74 33 159 32 133
40 156 56 156 12 0 19 7 18 18 0 10 -3 12 -6 5 -7 -19 -33 -16 -33 3 0 9 9 52
20 96 12 44 19 85 17 91 -1 5 -11 -27 -22 -71 -17 -78 -20 -82 -46 -82 -26 0
-27 -2 -59 -137 -17 -76 -35 -149 -39 -163 -7 -23 -36 286 -34 355 1 17 -3 66
-8 110 -21 159 -21 158 11 183 l29 23 -13 -33 c-34 -82 -31 -86 21 -35 27 26
53 47 57 47 5 0 6 -27 3 -60 -3 -33 -2 -60 3 -60 15 0 52 103 48 136 -5 39 -1
41 19 17 13 -16 14 -11 9 40 -3 34 -1 55 5 52 19 -12 8 14 -27 64 l-35 52 30
-15 c37 -20 41 -20 41 0 0 35 25 4 28 -35 3 -41 22 -49 22 -10 0 11 5 17 10
14 6 -3 10 -16 10 -28 0 -12 4 -28 9 -36 7 -11 12 -3 21 29 l11 43 35 -34 c25
-24 34 -29 34 -16 0 27 -30 108 -56 149 -19 29 -22 43 -15 56 10 16 10 16 11
0 0 -10 5 -18 10 -18 6 0 10 5 10 10 0 19 18 10 25 -12 7 -22 8 -21 15 7 l7
30 23 -53 23 -54 18 23 17 22 7 -24 c8 -23 8 -23 16 -4 7 19 8 19 8 1 1 -15 4
-16 16 -6 9 7 22 9 32 5 10 -5 21 -7 26 -7 4 1 7 -2 7 -8 0 -20 18 -9 24 15 6
25 7 25 36 10 83 -43 -15 55 -118 118 -40 25 -110 60 -155 78 -92 36 -102 42
-92 59 5 8 14 5 31 -11 20 -19 24 -20 24 -6 0 24 15 21 34 -7 10 -16 22 -23
35 -19 10 3 28 0 40 -7 17 -9 22 -8 27 5 9 23 23 18 30 -10 7 -28 14 -31 32
-13 6 6 13 10 15 7 2 -2 16 -21 32 -42 l28 -38 12 27 11 28 13 -47 c8 -26 17
-47 20 -47 4 0 12 12 18 28 11 27 11 27 12 -10 1 -46 14 -49 31 -7 l13 30 33
-32 c30 -29 34 -31 34 -12 0 29 -20 83 -42 116 -13 18 -59 47 -134 82 -63 30
-114 60 -114 65 0 6 12 4 30 -5 41 -21 53 -19 45 8 -5 16 4 10 30 -20 39 -46
61 -55 52 -23 -6 25 1 25 33 0 32 -25 44 -25 30 -1 -17 32 -12 33 23 7 41 -31
50 -33 42 -6 -6 19 -6 19 36 1 54 -24 75 -18 51 14 -25 34 -89 73 -152 93 -73
23 -342 23 -444 0 -57 -13 -66 -13 -50 -1 19 14 107 43 131 43 7 0 13 5 13 11
0 6 7 8 15 5 51 -20 49 -21 42 13 l-7 32 29 -20 c37 -26 45 -26 31 -1 -11 20
-11 20 27 4 21 -9 47 -19 58 -22 19 -5 19 -5 2 21 l-17 27 26 -10 c14 -6 37
-10 52 -10 26 1 27 1 7 16 -37 30 -125 64 -193 75 -132 22 -297 -30 -425 -135
-31 -25 -59 -46 -62 -46 -3 0 -5 18 -5 40 0 38 2 40 30 40 42 0 57 30 63 128
6 92 0 103 -60 128 -45 19 -123 19 -123 -1 0 -8 5 -15 11 -15 18 0 4 -66 -20
-97 -31 -38 -27 -68 14 -100 32 -26 35 -32 35 -80 0 -29 -2 -53 -5 -53 -3 0
-33 23 -67 51 -139 112 -294 162 -430 140 -68 -11 -156 -45 -193 -75 -20 -15
-19 -15 7 -16 15 0 38 4 52 10 l26 10 -17 -27 c-17 -25 -17 -26 7 -18 14 4 37
14 52 21 35 18 43 18 28 -1 -21 -25 -3 -29 29 -6 l31 22 -7 -32 c-5 -26 -3
-31 8 -27 8 4 22 9 32 13 10 4 17 3 17 -3 0 -6 17 -14 38 -18 36 -7 122 -40
122 -47 0 -2 -28 2 -62 10 -94 20 -301 28 -383 14 -86 -14 -187 -62 -215 -101
l-21 -30 28 0 c16 0 38 7 49 15 26 20 33 19 27 -5 -7 -26 1 -25 43 6 35 27 41
26 24 -7 -14 -25 -5 -24 28 2 l27 21 3 -28 4 -29 45 50 c31 35 42 43 38 28 -8
-27 4 -29 45 -8 17 9 30 11 30 6 0 -6 -52 -35 -115 -66 -128 -61 -162 -96
-172 -177 l-6 -43 35 33 35 33 13 -30 c15 -37 30 -31 31 12 l1 32 11 -27 c15
-39 22 -35 37 18 l13 46 11 -28 12 -27 17 24 c41 59 46 63 61 49 13 -10 17 -8
27 14 14 30 24 33 33 11 5 -13 10 -14 27 -5 12 7 29 10 40 7 12 -3 24 4 35 21
15 23 18 24 29 9 11 -16 14 -15 30 3 13 14 22 17 29 10 14 -14 2 -22 -88 -58
-43 -17 -106 -47 -141 -66 -97 -55 -223 -177 -135 -131 29 15 30 15 36 -10 7
-29 24 -34 25 -7 0 9 3 12 6 5 3 -10 9 -10 24 0 16 10 21 9 29 -3 9 -13 11
-13 20 0 9 13 10 13 10 0 1 -10 5 -7 13 7 l12 23 14 -22 c13 -22 15 -20 39 32
25 55 25 55 32 25 6 -30 6 -30 14 -6 8 23 10 23 21 8 12 -16 13 -16 19 5 7 22
7 22 15 3 6 -14 1 -30 -15 -55 -27 -40 -54 -113 -54 -143 0 -19 3 -18 33 11
l34 33 12 -42 c10 -31 15 -39 22 -28 5 8 9 24 9 37 0 12 4 22 9 22 5 0 12 -10
16 -22 7 -19 9 -16 14 21 3 25 12 46 20 49 10 3 12 0 8 -12 -8 -20 5 -20 44
-1 l30 16 -36 -49 c-33 -46 -46 -80 -27 -68 5 3 7 -18 4 -47 -5 -47 -4 -51 11
-38 15 12 17 9 17 -29 0 -38 35 -130 49 -130 3 0 4 27 3 60 -2 36 0 60 6 60 6
0 29 -21 52 -47 36 -41 41 -52 35 -78 -10 -43 -13 -73 -20 -230 -4 -77 -10
-164 -13 -194 l-7 -54 -29 126 c-29 125 -30 127 -57 127 -23 0 -29 6 -38 38
-10 33 -10 34 -6 5 3 -18 8 -47 12 -65 6 -28 4 -31 -15 -26 -12 4 -22 2 -22
-3 0 -5 8 -9 18 -9 15 0 24 -26 56 -156 20 -86 35 -158 33 -160 -2 -2 -23 52
-46 119 -107 301 -100 286 -128 289 -23 3 -32 19 -84 148 -54 136 -68 156 -53
81 4 -17 10 -28 15 -25 5 3 7 -8 5 -23 -2 -15 -1 -19 1 -8 3 13 24 -27 59
-115 30 -74 54 -135 54 -136 0 -2 -6 -4 -13 -6 -10 -2 7 -57 60 -198 40 -107
71 -199 70 -205 -2 -5 -49 81 -105 191 -96 191 -102 201 -127 197 -14 -3 -25
-1 -25 4 0 5 -7 18 -16 29 -8 10 -2 -7 14 -38 l30 -58 -28 0 c-25 0 -30 6 -45
51 -9 28 -19 48 -21 46 -2 -2 3 -23 11 -47 8 -24 14 -45 12 -47 -2 -2 -66 62
-141 141 l-137 144 31 49 31 48 -26 23 c-17 14 -39 22 -63 22 -30 0 -41 6 -57
30 -18 27 -21 28 -42 15 -30 -20 -33 -19 -33 10 0 20 -16 35 -82 79 -46 29
-85 52 -87 50 -2 -2 13 -42 34 -89 33 -74 43 -87 67 -92 33 -6 34 -10 11 -36
-17 -18 -17 -20 10 -39 l28 -20 -63 -45 c-35 -25 -67 -49 -72 -54 -13 -12 13
-59 33 -59 9 0 25 -7 35 -15 10 -8 23 -12 29 -8 5 3 7 -3 4 -13 -3 -11 -9 -45
-13 -76 -3 -32 -9 -58 -11 -58 -4 0 -63 43 -95 69 -4 4 -1 24 6 46 13 37 13
40 -11 58 -13 11 -38 20 -54 22 -16 1 -42 14 -57 28 l-28 27 -22 -22 -22 -22
0 21 c0 11 -6 25 -12 31 -15 12 -182 81 -186 77 -1 -1 22 -39 53 -84 49 -70
60 -81 86 -81 29 0 29 0 14 -24 -15 -23 -15 -25 4 -35 11 -6 23 -11 28 -11 4
1 -2 6 -14 13 l-22 12 32 42 c46 59 64 69 89 47 19 -18 19 -19 -16 -49 -20
-16 -68 -67 -109 -113 -88 -100 -92 -126 -24 -155 23 -9 45 -17 48 -17 4 0 10
19 14 43 8 40 9 38 17 -43 4 -47 13 -109 18 -139 5 -30 8 -56 6 -59 -3 -2 -23
6 -45 19 -34 19 -40 26 -34 43 4 12 7 34 8 51 0 39 -39 61 -81 45 -23 -9 -33
-7 -58 11 l-29 22 -18 -21 c-22 -28 -25 -27 -33 1 -5 20 -18 26 -83 41 -43 10
-89 20 -103 24 -20 4 -14 -6 39 -66 55 -62 69 -72 97 -72 32 0 33 -1 24 -26
-13 -34 -13 -34 9 -34 36 0 31 -17 -20 -84 -49 -62 -50 -67 -38 -95 10 -22 22
-30 50 -35 21 -3 44 -9 53 -12 13 -5 16 2 16 42 0 55 9 50 35 -21 12 -31 20
-79 20 -125 1 -41 4 -86 7 -100 3 -14 3 -20 1 -14 -6 17 -46 25 -54 12 -4 -6
-10 -38 -13 -72 -4 -33 -10 -78 -13 -98 -5 -35 -4 -38 19 -38 13 0 28 4 33 9
6 4 29 6 53 3 36 -3 47 -10 71 -46 23 -34 29 -55 34 -122 l5 -81 -39 -12 c-37
-11 -46 -9 -147 34 -104 45 -152 80 -152 111 0 10 -6 13 -19 9 -13 -4 -49 20
-132 90 -110 92 -139 109 -139 83 0 -7 -14 -21 -30 -30 -32 -18 -38 -44 -19
-80 6 -11 8 -22 5 -25 -2 -3 -37 -11 -77 -19 -83 -16 -105 -29 -64 -40 70 -17
215 18 202 49 -20 49 -22 47 33 47 48 0 58 -4 116 -52 68 -55 70 -58 53 -75
-7 -7 -1 -12 24 -17 35 -7 76 -44 70 -63 -3 -7 1 -29 6 -50 9 -29 8 -40 -1
-46 -145 -88 -238 -123 -388 -142 -31 -4 -78 -20 -109 -37 -29 -16 -55 -27
-58 -25 -2 3 -1 685 3 1516 l7 1511 2214 0 2213 0 0 -1529z m-2199 1257 c-1
-5 -1 -76 -1 -160 0 -152 0 -152 -20 -133 -19 19 -19 29 -13 163 5 115 9 142
20 140 8 -2 14 -6 14 -10z m-321 -287 c0 -5 -7 -12 -16 -15 -14 -5 -15 -4 -4
9 14 17 20 19 20 6z m627 -18 c-8 -7 -37 9 -31 19 3 5 12 4 20 -3 8 -6 13 -14
11 -16z m-511 -134 c-2 -49 -66 -78 -66 -30 0 25 11 33 27 20 10 -9 13 -7 13
8 0 11 3 23 7 26 14 14 21 6 19 -24z m385 19 c1 -7 1 -19 0 -25 -2 -15 15 -17
24 -3 9 15 25 2 25 -20 0 -49 -64 -21 -66 29 -2 29 15 46 17 19z m-547 -43
c-15 -22 -31 -36 -21 -17 2 4 7 15 10 25 4 9 11 17 17 17 6 0 3 -11 -6 -25z
m700 9 c10 -25 -1 -29 -14 -5 -6 12 -7 21 -1 21 5 0 12 -7 15 -16z m-574 -74
c-27 -20 -36 -19 -27 5 4 8 17 15 29 15 l23 0 -25 -20z m466 5 c11 -28 -1 -32
-26 -9 l-25 24 23 0 c12 0 25 -7 28 -15z m-506 -51 c0 -8 -4 -12 -10 -9 -5 3
-10 10 -10 16 0 5 5 9 10 9 6 0 10 -7 10 -16z m534 1 c-4 -8 -8 -15 -10 -15
-2 0 -4 7 -4 15 0 8 4 15 10 15 5 0 7 -7 4 -15z m-205 -47 c-8 -14 -14 -18
-17 -10 -4 13 17 46 25 38 3 -2 -1 -15 -8 -28z m-149 -74 c0 -8 -4 -12 -10 -9
-5 3 -10 10 -10 16 0 5 5 9 10 9 6 0 10 -7 10 -16z m163 -15 c-17 -29 -18 -29
-21 -8 -2 12 2 26 10 30 25 16 29 9 11 -22z m-1101 -80 c25 -16 38 -32 38 -46
0 -13 1 -26 2 -30 2 -11 -29 -16 -58 -9 -18 5 -32 24 -54 73 -16 36 -30 68
-30 70 0 5 42 -19 102 -58z m2123 26 c-8 -19 -22 -51 -30 -70 -11 -25 -24 -37
-48 -43 -39 -11 -53 -2 -52 33 1 22 15 36 70 71 38 24 70 44 72 44 2 0 -4 -16
-12 -35z m-1031 -20 c-9 -24 -38 -35 -88 -35 -34 0 -46 4 -46 15 0 11 12 15
45 15 29 0 45 -4 45 -12 0 -7 10 -2 22 10 27 26 29 27 22 7z m-151 -81 c-7
-20 -10 -18 -22 18 -11 30 -11 31 8 14 11 -10 17 -24 14 -32z m113 9 c3 -16 7
-34 10 -40 2 -10 -13 -13 -56 -13 -64 0 -68 4 -54 58 5 18 13 22 50 22 39 0
44 -3 50 -27z m-933 -17 c15 -22 14 -24 -32 -60 -55 -41 -62 -43 -84 -18 -16
17 -15 20 11 44 31 28 73 58 83 58 4 0 14 -11 22 -24z m1876 -16 c28 -22 51
-43 51 -45 0 -2 -11 -12 -25 -21 -24 -16 -26 -15 -74 21 -48 37 -49 39 -34 61
8 13 19 24 23 24 5 0 31 -18 59 -40z m-936 -47 c3 -5 8 -23 12 -40 l7 -33 -71
0 c-39 0 -71 4 -71 9 0 5 3 23 6 40 6 30 8 31 60 31 29 0 55 -3 57 -7z m-1422
-107 c25 -10 38 -23 41 -40 6 -32 -8 -46 -46 -46 -27 1 -38 10 -79 70 l-48 70
48 -19 c26 -11 64 -26 84 -35z m2837 -18 c-33 -48 -50 -64 -71 -66 -38 -5 -57
13 -48 44 5 19 22 32 71 54 36 15 71 28 78 29 8 1 -6 -27 -30 -61z m-1922
-353 c324 -348 354 -383 354 -415 l0 -35 -24 25 c-14 14 -180 198 -370 409
-304 339 -363 412 -324 399 5 -2 169 -174 364 -383z m524 368 c0 -10 3 -28 6
-40 6 -23 5 -23 -79 -23 l-85 0 10 40 10 40 69 0 c59 0 69 -3 69 -17z m783 4
c2 -7 -744 -840 -748 -835 -2 2 0 20 4 41 5 32 56 91 365 423 197 211 363 383
368 382 5 -2 10 -7 11 -11z m-783 -96 c0 -5 3 -23 6 -40 l7 -31 -88 0 c-75 0
-86 2 -81 16 3 9 6 27 6 40 0 23 2 24 75 24 41 0 75 -4 75 -9z m-337 -177 c27
-76 73 -209 103 -294 l55 -155 -41 41 c-36 35 -51 66 -121 254 -58 153 -77
215 -68 220 9 6 9 16 1 38 -11 31 -6 45 12 39 5 -2 32 -66 59 -143z m628 133
c0 -4 -4 -19 -7 -33 -4 -15 -2 -29 5 -33 7 -5 -15 -76 -69 -221 -67 -177 -87
-221 -117 -252 -20 -21 -38 -36 -40 -35 -2 3 157 456 196 560 10 25 34 35 32
14z m-507 -169 c30 -126 36 -171 35 -253 l-1 -100 -53 214 c-58 236 -65 291
-36 291 16 0 25 -25 55 -152z m381 105 c-2 -27 -17 -105 -34 -176 -17 -70 -29
-140 -26 -155 4 -18 3 -21 -3 -9 -6 13 -14 -8 -31 -77 -12 -53 -24 -96 -26
-96 -2 0 -1 48 2 108 6 149 75 452 103 452 17 0 19 -6 15 -47z m-155 10 c0
-10 3 -28 6 -40 6 -23 5 -23 -85 -23 l-91 0 0 40 0 40 85 0 c74 0 85 -2 85
-17z m-210 -769 c12 -12 11 -14 -8 -14 -13 0 -22 6 -22 15 0 21 -27 30 -45 15
-10 -8 -19 -9 -27 -3 -7 6 -221 172 -475 370 -319 249 -458 364 -451 371 7 7
165 -105 512 -365 275 -207 508 -382 516 -389z m-222 573 l83 -162 -57 60
c-54 57 -97 133 -114 200 -4 17 -11 38 -15 48 -5 11 -3 17 6 17 8 0 51 -73 97
-163z m827 146 c-4 -10 -11 -31 -15 -48 -16 -62 -62 -142 -115 -200 l-56 -60
81 163 c54 108 85 162 96 162 11 0 14 -5 9 -17z m-383 -68 l3 -45 -98 0 c-86
0 -98 2 -93 16 3 9 6 29 6 45 l0 29 89 0 89 0 4 -45z m-525 -35 l24 -55 -56
55 c-30 30 -55 57 -55 61 0 4 14 4 31 0 27 -5 36 -15 56 -61z m955 43 c-11
-16 -37 -44 -57 -63 -36 -34 -36 -35 -26 -7 24 63 41 86 68 90 16 2 29 5 31 6
2 0 -6 -11 -16 -26z m-2111 -121 c12 -33 2 -48 -34 -50 -27 -2 -41 7 -91 57
l-59 59 88 -22 c71 -17 90 -26 96 -44z m1689 13 l0 -45 -100 0 -100 0 0 45 0
45 100 0 100 0 0 -45z m1630 -10 c-47 -48 -59 -55 -88 -53 -39 3 -47 14 -34
48 7 19 23 28 73 41 106 28 110 26 49 -36z m-3230 -10 c9 -11 6 -23 -19 -59
-37 -54 -41 -57 -69 -49 l-21 5 21 42 c37 73 63 92 88 61z m3090 -32 c17 -26
30 -52 30 -59 0 -11 -38 -31 -44 -22 -60 81 -68 98 -56 113 21 25 39 17 70
-32z m-1490 -17 c0 -7 3 -28 6 -45 l7 -31 -107 0 -106 0 0 45 0 45 100 0 c78
0 100 -3 100 -14z m-1150 -250 l325 -173 30 24 c17 13 35 28 42 33 9 7 13 -4
15 -47 2 -46 7 -59 21 -61 14 -3 17 4 17 42 0 54 10 62 50 41 36 -18 47 -54
30 -96 -7 -16 -10 -33 -6 -37 4 -4 82 -47 174 -97 162 -87 190 -111 165 -136
-10 -10 -154 65 -161 82 -2 4 -19 13 -38 19 -23 8 -34 18 -34 31 0 15 -7 19
-30 19 -17 0 -43 6 -59 14 -25 13 -28 13 -39 -5 -7 -10 -17 -19 -23 -19 -6 0
-1 12 10 26 12 15 21 40 21 56 0 25 -2 27 -19 18 -11 -5 -38 -10 -61 -10 -23
0 -50 5 -61 10 -24 13 -25 -5 -4 -58 15 -34 15 -36 0 -21 -9 9 -19 36 -22 60
-3 24 -10 49 -15 56 -5 7 -73 47 -150 89 -78 43 -152 90 -166 106 -15 16 -35
28 -50 28 -21 0 -163 72 -280 142 -28 17 -36 38 -14 38 4 0 153 -78 332 -174z
m2465 165 c9 -16 -275 -171 -313 -171 -24 0 -35 -6 -43 -24 -15 -31 -318 -201
-338 -189 -7 5 -14 12 -15 17 -1 7 680 375 696 376 4 0 9 -4 13 -9z m-1311
-10 c3 -5 3 -23 0 -40 l-6 -31 -99 0 -99 0 0 40 0 40 99 0 c55 0 102 -4 105
-9z m-4 -121 l0 -40 -94 0 -94 0 -4 40 -4 40 98 0 98 0 0 -40z m-1129 -100
c34 -56 34 -54 4 -68 -34 -16 -30 -18 -59 32 -29 49 -32 72 -13 79 25 11 41 1
68 -43z m1125 28 c-3 -13 -6 -33 -6 -45 0 -22 -4 -23 -84 -23 -91 0 -95 3 -96
68 0 21 3 22 96 22 95 0 96 0 90 -22z m1025 6 c11 -13 9 -23 -12 -61 -30 -55
-31 -56 -64 -41 -28 13 -28 18 10 77 27 44 45 50 66 25z m-1701 -62 c0 -4 -16
-6 -35 -4 -19 2 -35 6 -35 8 0 2 16 4 35 4 19 0 35 -4 35 -8z m670 -36 c0 -7
-3 -28 -6 -45 l-6 -31 -73 0 c-79 0 -85 4 -85 61 l0 29 85 0 c65 0 85 -3 85
-14z m558 -33 c-10 -2 -26 -2 -35 0 -10 3 -2 5 17 5 19 0 27 -2 18 -5z m-77
-19 c-15 -11 -21 -23 -18 -35 3 -11 1 -17 -4 -13 -5 3 -9 10 -9 16 0 15 30 48
44 48 6 0 0 -7 -13 -16z m119 -9 c0 -8 11 -26 24 -40 32 -35 42 -86 19 -102
-9 -7 -27 -13 -40 -13 -13 0 -23 -4 -23 -10 0 -11 -25 -25 -62 -34 -32 -7 -37
8 -14 40 12 16 18 17 34 7 11 -6 23 -8 28 -3 5 5 23 11 39 13 25 4 23 5 -10 5
-87 0 -83 -3 -87 53 -3 54 13 77 43 58 28 -18 41 -10 37 20 -2 17 -1 28 4 25
4 -3 8 -11 8 -19z m-912 -75 c9 -8 12 -5 12 14 0 13 7 27 15 30 17 6 20 0 29
-51 5 -28 2 -33 -13 -33 -11 0 -21 5 -23 10 -2 6 -21 -5 -42 -25 -21 -19 -41
-35 -45 -35 -8 1 -51 86 -51 102 0 6 7 19 16 29 15 16 18 16 52 -7 20 -13 43
-28 50 -34z m568 34 c17 -25 16 -28 -12 -79 l-29 -54 -42 45 c-26 26 -43 38
-43 29 0 -16 -36 -21 -42 -6 -1 6 -22 11 -45 12 -35 2 -50 12 -25 15 4 0 15 4
26 9 11 5 26 4 37 -3 15 -10 18 -8 21 14 4 31 20 34 34 6 11 -22 11 -22 55 7
24 16 45 30 46 30 2 1 10 -11 19 -25z m-266 -8 c0 -51 -8 -56 -81 -56 l-69 0
0 40 0 40 75 0 c73 0 75 -1 75 -24z m-1571 -35 c0 -9 -6 -50 -13 -91 -9 -59
-15 -76 -30 -78 -15 -3 -18 1 -13 20 3 12 9 55 12 93 4 39 9 73 12 77 7 13 33
-4 32 -21z m3047 -74 c6 -50 10 -94 8 -96 -2 -2 -9 -1 -17 2 -8 3 -18 38 -26
92 -11 73 -11 89 0 96 7 4 16 6 18 3 3 -2 10 -46 17 -97z m-1661 83 c4 -6 11
-7 17 -4 7 4 8 2 4 -4 -11 -18 -76 -15 -76 3 0 17 45 21 55 5z m685 -25 c0
-19 -10 -29 -40 -45 -21 -11 -53 -20 -70 -20 -23 0 -30 -5 -30 -18 0 -12 -14
-25 -37 -35 -21 -10 -69 -37 -108 -61 -83 -53 -95 -55 -95 -18 1 25 15 34 183
124 100 53 185 97 190 97 4 1 7 -10 7 -24z m-1942 -11 c2 -1 1 -33 -3 -69 l-8
-67 -58 4 c-32 2 -61 7 -64 10 -3 3 -1 35 6 72 l11 66 57 -6 c31 -4 58 -8 59
-10z m38 -18 c-2 -11 -8 -47 -11 -78 -4 -32 -12 -58 -17 -58 -7 0 -8 15 -4 38
3 20 6 58 6 84 0 39 3 46 16 41 10 -4 14 -13 10 -27z m2694 -28 c0 -35 3 -73
6 -85 4 -13 2 -23 -4 -23 -11 0 -35 147 -26 161 14 24 24 3 24 -53z m138 -5
c6 -37 9 -69 6 -72 -2 -3 -31 -7 -63 -9 l-58 -4 -6 38 c-4 22 -7 53 -7 71 0
31 1 32 48 36 26 2 52 4 58 5 6 1 16 -27 22 -65z m-2437 42 c24 -9 54 -23 67
-31 22 -14 22 -17 8 -33 -16 -17 -19 -17 -63 5 -86 44 -222 26 -290 -37 -18
-17 -25 -19 -43 -9 -21 11 -21 12 -4 31 70 77 219 111 325 74z m854 -6 c10
-30 4 -30 -30 -3 l-30 24 27 0 c18 0 29 -7 33 -21z m197 -4 c-17 -14 -33 -25
-36 -25 -3 0 -6 11 -6 25 0 22 4 25 36 25 l36 0 -30 -25z m1040 5 c29 -11 70
-34 91 -51 37 -31 38 -32 18 -46 -19 -13 -24 -12 -54 11 -81 62 -196 75 -280
32 -44 -22 -47 -22 -62 -6 -20 22 -8 33 62 60 64 25 158 25 225 0z m-2390 4
l38 -7 -40 -28 c-22 -16 -50 -45 -62 -64 -28 -42 -41 -45 -34 -7 3 15 8 46 11
70 7 46 12 48 87 36z m2563 -46 c3 -29 9 -61 11 -70 8 -28 -9 -21 -31 13 -11
17 -39 46 -63 64 l-43 34 33 4 c88 11 85 12 93 -45z m-1487 -32 c7 -37 11 -74
8 -82 -10 -27 -23 -14 -29 29 -3 23 -9 62 -13 86 -6 35 -4 43 7 39 8 -3 19
-34 27 -72z m222 55 c0 -44 -10 -51 -71 -51 l-59 0 0 35 0 35 65 0 c57 0 65
-2 65 -19z m136 -13 c-3 -18 -8 -57 -12 -86 -7 -55 -20 -75 -30 -47 -11 28 17
165 34 165 11 0 13 -8 8 -32z m-1110 -43 c73 -46 107 -101 112 -181 6 -85 -16
-141 -73 -192 -102 -89 -254 -83 -348 13 -35 36 -67 111 -67 157 0 59 25 115
74 163 60 60 98 75 187 72 54 -2 76 -8 115 -32z m252 19 c2 -1 0 -31 -5 -66
-7 -59 -10 -63 -35 -66 -23 -3 -30 3 -52 45 -13 26 -37 59 -52 73 -26 24 -26
23 4 -17 80 -103 91 -233 29 -336 -21 -34 -25 -36 -41 -24 -19 14 -18 16 5 63
43 89 30 181 -39 273 l-25 34 23 19 c21 17 34 18 104 12 45 -3 83 -8 84 -10z
m1512 -2 l23 -18 -35 -46 c-63 -82 -71 -172 -26 -267 21 -43 21 -44 3 -57 -17
-12 -21 -11 -37 14 -23 34 -48 116 -48 157 0 53 29 132 65 180 19 25 31 45 27
45 -11 0 -69 -81 -81 -113 -10 -26 -59 -43 -67 -23 -2 6 -5 38 -6 71 l-3 60
55 6 c96 10 107 9 130 -9z m290 -3 c93 -42 143 -116 144 -214 0 -94 -59 -183
-146 -219 -42 -18 -126 -21 -179 -6 -47 13 -115 72 -140 123 -26 50 -28 137
-5 192 51 121 205 179 326 124z m-1755 -36 c-13 -105 -15 -113 -34 -113 -16 0
-17 6 -9 68 12 86 14 92 33 92 13 0 15 -8 10 -47z m165 6 c0 -37 1 -39 16 -24
20 20 53 16 68 -7 25 -40 -37 -76 -74 -43 -16 15 -18 14 -24 -7 -3 -13 -6 -35
-6 -50 0 -23 -4 -28 -25 -28 -30 0 -29 -9 -8 107 13 78 19 93 35 93 14 0 18
-8 18 -41z m949 -36 c7 -43 15 -88 18 -100 4 -19 1 -23 -20 -23 -22 0 -25 5
-31 50 -7 50 -19 64 -30 34 -8 -20 -55 -15 -70 9 -24 38 30 73 65 41 18 -17
19 -16 19 24 0 34 3 42 19 42 15 0 20 -13 30 -77z m-1028 57 l26 0 -11 -64
c-6 -36 -14 -68 -18 -71 -4 -4 -23 -4 -43 -1 -31 6 -35 10 -35 39 0 18 3 49 7
70 5 33 9 38 27 33 12 -3 33 -6 47 -6z m1101 -12 c29 -14 38 -34 38 -85 0 -26
-5 -34 -24 -39 -43 -10 -60 -1 -67 36 -20 105 -20 100 4 100 13 0 35 -6 49
-12z m86 -70 c8 -53 7 -58 -9 -58 -19 0 -24 13 -32 87 -4 33 -2 43 12 45 18 4
17 5 29 -74z m-608 40 c0 -21 -5 -23 -55 -24 -51 0 -55 2 -55 23 0 21 4 23 55
23 50 0 55 -2 55 -22z m-1313 1 c8 -8 5 -25 -13 -63 -42 -90 -24 -198 44 -269
25 -26 25 -28 8 -45 -17 -16 -19 -15 -56 26 -74 82 -91 213 -41 315 23 47 38
56 58 36z m2583 -40 c21 -37 25 -57 25 -124 0 -67 -5 -88 -27 -130 -14 -27
-38 -61 -52 -74 -25 -23 -27 -24 -43 -8 -16 16 -15 18 9 44 47 50 62 93 63
168 0 55 -5 78 -23 109 -18 30 -20 41 -11 52 18 21 31 13 59 -37z m-1307 -19
c-3 -11 -9 -20 -14 -20 -5 0 -9 9 -9 20 0 11 6 20 14 20 9 0 12 -7 9 -20z
m-146 -22 c-3 -8 -6 -5 -6 6 -1 11 2 17 5 13 3 -3 4 -12 1 -19z m273 0 c0 -16
-3 -19 -11 -11 -6 6 -8 16 -5 22 11 17 16 13 16 -11z m-160 2 c0 -5 9 -10 20
-10 11 0 20 5 20 11 0 18 79 4 94 -17 8 -10 20 -15 30 -11 11 5 16 1 16 -14 0
-15 -5 -18 -24 -13 -14 3 -29 0 -37 -9 -21 -21 -89 -30 -89 -11 0 9 -11 14
-35 14 -19 0 -35 -5 -35 -11 0 -14 -77 -4 -97 13 -17 13 -17 41 0 35 6 -2 28
4 47 15 37 19 90 24 90 8z m-626 -29 c37 -6 43 -11 85 -83 35 -60 51 -79 73
-83 26 -6 28 -10 28 -56 0 -55 -2 -56 -70 -35 -41 12 -51 22 -116 117 -39 57
-74 117 -78 132 -6 26 -5 28 16 21 13 -4 41 -10 62 -13z m1368 -8 c-3 -15 -38
-75 -78 -133 l-72 -105 -62 -17 -61 -16 3 51 c3 48 5 52 34 60 25 7 40 24 74
84 23 41 47 76 54 78 6 1 34 7 61 13 28 5 51 10 51 11 1 0 -1 -11 -4 -26z
m-911 -6 c-1 -4 -1 -16 -1 -28 0 -11 -4 -17 -10 -14 -14 8 -13 58 1 53 6 -2
10 -7 10 -11z m-209 -22 c-3 -19 1 -27 21 -34 14 -6 31 -19 36 -30 14 -25 14
-168 1 -176 -5 -3 -10 -12 -10 -18 1 -23 30 27 30 51 0 19 4 23 18 17 9 -3 29
-9 45 -12 25 -5 27 -9 27 -54 0 -27 -1 -49 -2 -49 -2 0 -32 9 -68 20 -96 29
-110 27 -110 -14 0 -28 5 -36 30 -46 37 -15 34 -31 -6 -42 -36 -10 -88 -2
-104 17 -9 11 -5 17 19 30 l31 16 0 134 c0 78 4 136 10 140 6 3 10 22 10 41 0
22 5 34 14 34 9 0 12 -8 8 -25z m598 15 c0 -5 -2 -10 -4 -10 -3 0 -8 5 -11 10
-3 6 -1 10 4 10 6 0 11 -4 11 -10z m220 -24 c0 -19 5 -38 10 -41 6 -4 10 -62
10 -140 l0 -134 31 -17 c29 -15 30 -17 15 -32 -21 -21 -106 -23 -130 -3 -16
14 -15 16 16 30 26 13 34 23 36 49 3 28 0 32 -20 32 -13 0 -52 -9 -88 -20 -36
-11 -69 -20 -73 -20 -4 0 -7 21 -5 46 3 46 4 47 48 60 25 8 46 14 48 14 1 0 2
-13 2 -29 0 -16 7 -35 17 -42 15 -13 15 -12 5 8 -19 35 -15 173 5 195 9 10 22
18 30 18 8 0 13 12 13 30 0 20 5 30 15 30 10 0 15 -10 15 -34z m-2019 -96 c49
-41 89 -78 89 -82 1 -24 -42 1 -113 67 -45 42 -92 78 -105 82 l-23 5 23 25 23
25 9 -24 c5 -12 49 -57 97 -98z m3321 64 c-15 -6 -63 -43 -105 -83 -68 -62
-107 -86 -107 -64 0 4 21 27 48 50 l47 44 -55 -35 c-54 -36 -84 -44 -94 -27
-7 11 130 72 148 65 14 -5 96 78 96 98 0 6 11 1 25 -12 l25 -24 -28 -12z
m-1592 16 c0 -11 -7 -20 -15 -20 -8 0 -15 9 -15 20 0 11 7 20 15 20 8 0 15 -9
15 -20z m-140 -10 c0 -13 -7 -20 -20 -20 -13 0 -20 7 -20 20 0 13 7 20 20 20
13 0 20 -7 20 -20z m208 -96 l-3 -36 -27 56 -28 56 28 14 c27 14 27 14 30 -20
2 -19 2 -50 0 -70z m-301 69 c24 -3 43 -10 43 -14 0 -5 -12 -39 -27 -75 -21
-53 -28 -63 -34 -48 -60 159 -59 156 -42 150 9 -4 36 -10 60 -13z m182 -70
c-11 -38 -20 -72 -22 -77 -1 -4 -15 22 -30 60 -30 76 -27 84 34 84 l36 0 -18
-67z m-1549 -25 c-23 -9 -92 25 -125 62 -14 15 1 12 64 -17 70 -31 79 -38 61
-45z m784 27 c20 -30 32 -55 27 -55 -5 0 -20 18 -32 40 -13 22 -26 40 -31 40
-4 0 -8 7 -8 15 0 23 4 19 44 -40z m1416 35 c0 -5 -4 -10 -10 -10 -5 0 -19
-18 -30 -40 -11 -22 -25 -40 -30 -40 -6 0 5 22 22 50 32 48 48 61 48 40z
m-2360 -42 c24 -39 25 -58 6 -58 -19 0 -23 7 -31 53 -9 46 -1 47 25 5z m1484
-167 c-3 -3 -17 1 -32 10 -26 14 -27 18 -29 104 l-2 90 34 -99 c19 -55 32
-102 29 -105z m-1434 121 c-7 -3 -16 2 -21 9 -16 25 -9 32 12 13 13 -12 16
-20 9 -22z m1584 -50 c14 -40 26 -77 26 -83 0 -5 -27 -9 -60 -9 -33 0 -60 3
-60 7 0 22 55 172 61 165 4 -4 19 -40 33 -80z m1596 59 c-6 -12 -16 -19 -21
-15 -6 4 -4 13 7 25 21 24 29 18 14 -10z m-1441 -35 c17 -29 31 -58 31 -64 0
-15 -53 -42 -83 -42 l-25 0 22 80 c11 44 22 80 23 80 1 0 15 -24 32 -54z
m-972 -9 c-6 -20 -96 -76 -140 -88 -64 -17 -174 -8 -230 20 -49 24 -49 24 -29
43 18 18 21 19 43 5 73 -48 193 -40 276 17 36 24 53 30 66 24 10 -5 17 -15 14
-21z m1743 -27 c62 -31 158 -32 218 -1 34 17 47 20 58 10 23 -19 17 -29 -38
-54 -80 -37 -184 -35 -265 5 -33 17 -68 39 -79 51 -18 20 -18 21 1 35 16 12
21 12 39 -5 12 -10 41 -29 66 -41z m-1651 31 c18 -11 5 -31 -20 -31 -21 0 -22
1 -13 24 7 18 13 19 33 7z m1475 -7 c9 -23 8 -24 -13 -24 -25 0 -38 20 -20 31
20 12 26 11 33 -7z m1272 -55 c21 -19 48 -46 59 -58 l19 -22 -27 6 c-23 6 -27
4 -27 -13 0 -11 15 -42 33 -70 l34 -49 -34 -27 c-18 -15 -33 -33 -33 -41 0 -9
-10 -15 -26 -15 -23 0 -25 3 -19 28 6 27 4 28 -147 91 -84 35 -156 67 -161 71
-4 3 -1 14 5 23 12 15 26 11 163 -47 83 -36 154 -61 159 -56 5 5 5 29 2 55 -6
36 -11 45 -24 43 -13 -3 -20 9 -29 52 -6 30 -15 64 -19 74 -7 18 -6 18 13 5
11 -8 38 -30 59 -50z m-2648 9 c45 -43 14 -138 -46 -138 -52 0 -122 50 -122
88 0 11 11 12 49 7 57 -8 71 4 46 41 -9 13 -13 29 -10 34 8 12 54 -6 83 -32z
m1317 -1 c-25 -38 -12 -50 46 -42 38 5 49 4 49 -7 0 -38 -70 -88 -124 -88 -38
0 -66 33 -66 78 0 42 24 73 70 90 34 13 45 -1 25 -31z m-2032 -39 c7 -21 -4
-38 -23 -38 -23 0 -34 16 -26 35 7 18 43 20 49 3z m70 0 c7 -21 -4 -38 -23
-38 -23 0 -34 16 -26 35 7 18 43 20 49 3z m1064 -20 c-3 -7 -5 -2 -5 12 0 14
2 19 5 13 2 -7 2 -19 0 -25z m403 7 c0 -14 -4 -25 -10 -25 -11 0 -14 33 -3 43
11 11 13 8 13 -18z m1115 0 c0 -21 -31 -33 -46 -18 -5 5 -7 17 -3 27 9 24 49
17 49 -9z m70 0 c0 -23 -34 -33 -45 -14 -13 20 1 40 24 37 13 -2 21 -10 21
-23z m268 5 c4 -4 1 -13 -8 -20 -19 -16 -48 -3 -53 24 -3 14 2 16 25 10 15 -4
32 -10 36 -14z m57 11 c0 -20 -53 -101 -66 -101 -21 0 -17 18 14 66 24 40 52
58 52 35z m-3358 -51 c8 -24 13 -28 23 -20 11 9 12 7 8 -9 -4 -17 -1 -21 17
-21 18 0 21 4 17 21 -4 16 -3 19 5 11 19 -19 1 -45 -28 -39 -24 4 -26 2 -20
-24 8 -40 -13 -48 -39 -15 l-22 27 -171 -48 c-95 -26 -172 -51 -172 -55 0 -5
102 -48 115 -48 3 0 5 7 5 16 0 12 5 14 18 9 9 -5 32 -13 50 -19 17 -6 31 -15
29 -21 -5 -14 -86 -44 -121 -44 -28 -1 -29 0 -11 19 17 18 16 19 -11 25 -86
19 -149 42 -152 55 -1 9 20 43 47 77 43 53 48 64 34 71 -15 9 -5 14 104 47 6
2 -1 -16 -15 -40 -17 -27 -31 -40 -36 -34 -6 5 -13 9 -17 9 -10 0 -61 -78 -58
-89 2 -5 83 16 181 47 l178 57 0 33 c0 42 27 43 42 2z m766 -4 c-2 -13 -10
-21 -23 -21 -23 0 -33 34 -14 45 20 13 40 -1 37 -24z m780 6 c3 -17 -2 -22
-17 -22 -16 0 -21 6 -21 26 0 33 33 30 38 -4z m182 -7 c0 -31 -35 -35 -43 -6
-6 24 0 31 25 31 13 0 18 -7 18 -25z m845 0 c0 -30 -39 -27 -43 3 -3 20 0 23
20 20 15 -2 23 -10 23 -23z m-2307 -19 c5 -24 -10 -38 -31 -30 -20 7 -23 40
-4 47 19 8 32 2 35 -17z m150 1 c4 -20 -25 -34 -40 -19 -15 15 -1 44 19 40 10
-2 19 -11 21 -21z m2507 -2 c0 -30 -39 -27 -43 3 -3 20 0 23 20 20 15 -2 23
-10 23 -23z m143 13 c7 -7 12 -17 12 -24 0 -19 -32 -26 -48 -10 -13 12 -13 18
-2 30 15 19 22 20 38 4z m-2720 -21 c2 -9 -4 -20 -12 -23 -21 -8 -46 13 -39
32 8 20 47 13 51 -9z m2652 3 c0 -24 -26 -38 -42 -22 -16 16 -2 42 22 42 13 0
20 -7 20 -20z m-2350 -10 c0 -24 -26 -38 -42 -22 -16 16 -2 42 22 42 13 0 20
-7 20 -20z m2048 -3 c2 -9 -4 -20 -12 -23 -21 -8 -46 13 -39 32 8 20 47 13 51
-9z m-1840 -20 c4 -20 -25 -34 -40 -19 -15 15 -1 44 19 40 10 -2 19 -11 21
-21z m1627 -2 c0 -30 -39 -27 -43 3 -3 20 0 23 20 20 15 -2 23 -10 23 -23z
m-2255 -11 c11 -12 10 -18 -3 -32 -16 -15 -18 -15 -34 0 -13 14 -14 20 -3 32
7 9 16 16 20 16 4 0 13 -7 20 -16z m238 -7 c2 -9 -4 -20 -12 -23 -21 -8 -46
13 -39 32 8 20 47 13 51 -9z m2412 3 c0 -24 -26 -38 -42 -22 -16 16 -2 42 22
42 13 0 20 -7 20 -20z m230 4 c11 -12 10 -18 -3 -32 -16 -15 -18 -15 -34 0
-13 14 -14 20 -3 32 7 9 16 16 20 16 4 0 13 -7 20 -16z m-2800 -14 c0 -24 -26
-38 -42 -22 -16 16 -2 42 22 42 13 0 20 -7 20 -20z m78 -2 c-2 -15 -10 -23
-23 -23 -13 0 -21 8 -23 23 -3 18 1 22 23 22 22 0 26 -4 23 -22z m830 11 c18
1 41 -3 50 -8 11 -6 24 -6 35 0 22 13 57 2 57 -17 0 -9 5 -12 12 -8 7 4 8 3 4
-4 -4 -7 -3 -12 3 -12 19 0 21 19 4 30 -13 8 -14 10 -3 9 8 -1 23 2 34 6 11 5
26 4 37 -3 10 -7 26 -9 36 -5 15 5 15 3 -2 -10 -15 -12 -17 -18 -8 -27 13 -14
33 -5 33 13 0 7 10 13 23 14 20 2 20 1 4 -8 -13 -8 -15 -14 -8 -23 8 -10 3
-13 -24 -14 -19 -1 -35 2 -35 6 0 10 -113 8 -129 -2 -6 -4 -23 0 -38 9 -18 12
-28 14 -36 6 -14 -14 -44 -14 -52 -1 -3 6 1 7 9 4 24 -9 47 3 40 21 -9 22 -34
18 -60 -10 -23 -25 -68 -34 -79 -15 -4 6 -14 4 -28 -5 -15 -9 -27 -11 -37 -5
-12 8 -9 10 13 10 17 0 27 5 27 15 0 9 -9 15 -22 14 -22 0 -22 -1 -3 -10 19
-9 18 -9 -2 -5 -13 2 -26 0 -29 -5 -3 -5 -15 -9 -27 -9 -18 0 -19 2 -7 10 13
9 12 13 -5 26 -20 16 -19 16 5 10 47 -13 105 -12 119 2 8 8 22 11 35 7 12 -4
36 -7 54 -6z m951 -2 c11 -14 70 -15 121 -2 l25 6 -24 -11 c-19 -8 -21 -13
-11 -25 10 -12 10 -15 -3 -15 -9 0 -18 4 -21 9 -3 5 -16 7 -29 5 -20 -4 -21
-4 -2 5 19 9 19 10 -2 10 -15 1 -23 -5 -23 -15 0 -12 7 -15 25 -12 27 6 35 -6
11 -15 -8 -3 -22 0 -32 8 -13 9 -24 10 -41 2 -16 -7 -30 -7 -45 0 -16 7 -28 7
-40 -1 -13 -8 -23 -8 -38 2 -17 10 -24 10 -44 -4 -19 -12 -29 -13 -45 -4 -30
16 -26 20 14 13 27 -4 35 -2 35 10 0 20 -29 30 -46 16 -9 -7 -18 -7 -31 0 -20
11 -18 11 50 12 92 0 135 4 143 12 12 11 41 8 53 -6z m789 -9 c-2 -15 -10 -23
-23 -23 -13 0 -21 8 -23 23 -3 18 1 22 23 22 22 0 26 -4 23 -22z m80 -1 c2 -9
-4 -20 -13 -23 -20 -8 -50 19 -40 36 10 17 49 8 53 -13z m-1141 -7 c3 -11 9
-18 12 -15 4 2 8 -2 8 -9 0 -8 -15 -12 -42 -12 -23 -1 -46 -3 -51 -6 -5 -3
-21 -6 -36 -6 -19 0 -25 5 -21 15 3 8 0 19 -8 24 -10 6 -8 8 9 6 14 -1 22 -8
22 -19 0 -10 6 -18 14 -18 25 0 30 22 10 38 -13 10 -14 13 -3 9 9 -3 22 -1 30
4 24 15 51 10 56 -11z m-647 -10 c0 -5 -7 -10 -15 -10 -8 0 -15 5 -15 10 0 6
7 10 15 10 8 0 15 -4 15 -10z m-492 -12 c8 -8 9 -15 1 -25 -8 -9 -8 -13 0 -13
6 0 11 -9 11 -20 0 -13 7 -20 20 -20 17 0 19 -4 14 -26 -5 -19 -4 -25 5 -20 6
4 11 14 11 22 0 12 7 14 28 10 194 -40 370 -56 692 -63 347 -7 592 8 870 53
34 5 34 5 10 -8 -31 -17 -39 -68 -15 -92 30 -30 85 -15 85 24 0 11 -6 8 -19
-9 -22 -29 -58 -21 -67 15 -9 35 13 57 50 50 29 -5 30 -5 12 9 -23 18 -21 21
19 27 17 3 24 3 18 1 -16 -5 -16 -7 1 -63 13 -43 15 -45 47 -42 19 1 38 7 44
13 7 7 -1 9 -26 4 -27 -5 -38 -3 -42 8 -4 11 3 19 24 26 40 14 37 21 -6 14
-27 -4 -35 -2 -35 10 0 9 12 18 30 22 32 7 42 35 13 35 -15 0 -16 -2 -3 -10 9
-6 10 -10 3 -10 -22 0 -43 12 -43 25 0 10 9 11 40 4 24 -6 49 -5 65 1 15 6 28
10 31 10 2 0 4 -31 4 -69 l0 -68 -77 -22 c-312 -86 -741 -125 -1135 -103 -273
15 -534 51 -673 92 -16 5 -49 14 -72 20 l-43 11 0 70 c0 61 2 70 16 65 9 -3
27 -9 40 -12 13 -3 24 -7 24 -8 0 -1 -7 -26 -16 -55 -8 -30 -12 -57 -7 -61 14
-13 65 -22 58 -10 -3 5 -12 10 -20 10 -8 0 -17 4 -20 10 -8 13 14 93 29 102 7
5 4 8 -7 8 -10 0 -15 5 -12 10 3 6 -5 10 -19 10 -13 0 -36 4 -50 10 l-25 9 -3
-67 c-3 -67 -3 -67 -41 -85 -61 -28 -204 -74 -292 -93 -89 -18 -334 -24 -373
-8 -20 9 -17 11 33 28 30 11 55 23 55 27 0 4 -23 20 -52 36 l-52 28 185 6
c218 8 282 22 463 104 120 54 171 66 194 43z m742 2 c0 -5 -2 -10 -4 -10 -3 0
-8 5 -11 10 -3 6 -1 10 4 10 6 0 11 -4 11 -10z m487 4 c-3 -3 -12 -4 -19 -1
-8 3 -5 6 6 6 11 1 17 -2 13 -5z m692 -9 c35 -9 100 -31 144 -51 123 -54 191
-66 392 -73 l180 -6 -52 -28 c-29 -15 -53 -31 -53 -36 0 -4 27 -16 61 -26 55
-17 59 -20 38 -28 -40 -16 -305 -12 -385 6 -87 20 -194 59 -251 92 -23 14 -53
25 -67 25 -25 0 -26 3 -26 54 l0 55 -32 -10 c-38 -11 -102 -12 -111 -2 -4 3 0
15 10 25 20 22 65 23 152 3z"/>
<path d="M14784 10137 c8 -70 12 -85 17 -62 6 26 7 27 8 6 0 -13 4 -22 7 -18
7 6 -24 147 -35 159 -4 4 -2 -34 3 -85z"/>
<path d="M15403 10176 c-6 -29 -8 -68 -4 -87 7 -29 9 -22 15 49 5 46 6 85 4
87 -2 2 -9 -19 -15 -49z"/>
<path d="M14450 10116 c0 -23 44 -126 50 -116 4 6 21 -15 39 -50 18 -33 35
-60 37 -60 3 0 -16 39 -42 88 -60 110 -84 149 -84 138z"/>
<path d="M15381 10084 c0 -11 3 -14 6 -6 3 7 2 16 -1 19 -3 4 -6 -2 -5 -13z"/>
<path d="M15546 10044 c-4 -20 -5 -38 -3 -40 3 -3 8 11 11 32 4 20 5 38 3 40
-3 3 -8 -11 -11 -32z"/>
<path d="M14642 10055 c0 -11 4 -31 8 -45 6 -20 8 -21 8 -5 0 11 -4 31 -8 45
-6 20 -8 21 -8 5z"/>
<path d="M14821 10034 c0 -11 3 -14 6 -6 3 7 2 16 -1 19 -3 4 -6 -2 -5 -13z"/>
<path d="M15393 10010 c0 -25 2 -35 4 -22 2 12 2 32 0 45 -2 12 -4 2 -4 -23z"/>
<path d="M14803 9995 c0 -22 2 -30 4 -17 2 12 2 30 0 40 -3 9 -5 -1 -4 -23z"/>
<path d="M14831 9994 c0 -11 3 -14 6 -6 3 7 2 16 -1 19 -3 4 -6 -2 -5 -13z"/>
<path d="M15532 9970 c0 -14 2 -19 5 -12 2 6 2 18 0 25 -3 6 -5 1 -5 -13z"/>
<path d="M14506 9960 c4 -14 13 -38 20 -55 11 -24 13 -25 8 -5 -4 14 -13 39
-20 55 -11 24 -13 25 -8 5z"/>
<path d="M14662 9965 c0 -11 4 -31 8 -45 6 -20 8 -21 8 -5 0 11 -4 31 -8 45
-6 20 -8 21 -8 5z"/>
<path d="M15383 9920 c0 -25 2 -35 4 -22 2 12 2 32 0 45 -2 12 -4 2 -4 -23z"/>
<path d="M14813 9910 c0 -25 2 -35 4 -22 2 12 2 32 0 45 -2 12 -4 2 -4 -23z"/>
<path d="M15521 9924 c0 -11 3 -14 6 -6 3 7 2 16 -1 19 -3 4 -6 -2 -5 -13z"/>
<path d="M15508 9877 c-3 -19 -2 -25 4 -19 6 6 8 18 6 28 -3 14 -5 12 -10 -9z"/>
<path d="M15651 9869 c-6 -18 -9 -34 -7 -36 2 -2 9 10 15 28 6 18 9 34 7 36
-2 2 -9 -10 -15 -28z"/>
<path d="M14680 9870 c0 -11 4 -20 9 -20 5 0 7 9 4 20 -3 11 -7 20 -9 20 -2 0
-4 -9 -4 -20z"/>
<path d="M16751 8584 c0 -11 3 -14 6 -6 3 7 2 16 -1 19 -3 4 -6 -2 -5 -13z"/>
<path d="M14394 9148 l-19 -21 30 18 c41 26 40 25 23 25 -8 0 -23 -10 -34 -22z"/>
<path d="M14510 9163 c8 -3 24 -10 35 -15 20 -9 20 -9 1 6 -11 9 -27 16 -35
15 -14 0 -14 -1 -1 -6z"/>
<path d="M14394 9081 c25 -28 85 -36 130 -17 20 8 36 19 36 25 0 5 -12 3 -27
-5 -36 -18 -75 -18 -120 1 -36 15 -36 15 -19 -4z"/>
<path d="M14680 8675 c-18 -22 -8 -120 15 -145 13 -15 22 -17 36 -9 16 8 19
21 19 77 0 40 -5 73 -12 80 -16 16 -43 15 -58 -3z m49 -9 c19 -22 10 -130 -10
-134 -31 -6 -54 109 -27 136 16 16 23 15 37 -2z"/>
<path d="M15462 8678 c-15 -15 -16 -140 -1 -155 41 -41 91 87 59 148 -12 21
-40 25 -58 7z m48 -13 c27 -33 -8 -150 -39 -131 -16 10 -14 133 2 139 20 9 24
8 37 -8z"/>
<path d="M14593 8303 c-17 -6 -16 -30 1 -36 8 -3 22 0 32 7 17 13 17 14 -2 23
-10 6 -25 8 -31 6z m24 -19 c-3 -3 -12 -4 -19 -1 -8 3 -5 6 6 6 11 1 17 -2 13
-5z"/>
<path d="M14763 8293 c-17 -6 -16 -30 0 -36 20 -8 41 9 34 27 -7 16 -13 18
-34 9z m24 -19 c-3 -3 -12 -4 -19 -1 -8 3 -5 6 6 6 11 1 17 -2 13 -5z"/>
<path d="M14860 8280 c0 -13 7 -20 18 -20 24 0 32 8 25 26 -8 22 -43 17 -43
-6z m30 0 c0 -5 -4 -10 -10 -10 -5 0 -10 5 -10 10 0 6 5 10 10 10 6 0 10 -4
10 -10z"/>
<path d="M15571 8296 c-14 -17 9 -39 33 -30 20 8 21 30 0 38 -21 8 -20 8 -33
-8z m32 -13 c-7 -2 -19 -2 -25 0 -7 3 -2 5 12 5 14 0 19 -2 13 -5z"/>
<path d="M15485 8290 c-4 -7 -3 -16 3 -22 14 -14 47 -6 47 12 0 18 -40 26 -50
10z m35 -10 c0 -5 -4 -10 -10 -10 -5 0 -10 5 -10 10 0 6 5 10 10 10 6 0 10 -4
10 -10z"/>
<path d="M15295 8290 c-9 -15 4 -30 26 -30 12 0 19 7 19 20 0 21 -33 29 -45
10z m35 -10 c0 -5 -4 -10 -10 -10 -5 0 -10 5 -10 10 0 6 5 10 10 10 6 0 10 -4
10 -10z"/>
<path d="M14326 8138 c-11 -43 -7 -86 10 -92 28 -11 53 -6 62 12 16 28 24 82
14 82 -5 0 -12 -18 -16 -39 -7 -45 -17 -55 -46 -46 -18 6 -20 12 -14 56 7 50
1 66 -10 27z"/>
<path d="M14440 8128 c-1 -7 -5 -32 -9 -55 -10 -53 2 -57 16 -5 l10 37 22 -49
c26 -58 36 -52 46 24 8 61 -4 63 -15 3 l-6 -38 -24 48 c-23 46 -40 60 -40 35z"/>
<path d="M15732 8132 c-9 -6 -10 -20 -3 -56 10 -54 21 -72 21 -33 0 37 17 43
46 16 27 -25 44 -21 18 5 -12 13 -13 20 -5 30 19 23 2 46 -33 46 -17 0 -37 -4
-44 -8z m63 -22 c0 -9 -11 -16 -27 -18 -27 -3 -38 14 -21 32 12 12 48 2 48
-14z"/>
<path d="M14556 8099 c-13 -64 -15 -89 -7 -89 10 0 26 98 18 107 -4 3 -8 -5
-11 -18z"/>
<path d="M15610 8101 c-15 -29 -12 -56 8 -74 52 -47 115 11 82 74 -7 13 -21
19 -45 19 -24 0 -38 -6 -45 -19z m80 -17 c18 -47 -25 -85 -58 -52 -13 13 -16
60 -5 71 17 17 54 6 63 -19z"/>
<path d="M14602 8098 c-17 -17 -15 -73 2 -87 24 -20 69 -9 85 20 13 24 13 29
-2 53 -19 28 -63 36 -85 14z m68 -12 c28 -35 -11 -93 -47 -70 -24 15 -28 48
-8 68 20 20 39 20 55 2z"/>
<path d="M15509 8103 c0 -5 0 -28 1 -53 2 -52 20 -81 20 -33 0 27 4 32 28 36
25 4 25 4 -5 6 -22 0 -33 6 -33 16 0 8 15 19 33 24 l32 9 -37 1 c-21 1 -38 -2
-39 -6z"/>
<path d="M14716 8063 c-8 -54 -7 -73 4 -73 6 0 10 19 10 43 1 46 5 44 44 -25
l19 -33 8 25 c9 32 11 106 2 97 -3 -4 -9 -24 -12 -44 l-7 -38 -24 43 c-13 23
-27 42 -31 42 -3 0 -9 -17 -13 -37z"/>
<path d="M15385 8088 c-15 -42 -35 -101 -35 -104 0 -14 19 0 23 16 6 25 52 27
61 4 4 -9 9 -14 12 -11 6 5 -43 107 -51 107 -3 0 -8 -6 -10 -12z m19 -56 c-21
-5 -24 0 -17 27 l6 23 13 -23 c11 -20 10 -25 -2 -27z"/>
<path d="M14880 8058 c0 -18 -3 -43 -6 -55 -4 -14 -2 -23 5 -23 6 0 11 11 11
24 0 20 6 25 33 29 l32 4 -33 1 c-47 3 -40 35 8 43 l35 6 -42 2 c-42 1 -43 0
-43 -31z"/>
<path d="M14986 8038 c-23 -50 -26 -83 -5 -45 14 25 54 22 67 -5 8 -17 11 -19
11 -6 1 19 -35 108 -44 108 -3 0 -17 -24 -29 -52z m43 -10 c1 -5 -6 -8 -14 -8
-16 0 -19 9 -8 36 6 16 7 16 14 -2 4 -10 8 -22 8 -26z"/>
<path d="M15087 8083 c-11 -10 -8 -101 3 -108 6 -4 10 17 10 54 0 62 -1 66
-13 54z"/>
<path d="M15120 8080 c0 -5 7 -10 15 -10 9 0 16 -14 20 -37 11 -67 13 -69 14
-15 1 45 4 52 21 52 11 0 20 5 20 10 0 6 -20 10 -45 10 -25 0 -45 -4 -45 -10z"/>
<path d="M15272 8038 l-2 -58 38 1 c36 1 36 2 7 8 -27 6 -31 10 -36 56 l-6 50
-1 -57z"/>
<path d="M8385 8935 c-69 -10 -100 -11 -132 -2 -40 10 -44 10 -84 -23 -23 -18
-63 -45 -89 -59 -44 -24 -153 -139 -178 -188 -7 -12 -12 -37 -12 -57 0 -47 59
-115 162 -185 61 -42 93 -73 136 -133 31 -44 71 -98 87 -120 17 -23 37 -44 45
-46 13 -5 13 -3 1 11 -17 21 -13 21 32 2 20 -8 50 -15 66 -15 24 0 34 -7 46
-30 19 -38 19 -39 -7 -32 -34 8 -13 -15 33 -37 40 -20 40 -20 60 0 25 25 54
18 132 -28 99 -60 156 -74 357 -87 15 -1 45 -22 77 -53 66 -64 142 -103 202
-103 42 0 51 -5 93 -47 25 -27 55 -56 65 -66 10 -10 45 -46 78 -81 65 -67 132
-106 184 -106 21 0 56 -14 94 -37 59 -37 64 -38 186 -46 170 -11 329 -12 366
-4 25 6 32 4 40 -15 7 -17 21 -25 50 -29 22 -3 67 -18 100 -33 33 -16 94 -34
135 -40 41 -6 85 -17 96 -23 36 -20 99 -26 139 -13 45 15 67 1 48 -30 -11 -16
-7 -28 20 -76 17 -32 36 -56 42 -55 5 1 12 -7 16 -18 5 -12 16 -19 28 -18 17
1 21 8 21 34 0 32 12 43 25 23 10 -16 35 8 35 32 0 11 -13 33 -30 50 -16 16
-30 38 -30 48 0 35 19 70 38 70 11 0 43 10 71 21 52 22 52 22 33 43 -21 23
-56 106 -48 114 3 2 -1 14 -9 26 -9 12 -15 45 -15 81 -1 33 -7 76 -14 96 -27
77 -221 295 -283 320 -32 12 -29 29 5 30 l27 1 -30 7 c-16 4 -44 15 -62 24
-18 9 -46 17 -63 17 -40 0 -158 38 -192 62 -21 15 -32 17 -47 8 -34 -18 -81
-12 -113 15 -19 16 -42 25 -63 25 -23 0 -39 7 -48 21 -11 15 -44 28 -114 45
-67 17 -114 36 -149 60 -35 23 -62 34 -87 34 -29 0 -40 6 -54 28 -34 52 -88
113 -119 133 -19 11 -49 19 -77 19 -36 0 -48 5 -61 24 -9 14 -27 26 -43 28
-21 2 -29 11 -41 46 -17 53 -46 70 -92 53 -27 -9 -40 -8 -75 8 -27 12 -79 21
-146 25 -138 9 -259 46 -317 97 -27 23 -61 42 -92 49 -27 7 -69 26 -92 43 -93
67 -205 86 -363 62z"/>
<path d="M4675 6587 c-77 -40 -102 -58 -109 -79 -13 -39 9 -105 49 -145 27
-27 41 -33 77 -33 64 0 100 -13 158 -59 58 -46 99 -53 152 -25 53 27 165 113
182 138 19 29 37 103 29 122 -8 22 -72 54 -139 70 -35 8 -85 26 -110 39 -38
20 -61 25 -118 25 -66 -1 -78 -5 -171 -53z"/>
<path d="M4452 6438 c-15 -15 -16 -45 -1 -53 16 -11 56 3 63 22 5 11 1 22 -10
30 -22 16 -37 16 -52 1z"/>
<path d="M7220 3735 c-7 -20 -16 -32 -22 -29 -15 10 -89 15 -100 8 -6 -4 -5
-10 3 -14 10 -7 10 -11 0 -24 -15 -17 -11 -19 32 -16 16 1 36 -5 45 -13 16
-14 42 -12 109 8 6 2 -37 110 -45 113 -6 2 -15 -13 -22 -33z"/>
<path d="M5150 2861 c0 -11 5 -23 11 -27 6 -3 22 -29 35 -57 l23 -51 10 27
c13 33 46 36 54 5 4 -12 2 -27 -4 -34 -6 -7 -5 -15 4 -23 8 -6 31 -47 51 -91
36 -76 40 -80 70 -80 18 0 41 -7 52 -15 26 -20 43 -19 62 5 18 21 5 22 340 -9
l114 -11 44 32 c47 34 57 65 28 89 -9 8 -34 42 -56 76 -29 45 -50 67 -82 82
-23 12 -46 21 -50 21 -4 0 -41 -22 -82 -49 -41 -28 -91 -55 -111 -62 -72 -24
-186 15 -232 80 -15 21 -27 28 -41 24 -14 -4 -30 3 -45 17 -16 15 -41 24 -74
28 -32 3 -56 11 -67 23 -23 25 -54 25 -54 0z"/>
</g>
</svg>
